<svg width="92" height="92" viewBox="0 0 92 92" fill="none" xmlns="http://www.w3.org/2000/svg">
<path d="M46 92C71.4051 92 92 71.4051 92 46C92 20.5949 71.4051 0 46 0C20.5949 0 0 20.5949 0 46C0 71.4051 20.5949 92 46 92Z" fill="#F5F5F5"/>
<path d="M26.2708 48.125C27.3006 48.125 28.1354 47.2902 28.1354 46.2604C28.1354 45.2306 27.3006 44.3958 26.2708 44.3958C25.2411 44.3958 24.4062 45.2306 24.4062 46.2604C24.4062 47.2902 25.2411 48.125 26.2708 48.125Z" fill="#3D3D3C"/>
<path d="M32.2708 48.125C33.3006 48.125 34.1354 47.2902 34.1354 46.2604C34.1354 45.2306 33.3006 44.3958 32.2708 44.3958C31.2411 44.3958 30.4062 45.2306 30.4062 46.2604C30.4062 47.2902 31.2411 48.125 32.2708 48.125Z" fill="#3D3D3C"/>
<path d="M36.3438 38.25C37.3736 38.25 38.2084 37.4152 38.2084 36.3855C38.2084 35.3557 37.3736 34.5209 36.3438 34.5209C35.3141 34.5209 34.4792 35.3557 34.4792 36.3855C34.4792 37.4152 35.3141 38.25 36.3438 38.25Z" fill="#3D3D3C"/>
<path d="M55.7501 38.25C56.7799 38.25 57.6147 37.4152 57.6147 36.3855C57.6147 35.3557 56.7799 34.5209 55.7501 34.5209C54.7203 34.5209 53.8855 35.3557 53.8855 36.3855C53.8855 37.4152 54.7203 38.25 55.7501 38.25Z" fill="#3D3D3C"/>
<path d="M60.0001 33.8958C61.0299 33.8958 61.8647 33.061 61.8647 32.0312C61.8647 31.0014 61.0299 30.1666 60.0001 30.1666C58.9703 30.1666 58.1355 31.0014 58.1355 32.0312C58.1355 33.061 58.9703 33.8958 60.0001 33.8958Z" fill="#3D3D3C"/>
<path d="M59.6876 48.1667C60.7174 48.1667 61.5522 47.3319 61.5522 46.3021C61.5522 45.2723 60.7174 44.4375 59.6876 44.4375C58.6578 44.4375 57.823 45.2723 57.823 46.3021C57.823 47.3319 58.6578 48.1667 59.6876 48.1667Z" fill="#3D3D3C"/>
<path d="M55.7396 58.0104C56.7694 58.0104 57.6042 57.1756 57.6042 56.1458C57.6042 55.1161 56.7694 54.2812 55.7396 54.2812C54.7098 54.2812 53.875 55.1161 53.875 56.1458C53.875 57.1756 54.7098 58.0104 55.7396 58.0104Z" fill="#3D3D3C"/>
<path d="M60.0001 62.3646C61.0299 62.3646 61.8647 61.5298 61.8647 60.5C61.8647 59.4702 61.0299 58.6354 60.0001 58.6354C58.9703 58.6354 58.1355 59.4702 58.1355 60.5C58.1355 61.5298 58.9703 62.3646 60.0001 62.3646Z" fill="#3D3D3C"/>
<path d="M65.8438 48.1667C66.8736 48.1667 67.7084 47.3319 67.7084 46.3021C67.7084 45.2723 66.8736 44.4375 65.8438 44.4375C64.8141 44.4375 63.9792 45.2723 63.9792 46.3021C63.9792 47.3319 64.8141 48.1667 65.8438 48.1667Z" fill="#3D3D3C"/>
<path d="M45.9998 28.052C47.0296 28.052 47.8644 27.2172 47.8644 26.1875C47.8644 25.1577 47.0296 24.3229 45.9998 24.3229C44.9701 24.3229 44.1353 25.1577 44.1353 26.1875C44.1353 27.2172 44.9701 28.052 45.9998 28.052Z" fill="#3D3D3C"/>
<path d="M46.0103 34.2708C47.0401 34.2708 47.8749 33.436 47.8749 32.4062C47.8749 31.3764 47.0401 30.5416 46.0103 30.5416C44.9806 30.5416 44.1458 31.3764 44.1458 32.4062C44.1458 33.436 44.9806 34.2708 46.0103 34.2708Z" fill="#3D3D3C"/>
<path d="M32.0313 33.8958C33.0611 33.8958 33.8959 33.061 33.8959 32.0312C33.8959 31.0014 33.0611 30.1666 32.0313 30.1666C31.0016 30.1666 30.1667 31.0014 30.1667 32.0312C30.1667 33.061 31.0016 33.8958 32.0313 33.8958Z" fill="#3D3D3C"/>
<path d="M36.3438 58.0104C37.3736 58.0104 38.2084 57.1756 38.2084 56.1458C38.2084 55.1161 37.3736 54.2812 36.3438 54.2812C35.3141 54.2812 34.4792 55.1161 34.4792 56.1458C34.4792 57.1756 35.3141 58.0104 36.3438 58.0104Z" fill="#3D3D3C"/>
<path d="M32.0313 62.3646C33.0611 62.3646 33.8959 61.5298 33.8959 60.5C33.8959 59.4702 33.0611 58.6354 32.0313 58.6354C31.0016 58.6354 30.1667 59.4702 30.1667 60.5C30.1667 61.5298 31.0016 62.3646 32.0313 62.3646Z" fill="#3D3D3C"/>
<path d="M45.9998 62.1354C47.0296 62.1354 47.8644 61.3006 47.8644 60.2708C47.8644 59.2411 47.0296 58.4062 45.9998 58.4062C44.9701 58.4062 44.1353 59.2411 44.1353 60.2708C44.1353 61.3006 44.9701 62.1354 45.9998 62.1354Z" fill="#3D3D3C"/>
<path d="M45.9998 68.25C47.0296 68.25 47.8644 67.4152 47.8644 66.3854C47.8644 65.3556 47.0296 64.5208 45.9998 64.5208C44.9701 64.5208 44.1353 65.3556 44.1353 66.3854C44.1353 67.4152 44.9701 68.25 45.9998 68.25Z" fill="#3D3D3C"/>
<path d="M46.0105 39.8542C47.2966 39.8418 48.5574 40.2119 49.6328 40.9174C50.7082 41.6229 51.5497 42.632 52.0505 43.8167C52.5512 45.0014 52.6887 46.3081 52.4454 47.5711C52.2021 48.834 51.589 49.9962 50.684 50.91C49.7789 51.8239 48.6228 52.4482 47.3622 52.7037C46.1017 52.9592 44.7937 52.8344 43.6042 52.3451C42.4147 51.8558 41.3975 51.0241 40.6816 49.9556C39.9657 48.8871 39.5835 47.6299 39.5834 46.3438C39.5834 44.6244 40.2657 42.9754 41.4805 41.7586C42.6953 40.5419 44.3432 39.857 46.0626 39.8542H46.0105ZM46.0626 36.7292C44.161 36.7292 42.3021 37.2931 40.721 38.3495C39.1399 39.406 37.9076 40.9076 37.1799 42.6644C36.4522 44.4213 36.2618 46.3544 36.6327 48.2195C37.0037 50.0845 37.9194 51.7977 39.264 53.1423C40.6087 54.4869 42.3218 55.4026 44.1869 55.7736C46.0519 56.1446 47.9851 55.9542 49.7419 55.2265C51.4988 54.4988 53.0004 53.2665 54.0568 51.6854C55.1133 50.1042 55.6772 48.2454 55.6772 46.3438C55.6785 45.0808 55.4308 43.8299 54.9481 42.6628C54.4654 41.4957 53.7572 40.4353 52.8642 39.5422C51.9711 38.6491 50.9107 37.941 49.7435 37.4583C48.5764 36.9756 47.3256 36.7278 46.0626 36.7292V36.7292Z" fill="#3D3D3C"/>
<path d="M76.7708 42.4792C77.5256 42.4854 78.2616 42.7148 78.8862 43.1386C79.5107 43.5624 79.9958 44.1616 80.2804 44.8607C80.565 45.5597 80.6362 46.3274 80.4852 47.0669C80.3342 47.8064 79.9676 48.4847 79.4318 49.0162C78.8959 49.5477 78.2147 49.9087 77.474 50.0537C76.7333 50.1987 75.9662 50.1212 75.2695 49.8309C74.5728 49.5407 73.9775 49.0507 73.5588 48.4227C73.1401 47.7947 72.9167 47.0569 72.9167 46.3021C72.9167 45.2882 73.3194 44.3158 74.0364 43.5989C74.7533 42.882 75.7257 42.4792 76.7396 42.4792H76.7708ZM76.7396 39.3542C75.365 39.3521 74.0206 39.7579 72.8767 40.5201C71.7327 41.2823 70.8406 42.3667 70.3131 43.636C69.7857 44.9054 69.6466 46.3027 69.9135 47.6512C70.1804 48.9996 70.8413 50.2386 71.8126 51.2113C72.7838 52.1841 74.0218 52.8468 75.3699 53.1158C76.7179 53.3847 78.1154 53.2477 79.3856 52.7221C80.6558 52.1966 81.7415 51.3061 82.5054 50.1633C83.2693 49.0204 83.6771 47.6767 83.6771 46.3021C83.6771 44.4612 82.9465 42.6956 81.6458 41.3929C80.345 40.0902 78.5805 39.357 76.7396 39.3542V39.3542Z" fill="#3D3D3C"/>
<path d="M15.2083 42.4792C15.9644 42.4792 16.7036 42.7034 17.3322 43.1235C17.9609 43.5435 18.4509 44.1406 18.7403 44.8391C19.0296 45.5377 19.1053 46.3064 18.9578 47.0479C18.8103 47.7895 18.4462 48.4707 17.9115 49.0053C17.3769 49.54 16.6957 49.9041 15.9542 50.0516C15.2126 50.1991 14.4439 50.1234 13.7454 49.834C13.0468 49.5447 12.4498 49.0547 12.0297 48.426C11.6096 47.7973 11.3854 47.0582 11.3854 46.3021C11.3854 45.2882 11.7882 44.3158 12.5051 43.5989C13.2221 42.882 14.1944 42.4792 15.2083 42.4792V42.4792ZM15.2083 39.3542C13.8337 39.3521 12.4894 39.7579 11.3454 40.5201C10.2015 41.2823 9.30935 42.3667 8.78188 43.636C8.25441 44.9054 8.11533 46.3027 8.38224 47.6512C8.64915 48.9996 9.31005 50.2386 10.2813 51.2113C11.2526 52.1841 12.4906 52.8468 13.8386 53.1158C15.1867 53.3847 16.5842 53.2477 17.8544 52.7221C19.1245 52.1966 20.2103 51.3061 20.9742 50.1633C21.7381 49.0204 22.1458 47.6767 22.1458 46.3021C22.1458 44.4612 21.4153 42.6956 20.1145 41.3929C18.8138 40.0902 17.0492 39.357 15.2083 39.3542V39.3542Z" fill="#3D3D3C"/>
<path d="M46.0104 11.0833C46.7674 11.0813 47.508 11.304 48.1382 11.7233C48.7685 12.1425 49.2601 12.7395 49.5507 13.4385C49.8414 14.1374 49.918 14.9069 49.7708 15.6495C49.6236 16.392 49.2593 17.0742 48.724 17.6094C48.1888 18.1447 47.5066 18.509 46.7641 18.6562C46.0215 18.8034 45.252 18.7268 44.553 18.4361C43.8541 18.1455 43.2571 17.6539 42.8378 17.0236C42.4186 16.3934 42.1959 15.6528 42.1979 14.8958C42.1979 13.8847 42.5996 12.915 43.3146 12.2C44.0296 11.485 44.9993 11.0833 46.0104 11.0833V11.0833ZM46.0104 7.95832C44.6358 7.95832 43.2921 8.36608 42.1493 9.12998C41.0065 9.89389 40.1159 10.9796 39.5904 12.2498C39.0648 13.52 38.9278 14.9175 39.1968 16.2655C39.4657 17.6136 40.1285 18.8516 41.1012 19.8228C42.0739 20.7941 43.3129 21.455 44.6613 21.7219C46.0098 21.9888 47.4071 21.8497 48.6765 21.3223C49.9459 20.7948 51.0303 19.9027 51.7925 18.7587C52.5547 17.6148 52.9604 16.2704 52.9583 14.8958C52.9583 13.9839 52.7785 13.0809 52.4292 12.2385C52.08 11.3962 51.568 10.6309 50.9227 9.98658C50.2774 9.34224 49.5114 8.83144 48.6685 8.48341C47.8256 8.13539 46.9223 7.95695 46.0104 7.95832V7.95832Z" fill="#3D3D3C"/>
<path d="M46.0001 73.7604C46.7562 73.7604 47.4953 73.9846 48.124 74.4047C48.7527 74.8247 49.2426 75.4218 49.532 76.1203C49.8213 76.8189 49.8971 77.5875 49.7495 78.3291C49.602 79.0707 49.2379 79.7519 48.7033 80.2865C48.1686 80.8212 47.4875 81.1853 46.7459 81.3328C46.0043 81.4803 45.2357 81.4046 44.5371 81.1152C43.8386 80.8259 43.2415 80.3359 42.8214 79.7072C42.4014 79.0785 42.1772 78.3394 42.1772 77.5833C42.1758 77.0809 42.2737 76.5831 42.4654 76.1187C42.657 75.6543 42.9385 75.2323 43.2938 74.877C43.6491 74.5218 44.0711 74.2402 44.5355 74.0486C44.9999 73.857 45.4977 73.759 46.0001 73.7604V73.7604ZM46.0001 70.6354C44.6255 70.6333 43.2811 71.0391 42.1372 71.8013C40.9932 72.5634 40.1011 73.6478 39.5736 74.9172C39.0462 76.1866 38.9071 77.5839 39.174 78.9324C39.4409 80.2808 40.1018 81.5198 41.0731 82.4925C42.0443 83.4653 43.2823 84.128 44.6304 84.3969C45.9784 84.6659 47.3759 84.5289 48.6461 84.0033C49.9163 83.4778 51.002 82.5872 51.7659 81.4444C52.5298 80.3016 52.9376 78.9579 52.9376 77.5833C52.9376 75.7424 52.207 73.9768 50.9063 72.6741C49.6055 71.3714 47.841 70.6381 46.0001 70.6354V70.6354Z" fill="#3D3D3C"/>
<path d="M67.7082 64.6666C68.4651 64.6646 69.2057 64.8873 69.836 65.3066C70.4662 65.7258 70.9578 66.3228 71.2485 67.0218C71.5391 67.7207 71.6157 68.4903 71.4685 69.2328C71.3214 69.9753 70.957 70.6575 70.4218 71.1928C69.8865 71.728 69.2044 72.0923 68.4618 72.2395C67.7193 72.3867 66.9498 72.3101 66.2508 72.0195C65.5518 71.7288 64.9549 71.2372 64.5356 70.6069C64.1163 69.9767 63.8936 69.2361 63.8957 68.4791C63.8984 67.4688 64.301 66.5007 65.0154 65.7863C65.7297 65.0719 66.6979 64.6694 67.7082 64.6666ZM67.7082 61.5416C66.3336 61.5416 64.9898 61.9494 63.847 62.7133C62.7042 63.4772 61.8137 64.5629 61.2881 65.8331C60.7626 67.1033 60.6256 68.5008 60.8945 69.8489C61.1635 71.1969 61.8262 72.4349 62.7989 73.4062C63.7717 74.3774 65.0106 75.0383 66.3591 75.3052C67.7075 75.5721 69.1049 75.4331 70.3742 74.9056C71.6436 74.3781 72.728 73.486 73.4902 72.342C74.2524 71.1981 74.6581 69.8537 74.6561 68.4791C74.6561 67.5672 74.4763 66.6642 74.127 65.8219C73.7777 64.9795 73.2658 64.2142 72.6204 63.5699C71.9751 62.9256 71.2091 62.4148 70.3662 62.0667C69.5233 61.7187 68.6201 61.5403 67.7082 61.5416V61.5416Z" fill="#3D3D3C"/>
<path d="M24.3021 20.3021C25.0561 20.3021 25.7932 20.5257 26.4202 20.9446C27.0472 21.3635 27.5358 21.9589 27.8244 22.6556C28.1129 23.3522 28.1884 24.1188 28.0413 24.8584C27.8942 25.5979 27.5311 26.2772 26.9979 26.8104C26.4647 27.3436 25.7854 27.7067 25.0459 27.8538C24.3063 28.0009 23.5397 27.9254 22.8431 27.6369C22.1465 27.3483 21.551 26.8596 21.1321 26.2327C20.7132 25.6057 20.4896 24.8686 20.4896 24.1146C20.4923 23.1043 20.8949 22.1362 21.6093 21.4218C22.3237 20.7074 23.2918 20.3048 24.3021 20.3021V20.3021ZM24.3021 17.1771C22.9304 17.1791 21.5902 17.5878 20.4507 18.3513C19.3112 19.1149 18.4236 20.1991 17.9001 21.4669C17.3766 22.7348 17.2407 24.1293 17.5096 25.4744C17.7784 26.8194 18.44 28.0546 19.4106 29.0238C20.3813 29.993 21.6174 30.6527 22.9629 30.9195C24.3083 31.1864 25.7027 31.0484 26.9698 30.523C28.2368 29.9976 29.3197 29.1084 30.0815 27.9678C30.8434 26.8271 31.25 25.4862 31.25 24.1146C31.25 23.2026 31.0702 22.2997 30.7209 21.4573C30.3716 20.6149 29.8597 19.8497 29.2144 19.2053C28.5691 18.561 27.8031 18.0502 26.9602 17.7022C26.1173 17.3541 25.214 17.1757 24.3021 17.1771Z" fill="#3D3D3C"/>
<path d="M67.7082 19.9271C68.4647 19.925 69.2049 20.1475 69.8349 20.5663C70.4649 20.9851 70.9566 21.5814 71.2475 22.2798C71.5384 22.9781 71.6156 23.7471 71.4693 24.4894C71.323 25.2316 70.9597 25.9138 70.4255 26.4495C69.8913 26.9852 69.2101 27.3503 68.4682 27.4987C67.7264 27.647 66.9572 27.5719 66.258 27.2829C65.5589 26.9938 64.9612 26.5039 64.5407 25.875C64.1202 25.2461 63.8957 24.5065 63.8957 23.75C63.8984 22.7387 64.3006 21.7695 65.0147 21.0535C65.7288 20.3374 66.6969 19.9326 67.7082 19.9271V19.9271ZM67.7082 16.8021C66.334 16.8021 64.9907 17.2096 63.8481 17.973C62.7055 18.7364 61.815 19.8216 61.2891 21.0911C60.7633 22.3607 60.6257 23.7577 60.8938 25.1055C61.1618 26.4532 61.8236 27.6912 62.7953 28.6629C63.7669 29.6346 65.0049 30.2963 66.3527 30.5644C67.7005 30.8325 69.0975 30.6949 70.367 30.169C71.6366 29.6431 72.7217 28.7526 73.4852 27.61C74.2486 26.4675 74.6561 25.1241 74.6561 23.75C74.6561 21.9073 73.9241 20.14 72.6211 18.8371C71.3181 17.5341 69.5509 16.8021 67.7082 16.8021V16.8021Z" fill="#3D3D3C"/>
<path d="M24.2917 64.6666C25.0487 64.6646 25.7893 64.8873 26.4196 65.3066C27.0498 65.7258 27.5414 66.3228 27.8321 67.0218C28.1227 67.7207 28.1993 68.4903 28.0521 69.2328C27.9049 69.9753 27.5406 70.6575 27.0054 71.1927C26.4701 71.728 25.788 72.0923 25.0454 72.2395C24.3029 72.3867 23.5333 72.3101 22.8344 72.0195C22.1354 71.7288 21.5385 71.2372 21.1192 70.6069C20.6999 69.9767 20.4772 69.2361 20.4792 68.4791C20.482 67.4688 20.8845 66.5007 21.5989 65.7863C22.3133 65.0719 23.2814 64.6694 24.2917 64.6666V64.6666ZM24.2917 61.5416C22.9176 61.5437 21.5749 61.9532 20.4335 62.7184C19.292 63.4835 18.4031 64.57 17.8791 65.8403C17.3552 67.1107 17.2197 68.5079 17.4898 69.8552C17.7599 71.2026 18.4235 72.4396 19.3966 73.4098C20.3698 74.38 21.6087 75.0399 22.9569 75.306C24.3051 75.572 25.7019 75.4324 26.9706 74.9046C28.2394 74.3768 29.3232 73.4847 30.0849 72.3409C30.8467 71.1972 31.2521 69.8533 31.2501 68.4791C31.2501 67.5672 31.0703 66.6642 30.721 65.8219C30.3717 64.9795 29.8598 64.2142 29.2144 63.5699C28.5691 62.9255 27.8031 62.4148 26.9602 62.0667C26.1173 61.7187 25.2141 61.5403 24.3022 61.5416H24.2917Z" fill="#3D3D3C"/>
</svg>
