<svg width="111" height="128" viewBox="0 0 111 128" fill="none" xmlns="http://www.w3.org/2000/svg">
<g clip-path="url(#clip0_463_306)">
<path d="M64.9397 92C64.9397 92 61.5797 99.68 45.2597 99.68H17.0597C16.5012 99.6784 15.9486 99.5663 15.4337 99.35C14.9188 99.1337 14.4518 98.8177 14.0597 98.42C12.1397 96.5 9.48969 92.57 13.7197 88.26C14.183 87.7767 14.4563 87.1423 14.4894 86.4736C14.5224 85.8049 14.313 85.1467 13.8997 84.62L13.2297 83.75C12.7348 83.0991 12.4812 82.2966 12.5122 81.4795C12.5432 80.6625 12.8569 79.8815 13.3997 79.27L14.6597 77.87C14.7817 77.7261 14.8728 77.5586 14.9275 77.3781C14.9823 77.1975 14.9994 77.0076 14.9778 76.8202C14.9563 76.6328 14.8965 76.4517 14.8022 76.2883C14.7079 76.1249 14.5812 75.9825 14.4297 75.87C13.2415 75.0778 12.2219 74.0582 11.4297 72.87V68" stroke="white" stroke-width="5" stroke-miterlimit="10" stroke-linecap="round"/>
<path d="M17.1798 67.9999H6.17976C5.56513 67.999 4.96059 67.8436 4.42161 67.5482C3.88264 67.2528 3.42649 66.8267 3.09503 66.3091C2.76357 65.7915 2.56741 65.199 2.52456 64.5858C2.4817 63.9727 2.59353 63.3586 2.84976 62.7999C3.84976 60.6799 5.95976 57.7999 10.2298 53.7999C18.0898 46.5499 17.8298 41.6799 16.6398 39.1199C15.0274 35.9057 14.5448 32.2421 15.2698 28.7199C17.1298 20.6299 24.6298 8.63995 51.4998 3.20995C51.4998 3.20995 105.26 -7.11005 107.66 50.97C107.66 50.97 111.02 76.17 82.4598 92.7299" stroke="white" stroke-width="5" stroke-miterlimit="10" stroke-linecap="round"/>
<path d="M35.4199 99.69C35.4199 99.69 39.9799 106.69 39.2599 112.41L39.3299 124.65H91.0999V86.72" stroke="white" stroke-width="5" stroke-miterlimit="10" stroke-linecap="round"/>
<path d="M58.4297 31.4L63.6097 41.89C63.7029 42.0868 63.8426 42.258 64.0169 42.3887C64.1911 42.5194 64.3946 42.6056 64.6097 42.64L76.1897 44.33C76.4475 44.3582 76.692 44.4591 76.8948 44.6208C77.0976 44.7826 77.2502 44.9986 77.3351 45.2437C77.4199 45.4888 77.4335 45.7529 77.3741 46.0054C77.3147 46.2579 77.1849 46.4884 76.9997 46.67L68.5997 54.84C68.4402 54.9962 68.3213 55.189 68.2533 55.4016C68.1854 55.6142 68.1704 55.8402 68.2097 56.06L70.2097 67.59C70.2518 67.8431 70.2226 68.1029 70.1252 68.3404C70.0278 68.5778 69.8662 68.7833 69.6584 68.934C69.4507 69.0846 69.2051 69.1743 68.9491 69.193C68.6932 69.2117 68.4371 69.1587 68.2097 69.04L57.8397 63.59C57.6422 63.4866 57.4226 63.4326 57.1997 63.4326C56.9768 63.4326 56.7572 63.4866 56.5597 63.59L46.1997 69C45.9726 69.1229 45.7154 69.1791 45.4577 69.1622C45.2001 69.1452 44.9525 69.0558 44.7434 68.9043C44.5344 68.7527 44.3724 68.5452 44.2762 68.3056C44.18 68.0659 44.1535 67.804 44.1997 67.55L46.1997 56.02C46.239 55.8002 46.224 55.5742 46.156 55.3616C46.0881 55.149 45.9692 54.9562 45.8097 54.8L37.4297 46.63C37.2457 46.4516 37.1154 46.2252 37.0536 45.9765C36.9918 45.7278 37.001 45.4668 37.0802 45.223C37.1593 44.9793 37.3053 44.7627 37.5014 44.5977C37.6975 44.4328 37.936 44.3262 38.1897 44.29L49.7697 42.6C49.9845 42.5648 50.1876 42.4783 50.3617 42.3477C50.5358 42.2171 50.6758 42.0463 50.7697 41.85L55.9997 31.4C56.1178 31.1806 56.2932 30.9973 56.5071 30.8695C56.721 30.7418 56.9655 30.6743 57.2147 30.6743C57.4638 30.6743 57.7084 30.7418 57.9223 30.8695C58.1362 30.9973 58.3115 31.1806 58.4297 31.4V31.4Z" fill="#2380B0"/>
<path d="M60.3797 20.7599C60.3797 19.8818 59.6678 19.1699 58.7897 19.1699C57.9116 19.1699 57.1997 19.8818 57.1997 20.7599V23.3399C57.1997 24.2181 57.9116 24.9299 58.7897 24.9299C59.6678 24.9299 60.3797 24.2181 60.3797 23.3399V20.7599Z" fill="#2380B0"/>
<path d="M49.317 23.0128C48.878 22.2523 47.9055 21.9918 47.145 22.4308C46.3846 22.8699 46.124 23.8423 46.5631 24.6028L47.8531 26.8372C48.2921 27.5976 49.2646 27.8582 50.025 27.4191C50.7855 26.9801 51.0461 26.0076 50.607 25.2472L49.317 23.0128Z" fill="#2380B0"/>
<path d="M71.1279 24.6127C71.567 23.8522 71.3064 22.8798 70.5459 22.4408C69.7854 22.0017 68.813 22.2622 68.3739 23.0227L67.0839 25.2571C66.6449 26.0176 66.9054 26.99 67.6659 27.4291C68.4264 27.8681 69.3988 27.6076 69.8379 26.8471L71.1279 24.6127Z" fill="#2380B0"/>
</g>
<defs>
<clipPath id="clip0_463_306">
<rect width="110.28" height="127.15" fill="white"/>
</clipPath>
</defs>
</svg>
