<svg width="127" height="127" viewBox="0 0 127 127" fill="none" xmlns="http://www.w3.org/2000/svg">
<g clip-path="url(#clip0_463_317)">
<path d="M104.38 17.36V6.21004C104.381 5.77551 104.487 5.3477 104.689 4.96295C104.891 4.5782 105.183 4.24788 105.54 4.00004C106.77 3.07262 108.271 2.57681 109.812 2.58947C111.352 2.60213 112.845 3.12254 114.06 4.07004C114.382 4.32406 114.64 4.64988 114.814 5.02145C114.987 5.39303 115.072 5.80006 115.06 6.21004V17.87" stroke="white" stroke-width="5" stroke-miterlimit="10" stroke-linecap="round"/>
<path d="M94.4497 17V4.91004C94.4497 4.91004 99.3397 -0.519963 104.38 4.91004" stroke="white" stroke-width="5" stroke-miterlimit="10" stroke-linecap="round"/>
<path d="M84.2498 10.21V8.45C84.2395 7.53943 84.4938 6.64547 84.982 5.87677C85.4702 5.10807 86.1712 4.49775 86.9998 4.12C88.7698 3.35 91.3398 3.33 94.4798 6.35" stroke="white" stroke-width="5" stroke-miterlimit="10" stroke-linecap="round"/>
<path d="M74.77 37C75.1071 38.9081 75.9069 40.7044 77.0993 42.2317C78.2918 43.7589 79.8406 44.9704 81.61 45.76C87.73 48.52 88.09 49.48 88.21 53.08L89.4 81.35C89.4337 82.2228 89.8049 83.0484 90.4355 83.6529C91.066 84.2573 91.9066 84.5933 92.78 84.59H113.47C114.377 84.59 115.247 84.2297 115.888 83.5883C116.53 82.947 116.89 82.0771 116.89 81.17V45.71C116.89 45.71 122.29 37.07 122.29 34.19V12.19C122.308 11.2577 122.011 10.3465 121.446 9.60419C120.882 8.86187 120.083 8.33187 119.18 8.10003C117.92 7.82003 116.44 8.10003 115.09 10.1V17.9" stroke="white" stroke-width="5" stroke-miterlimit="10" stroke-linecap="round"/>
<path d="M20.4097 109.63V120.79C20.411 121.225 20.306 121.654 20.1038 122.039C19.9017 122.424 19.6085 122.754 19.2497 123C18.0217 123.927 16.5228 124.423 14.9845 124.412C13.4463 124.401 11.9545 123.884 10.7397 122.94C10.4183 122.686 10.1606 122.36 9.98702 121.988C9.81344 121.617 9.72877 121.21 9.73971 120.8V109.1" stroke="white" stroke-width="5" stroke-miterlimit="10" stroke-linecap="round"/>
<path d="M30.3402 110V122.09C30.3402 122.09 25.4502 127.52 20.4102 122.09" stroke="white" stroke-width="5" stroke-miterlimit="10" stroke-linecap="round"/>
<path d="M40.5398 114.4V118.54C40.5562 119.447 40.3088 120.339 39.8277 121.107C39.3466 121.876 38.6525 122.488 37.8298 122.87C36.0598 123.64 33.4898 123.67 30.3398 120.64" stroke="white" stroke-width="5" stroke-miterlimit="10" stroke-linecap="round"/>
<path d="M49.9998 90C49.6628 88.092 48.863 86.2956 47.6705 84.7684C46.478 83.2412 44.9292 82.0297 43.1598 81.24C37.0398 78.48 36.6798 77.52 36.5598 73.92L35.3998 45.64C35.3611 44.7655 34.9855 43.9398 34.3518 43.3359C33.718 42.732 32.8752 42.3966 31.9998 42.4001H11.3198C10.4128 42.4001 9.54287 42.7604 8.90149 43.4017C8.26012 44.0431 7.8998 44.913 7.8998 45.82V81.28C7.8998 81.28 2.4998 89.9201 2.4998 92.8001V114.8C2.48178 115.732 2.77908 116.644 3.34353 117.386C3.90799 118.128 4.70653 118.658 5.6098 118.89C6.8698 119.18 8.3498 118.89 9.6998 116.89V109.09" stroke="white" stroke-width="5" stroke-miterlimit="10" stroke-linecap="round"/>
<path d="M17.3597 21.6H6.20971C5.77518 21.5988 5.34737 21.4927 4.96262 21.2907C4.57787 21.0888 4.24755 20.7969 3.99971 20.44C3.06228 19.2177 2.5542 17.7204 2.5542 16.18C2.5542 14.6397 3.06228 13.1423 3.99971 11.92C4.25373 11.598 4.57955 11.3399 4.95112 11.1663C5.3227 10.9926 5.72973 10.9083 6.13971 10.92H17.8697" stroke="white" stroke-width="5" stroke-miterlimit="10" stroke-linecap="round"/>
<path d="M16.9999 31.5301H4.90992C4.90992 31.5301 -0.520085 26.6401 4.90992 21.6001" stroke="white" stroke-width="5" stroke-miterlimit="10" stroke-linecap="round"/>
<path d="M12.5899 41.73H8.44987C7.5415 41.7421 6.64909 41.4907 5.88062 41.0062C5.11216 40.5217 4.50057 39.8249 4.11988 39C3.34988 37.23 3.32988 34.66 6.34988 31.52" stroke="white" stroke-width="5" stroke-miterlimit="10" stroke-linecap="round"/>
<path d="M36.8199 51.21C38.7238 50.8717 40.5156 50.0711 42.0377 48.8785C43.5599 47.6859 44.7659 46.1377 45.5499 44.37C48.2899 38.25 49.2499 37.89 52.8299 37.77L80.9999 36.58C81.8709 36.5438 82.694 36.1715 83.2963 35.5412C83.8986 34.9109 84.2332 34.0718 84.2299 33.2V12.51C84.2312 12.0622 84.1443 11.6185 83.9741 11.2043C83.804 10.7901 83.5539 10.4134 83.2382 10.0958C82.9225 9.77827 82.5473 9.52598 82.1341 9.3534C81.7209 9.18082 81.2777 9.09132 80.8299 9.09001H45.5499C45.5499 9.09001 36.9399 3.69001 34.0799 3.69001H12.1499C11.2205 3.67475 10.3131 3.97347 9.57452 4.53784C8.83593 5.10221 8.30933 5.89924 8.07989 6.80001C7.79989 8.06001 8.07989 9.54001 10.0799 10.89H17.8499" stroke="white" stroke-width="5" stroke-miterlimit="10" stroke-linecap="round"/>
<path d="M109.36 106.58H120.51C120.95 106.576 121.384 106.68 121.774 106.882C122.164 107.085 122.499 107.379 122.75 107.74C123.678 108.97 124.173 110.472 124.161 112.012C124.148 113.552 123.628 115.045 122.68 116.26C122.426 116.582 122.1 116.84 121.729 117.014C121.357 117.187 120.95 117.272 120.54 117.26H108.85" stroke="white" stroke-width="5" stroke-miterlimit="10" stroke-linecap="round"/>
<path d="M109.72 96.65H121.81C121.81 96.65 127.24 101.54 121.81 106.58" stroke="white" stroke-width="5" stroke-miterlimit="10" stroke-linecap="round"/>
<path d="M114.13 86.4501H118.27C119.177 86.4371 120.069 86.687 120.837 87.1697C121.606 87.6523 122.218 88.3471 122.6 89.1701C123.37 90.9401 123.39 93.5101 120.37 96.6501" stroke="white" stroke-width="5" stroke-miterlimit="10" stroke-linecap="round"/>
<path d="M89.21 77C87.3903 77.3804 85.6911 78.1997 84.2603 79.3865C82.8294 80.5734 81.7102 82.0919 81 83.81C78.24 89.93 77.28 90.29 73.68 90.41L45.37 91.6C44.4938 91.6338 43.6652 92.0078 43.0602 92.6426C42.4553 93.2775 42.1216 94.1231 42.13 95V115.69C42.13 116.597 42.4904 117.467 43.1317 118.108C43.7731 118.75 44.643 119.11 45.55 119.11H81C81 119.11 89.64 124.51 92.52 124.51H114.52C115.452 124.528 116.364 124.231 117.106 123.666C117.848 123.102 118.378 122.303 118.61 121.4C118.89 120.14 118.61 118.66 116.61 117.31H108.81" stroke="white" stroke-width="5" stroke-miterlimit="10" stroke-linecap="round"/>
<path d="M61.0898 9.3501C61.0898 7.69324 59.7467 6.3501 58.0898 6.3501C56.433 6.3501 55.0898 7.69324 55.0898 9.3501V37.6701C55.0898 39.327 56.433 40.6701 58.0898 40.6701C59.7467 40.6701 61.0898 39.327 61.0898 37.6701V9.3501Z" stroke="white" stroke-width="5" stroke-miterlimit="10" stroke-linecap="round"/>
<path d="M68.8598 86.4501H62.4398C61.6943 86.4501 61.0898 87.0545 61.0898 87.8001V121.95C61.0898 122.696 61.6943 123.3 62.4398 123.3H68.8598C69.6054 123.3 70.2098 122.696 70.2098 121.95V87.8001C70.2098 87.0545 69.6054 86.4501 68.8598 86.4501Z" stroke="white" stroke-width="5" stroke-miterlimit="10" stroke-linecap="round"/>
<path d="M83.1699 56.7501V53.9301C83.1726 53.3421 83.4073 52.779 83.8231 52.3632C84.2388 51.9475 84.802 51.7127 85.3899 51.7101H91.9299" stroke="#2380B0" stroke-width="5" stroke-miterlimit="10" stroke-linecap="round"/>
<path d="M83.1699 63.3501V67.8501C83.1699 68.4389 83.4038 69.0035 83.8201 69.4199C84.2365 69.8362 84.8011 70.0701 85.3899 70.0701H91.9299" stroke="#2380B0" stroke-width="5" stroke-miterlimit="10" stroke-linecap="round"/>
<path d="M115.21 51.7101H122.11C122.699 51.7101 123.263 51.944 123.68 52.3603C124.096 52.7766 124.33 53.3413 124.33 53.9301V67.8501C124.331 68.142 124.275 68.4313 124.164 68.7012C124.053 68.9711 123.889 69.2164 123.683 69.4228C123.476 69.6292 123.231 69.7927 122.961 69.9038C122.691 70.0149 122.402 70.0714 122.11 70.0701H115.21" stroke="#2380B0" stroke-width="5" stroke-miterlimit="10" stroke-linecap="round"/>
<path d="M102.91 74.99C110.697 74.99 117.01 68.6773 117.01 60.89C117.01 53.1028 110.697 46.79 102.91 46.79C95.1228 46.79 88.8101 53.1028 88.8101 60.89C88.8101 68.6773 95.1228 74.99 102.91 74.99Z" stroke="#2380B0" stroke-width="5" stroke-miterlimit="10" stroke-linecap="round"/>
<path d="M102.91 68.0601C106.87 68.0601 110.08 64.85 110.08 60.8901C110.08 56.9302 106.87 53.7201 102.91 53.7201C98.9499 53.7201 95.7397 56.9302 95.7397 60.8901C95.7397 64.85 98.9499 68.0601 102.91 68.0601Z" stroke="#2380B0" stroke-width="5" stroke-miterlimit="10" stroke-linecap="round"/>
</g>
<defs>
<clipPath id="clip0_463_317">
<rect width="126.83" height="126.99" fill="white"/>
</clipPath>
</defs>
</svg>
