<svg width="109" height="127" viewBox="0 0 109 127" fill="none" xmlns="http://www.w3.org/2000/svg">
<g clip-path="url(#clip0_463_344)">
<path d="M50.2999 73.83V111.32C50.3363 114.601 49.2098 117.79 47.1199 120.32C46.3349 121.351 45.3296 122.194 44.1775 122.788C43.0253 123.381 41.7552 123.71 40.4599 123.75C40.4599 123.75 24.8599 126.87 24.8599 108.15C24.8599 108.15 24.8599 97.83 37.5799 97.83" stroke="white" stroke-width="5" stroke-miterlimit="10" stroke-linecap="round"/>
<path d="M24.8601 86.55C24.8601 86.55 16.2201 82.23 11.8601 86.55C11.8601 86.55 3.86014 92.64 6.86014 101.55C7.82 104.307 9.63375 106.687 12.038 108.343C14.4423 109.999 17.3119 110.846 20.2301 110.76C21.9238 110.817 23.5757 110.227 24.8501 109.11" stroke="white" stroke-width="5" stroke-miterlimit="10" stroke-linecap="round"/>
<path d="M29.4201 75.51C29.4201 75.51 15.2601 79.35 10.2201 66.87C10.2201 66.87 -5.60991 73.87 8.07009 91.02" stroke="white" stroke-width="5" stroke-miterlimit="10" stroke-linecap="round"/>
<path d="M23.6601 50.07C23.6601 50.07 9.74014 48.87 10.2201 66.87" stroke="white" stroke-width="5" stroke-miterlimit="10" stroke-linecap="round"/>
<path d="M29.4202 41.1899C29.4202 41.1899 15.5002 57.9999 37.5802 64.9999" stroke="white" stroke-width="5" stroke-miterlimit="10" stroke-linecap="round"/>
<path d="M57.82 73.83V111.32C57.7783 114.602 58.9055 117.792 61 120.32C61.785 121.351 62.7902 122.194 63.9424 122.788C65.0945 123.381 66.3646 123.71 67.66 123.75C67.66 123.75 83.26 126.87 83.26 108.15C83.26 108.15 83.26 97.83 70.54 97.83" stroke="white" stroke-width="5" stroke-miterlimit="10" stroke-linecap="round"/>
<path d="M83.2603 86.55C83.2603 86.55 91.9003 82.23 96.2603 86.55C96.2603 86.55 104.26 92.64 101.26 101.55C100.3 104.307 98.4866 106.687 96.0824 108.343C93.6781 109.999 90.8085 110.846 87.8903 110.76C86.1964 110.818 84.5442 110.228 83.2702 109.11" stroke="white" stroke-width="5" stroke-miterlimit="10" stroke-linecap="round"/>
<path d="M78.7002 75.51C78.7002 75.51 92.8602 79.35 97.9002 66.87C97.9002 66.87 113.73 73.87 100.05 91.02" stroke="white" stroke-width="5" stroke-miterlimit="10" stroke-linecap="round"/>
<path d="M84.46 50.07C84.46 50.07 98.38 48.87 97.9 66.87" stroke="white" stroke-width="5" stroke-miterlimit="10" stroke-linecap="round"/>
<path d="M78.7 41.1899C78.7 41.1899 92.62 57.9999 70.54 64.9999" stroke="white" stroke-width="5" stroke-miterlimit="10" stroke-linecap="round"/>
<path d="M62.45 53.0699H44.54V66.8699H62.45V53.0699Z" stroke="#2380B0" stroke-width="5" stroke-miterlimit="10"/>
<path d="M53.5399 53.07H44.5399V50.78C44.5437 49.3759 44.1649 47.9973 43.4444 46.7923C42.7238 45.5872 41.6886 44.6012 40.4499 43.94C36.5799 41.88 31.3399 37.36 31.3399 27.99C31.3399 27.99 29.4199 8.98999 53.5399 8.98999" stroke="#2380B0" stroke-width="5" stroke-miterlimit="10"/>
<path d="M53.54 53.07H61.54L62.54 51.78C62.54 48.92 64.1 45.28 66.63 43.94C70.51 41.88 75.75 37.36 75.75 27.99C75.75 27.99 77.66 8.98999 53.54 8.98999" stroke="#2380B0" stroke-width="5" stroke-miterlimit="10"/>
<path d="M25.8202 29.1899H23.6602C22.8649 29.1899 22.2202 29.8346 22.2202 30.6299C22.2202 31.4252 22.8649 32.0699 23.6602 32.0699H25.8202C26.6155 32.0699 27.2602 31.4252 27.2602 30.6299C27.2602 29.8346 26.6155 29.1899 25.8202 29.1899Z" fill="#2380B0"/>
<path d="M83.3002 29.1899H81.1402C80.3449 29.1899 79.7002 29.8346 79.7002 30.6299C79.7002 31.4252 80.3449 32.0699 81.1402 32.0699H83.3002C84.0955 32.0699 84.7402 31.4252 84.7402 30.6299C84.7402 29.8346 84.0955 29.1899 83.3002 29.1899Z" fill="#2380B0"/>
<path d="M79.7055 14.0048L77.6964 14.7978C76.9566 15.0898 76.5936 15.9262 76.8856 16.666C77.1776 17.4057 78.014 17.7687 78.7538 17.4767L80.7629 16.6837C81.5027 16.3917 81.8656 15.5553 81.5736 14.8155C81.2817 14.0758 80.4453 13.7128 79.7055 14.0048Z" fill="#2380B0"/>
<path d="M66.603 4.04845L65.8082 6.0569C65.5156 6.79639 65.8778 7.6331 66.6173 7.92574C67.3568 8.21838 68.1935 7.85613 68.4861 7.11663L69.2809 5.10818C69.5736 4.36869 69.2113 3.53198 68.4718 3.23934C67.7323 2.9467 66.8956 3.30896 66.603 4.04845Z" fill="#2380B0"/>
<path d="M52.1001 1.44004V3.60004C52.1001 4.39533 52.7448 5.04004 53.5401 5.04004C54.3354 5.04004 54.9801 4.39533 54.9801 3.60004V1.44004C54.9801 0.644751 54.3354 3.8147e-05 53.5401 3.8147e-05C52.7448 3.8147e-05 52.1001 0.644751 52.1001 1.44004Z" fill="#2380B0"/>
<path d="M29.7728 14.9423L27.8431 13.9717C27.1326 13.6144 26.267 13.9007 25.9096 14.6112C25.5523 15.3217 25.8386 16.1873 26.5491 16.5446L28.4787 17.5152C29.1892 17.8725 30.0549 17.5862 30.4122 16.8757C30.7696 16.1652 30.4833 15.2996 29.7728 14.9423Z" fill="#2380B0"/>
<path d="M40.5646 5.78981L39.4846 3.9192C39.087 3.23046 38.2063 2.99447 37.5176 3.39212C36.8288 3.78976 36.5929 4.67046 36.9905 5.3592L38.0705 7.22981C38.4681 7.91855 39.3488 8.15453 40.0376 7.75689C40.7263 7.35924 40.9623 6.47855 40.5646 5.78981Z" fill="#2380B0"/>
<path d="M62.7801 58.27H52.1001" stroke="#2380B0" stroke-width="2" stroke-miterlimit="10"/>
<path d="M61.0101 62.3199H50.3301" stroke="#2380B0" stroke-width="2" stroke-miterlimit="10"/>
</g>
<defs>
<clipPath id="clip0_463_344">
<rect width="108.12" height="126.44" fill="white"/>
</clipPath>
</defs>
</svg>
