<svg width="129" height="129" viewBox="0 0 129 129" fill="none" xmlns="http://www.w3.org/2000/svg">
<g clip-path="url(#clip0_463_371)">
<path d="M99.08 120.34V125.34C99.08 125.555 99.1653 125.761 99.3172 125.913C99.4691 126.065 99.6751 126.15 99.8899 126.15H106.81C107.025 126.15 107.231 126.065 107.383 125.913C107.535 125.761 107.62 125.555 107.62 125.34V120.41C107.617 120.259 107.659 120.111 107.738 119.983C107.818 119.856 107.933 119.754 108.07 119.69L111.94 117.75C112.083 117.679 112.243 117.651 112.402 117.671C112.56 117.69 112.709 117.756 112.83 117.86L116.96 121.4C117.102 121.514 117.278 121.576 117.46 121.576C117.642 121.576 117.818 121.514 117.96 121.4L122.31 118C122.395 117.934 122.466 117.851 122.518 117.757C122.571 117.663 122.605 117.559 122.617 117.452C122.629 117.345 122.619 117.237 122.589 117.133C122.559 117.03 122.508 116.934 122.44 116.85L118.21 111.61C118.121 111.499 118.062 111.367 118.041 111.226C118.02 111.086 118.037 110.942 118.09 110.81L119.4 107.44C119.459 107.289 119.562 107.16 119.696 107.069C119.83 106.977 119.988 106.929 120.15 106.93H124.79C125.005 106.93 125.211 106.845 125.363 106.693C125.515 106.541 125.6 106.335 125.6 106.12V100C125.6 99.7853 125.515 99.5792 125.363 99.4273C125.211 99.2754 125.005 99.1901 124.79 99.1901H120.79C120.65 99.1906 120.512 99.1538 120.391 99.0835C120.27 99.0133 120.169 98.912 120.1 98.7901L117.33 94.0501C117.241 93.8855 117.213 93.6947 117.252 93.5116C117.29 93.3284 117.392 93.1649 117.54 93.0501L121.29 90.1901C121.381 90.1216 121.456 90.0345 121.511 89.9345C121.566 89.8346 121.598 89.7241 121.607 89.6105C121.615 89.4969 121.6 89.3827 121.56 89.2758C121.521 89.1688 121.46 89.0714 121.38 88.9901L117 84.4301C116.927 84.3563 116.839 84.2978 116.743 84.2578C116.647 84.2179 116.544 84.1973 116.44 84.1973C116.336 84.1973 116.233 84.2179 116.137 84.2578C116.041 84.2978 115.953 84.3563 115.88 84.4301L111.52 88.4301C111.416 88.5242 111.29 88.5895 111.153 88.6193C111.016 88.6492 110.873 88.6425 110.74 88.6001L107.63 87.6001C107.474 87.5527 107.336 87.458 107.236 87.3291C107.135 87.2001 107.077 87.0433 107.07 86.8801L106.67 80.3401C106.657 80.134 106.566 79.9406 106.416 79.7994C106.265 79.6581 106.066 79.5797 105.86 79.5801H99.8599C99.6451 79.5801 99.4391 79.6654 99.2872 79.8173C99.1353 79.9692 99.05 80.1753 99.05 80.3901V86.8301C99.05 87.0066 98.9925 87.1784 98.886 87.3192C98.7795 87.46 98.6299 87.5621 98.4599 87.6101L95.0599 88.6101C94.9284 88.6466 94.7897 88.6492 94.6568 88.6177C94.524 88.5863 94.4012 88.5217 94.3 88.4301L90.7499 85.2601C90.6646 85.1844 90.5643 85.1276 90.4555 85.0934C90.3467 85.0592 90.2319 85.0483 90.1186 85.0615C90.0053 85.0747 89.8961 85.1117 89.7981 85.1701C89.7001 85.2284 89.6156 85.3068 89.55 85.4001L86.55 89.7301C86.4618 89.8618 86.4148 90.0166 86.4148 90.1751C86.4148 90.3335 86.4618 90.4884 86.55 90.6201L88.2099 93.2001C88.2745 93.3035 88.3151 93.42 88.329 93.541C88.3428 93.6621 88.3295 93.7848 88.2899 93.9001L86.4499 99.2301C86.3938 99.389 86.2894 99.5265 86.1513 99.6233C86.0133 99.7201 85.8485 99.7714 85.6799 99.7701H84.4299C84.324 99.7701 84.2192 99.7911 84.1215 99.8319C84.0238 99.8727 83.9351 99.9326 83.8607 100.008C83.7863 100.083 83.7276 100.173 83.688 100.271C83.6483 100.369 83.6286 100.474 83.6299 100.58V105.9C83.6306 106.022 83.6591 106.142 83.7132 106.251C83.7672 106.36 83.8454 106.455 83.9419 106.529C84.0383 106.604 84.1504 106.655 84.2696 106.679C84.3889 106.704 84.5121 106.701 84.6299 106.67C84.811 106.62 85.0038 106.635 85.1753 106.712C85.3467 106.788 85.4863 106.922 85.5699 107.09L87.9199 111.79C87.9877 111.927 88.0152 112.081 87.9993 112.233C87.9834 112.385 87.9247 112.53 87.8299 112.65L84.3999 116.9C84.2678 117.047 84.1947 117.238 84.1947 117.435C84.1947 117.633 84.2678 117.823 84.3999 117.97L88.7499 122.39C88.8254 122.467 88.9156 122.529 89.0152 122.571C89.1148 122.613 89.2218 122.635 89.3299 122.635C89.4381 122.635 89.5451 122.613 89.6447 122.571C89.7443 122.529 89.8345 122.467 89.91 122.39L94.1799 117.92C94.3036 117.784 94.4701 117.694 94.6519 117.665C94.8336 117.635 95.0199 117.669 95.1799 117.76L98.6399 119.64C98.7701 119.706 98.8798 119.805 98.9574 119.929C99.0349 120.052 99.0773 120.194 99.08 120.34V120.34Z" stroke="#2380B0" stroke-width="5" stroke-miterlimit="10" stroke-linecap="round"/>
<path d="M61.7798 31.06C61.488 28.9014 60.7268 26.8329 59.5498 25C59.2377 24.4932 59.0834 23.905 59.1065 23.3102C59.1297 22.7155 59.3292 22.141 59.6798 21.66L62.0598 18.37C62.4585 17.8217 62.6597 17.1545 62.6307 16.4771C62.6016 15.7997 62.344 15.1522 61.8998 14.64L59.0898 11.4C58.587 10.8254 57.884 10.4641 57.124 10.3897C56.3641 10.3154 55.6044 10.5337 54.9998 11L50.9998 14.05C50.5518 14.4016 50.0129 14.6184 49.4463 14.675C48.8796 14.7317 48.3085 14.6259 47.7998 14.37L43.4798 12.21C42.9801 11.9606 42.56 11.5766 42.2667 11.1014C41.9735 10.6261 41.8187 10.0785 41.8198 9.52002V5.52002C41.8198 4.72437 41.5037 3.96131 40.9411 3.3987C40.3785 2.83609 39.6154 2.52002 38.8198 2.52002H33.8198C33.0241 2.52002 32.2611 2.83609 31.6984 3.3987C31.1358 3.96131 30.8198 4.72437 30.8198 5.52002V9.42002C30.8208 10.0611 30.6166 10.6856 30.2368 11.2021C29.8571 11.7186 29.322 12.0998 28.7098 12.29L24.1198 13.74C23.6031 13.9055 23.0513 13.9278 22.5231 13.8045C21.9948 13.6812 21.5098 13.417 21.1198 13.04L18.6398 10.66C18.0957 10.1374 17.3747 9.8389 16.6204 9.82407C15.8661 9.80925 15.1339 10.0792 14.5698 10.58L10.6798 14C10.0941 14.5167 9.7331 15.2414 9.67334 16.0201C9.61359 16.7987 9.85984 17.57 10.3598 18.17L13.1698 21.58C13.5021 21.9799 13.7247 22.4594 13.8159 22.9713C13.907 23.4832 13.8636 24.01 13.6898 24.5L12.0898 29.04C11.8823 29.6268 11.4975 30.1345 10.9887 30.4929C10.4798 30.8512 9.87212 31.0424 9.24977 31.04H5.50977C4.71412 31.04 3.95105 31.3561 3.38845 31.9187C2.82584 32.4813 2.50977 33.2444 2.50977 34.04V40.04C2.50977 40.8357 2.82584 41.5987 3.38845 42.1613C3.95105 42.7239 4.71412 43.04 5.50977 43.04H9.50977C10.1287 43.0418 10.732 43.2349 11.2368 43.593C11.7417 43.951 12.1235 44.4565 12.3298 45.04L13.6398 48.6C13.8234 49.1044 13.8682 49.6489 13.7697 50.1765C13.6712 50.7042 13.433 51.1958 13.0798 51.6L10.9998 54C10.5078 54.55 10.2358 55.2621 10.2358 56C10.2358 56.738 10.5078 57.45 10.9998 58L14.6098 62.09C14.8775 62.3954 15.2045 62.6433 15.5709 62.8185C15.9373 62.9938 16.3354 63.0928 16.7412 63.1097C17.147 63.1265 17.552 63.0608 17.9316 62.9164C18.3113 62.7721 18.6576 62.5522 18.9498 62.27L22.4498 58.9L30.8198 62V66.86C30.8224 67.8936 31.2341 68.884 31.965 69.6148C32.6958 70.3456 33.6862 70.7574 34.7198 70.76H39.3198" stroke="#2380B0" stroke-width="5" stroke-miterlimit="10" stroke-linecap="round"/>
<path d="M103.54 111.22C108.444 111.22 112.42 107.244 112.42 102.34C112.42 97.4357 108.444 93.46 103.54 93.46C98.6354 93.46 94.6597 97.4357 94.6597 102.34C94.6597 107.244 98.6354 111.22 103.54 111.22Z" stroke="#2380B0" stroke-width="5" stroke-miterlimit="10" stroke-linecap="round"/>
<path d="M38.5698 46.5001C35.9431 47.1738 33.1715 47.0093 30.643 46.0296C28.1145 45.0499 25.9556 43.304 24.4686 41.0363C22.9817 38.7686 22.241 36.0928 22.3504 33.3833C22.4598 30.6738 23.4138 28.0663 25.0787 25.9259C26.7437 23.7855 29.0362 22.2194 31.6355 21.4467C34.2348 20.674 37.0107 20.7334 39.5745 21.6167C42.1383 22.5 44.3617 24.163 45.9334 26.3727C47.5052 28.5824 48.3466 31.2284 48.3398 33.9401" stroke="#2380B0" stroke-width="5" stroke-miterlimit="10" stroke-linecap="round"/>
<path d="M67.7795 117.46H58.2995C57.1856 117.46 56.1173 117.018 55.3297 116.23C54.542 115.442 54.0995 114.374 54.0995 113.26V99.2601C54.1025 97.2186 53.6373 95.2036 52.7395 93.3701C51.1362 90.054 49.1565 86.9334 46.8395 84.0701C42.8562 79.4917 40.0273 74.0259 38.5895 68.1301C35.4895 54.8101 37.4195 31.0701 67.7795 31.0701" stroke="white" stroke-width="5" stroke-miterlimit="10" stroke-linecap="round"/>
<path d="M68.8196 117.46H78.2996C79.4135 117.46 80.4818 117.018 81.2694 116.23C82.0571 115.442 82.4996 114.374 82.4996 113.26V99.2601C82.4919 97.218 82.9574 95.202 83.8596 93.3701C85.4595 90.052 87.4394 86.9311 89.7596 84.0701C93.7333 79.4828 96.5579 74.0154 97.9996 68.1201C101.1 54.8001 99.1696 31.0601 68.8096 31.0601" stroke="white" stroke-width="5" stroke-miterlimit="10" stroke-linecap="round"/>
<path d="M54.0996 104.02H82.4996" stroke="white" stroke-width="5" stroke-miterlimit="10" stroke-linecap="round"/>
<path d="M72.0998 104V79.78C72.0998 79.78 73.5398 68 80.9998 71.38C88.4598 74.76 78.8398 82.18 68.8398 82.18" stroke="white" stroke-width="5" stroke-miterlimit="10" stroke-linecap="round"/>
<path d="M64.17 104V79.78C64.17 79.78 62.73 68 55.29 71.38C47.85 74.76 57.45 82.18 67.46 82.18" stroke="white" stroke-width="5" stroke-miterlimit="10" stroke-linecap="round"/>
<path d="M22.42 70.78H9.45996V96.82H52.65" stroke="white" stroke-width="3" stroke-miterlimit="10" stroke-linecap="round" stroke-dasharray="5 5"/>
<path d="M99.0796 36.64H119.26V69.46H103.54" stroke="white" stroke-width="3" stroke-miterlimit="10" stroke-linecap="round" stroke-dasharray="5 5"/>
</g>
<defs>
<clipPath id="clip0_463_371">
<rect width="128.12" height="128.6" fill="white"/>
</clipPath>
</defs>
</svg>
