<svg width="124" height="124" viewBox="0 0 124 124" fill="none" xmlns="http://www.w3.org/2000/svg">
<g clip-path="url(#clip0_463_385)">
<path d="M2.5 90.11V116.51C2.5 117.592 2.92986 118.63 3.695 119.395C4.46015 120.16 5.49792 120.59 6.58 120.59H32.44C33.5221 120.59 34.5598 120.16 35.325 119.395C36.0901 118.63 36.52 117.592 36.52 116.51V116.21C36.52 115.128 36.0901 114.09 35.325 113.325C34.5598 112.56 33.5221 112.13 32.44 112.13H15C13.9316 112.13 12.9058 111.711 12.1429 110.963C11.38 110.215 10.9409 109.198 10.92 108.13L10.68 90.07C10.6591 89.0018 10.22 87.9845 9.45708 87.2366C8.69419 86.4886 7.66836 86.0698 6.6 86.07V86.07C5.52135 86.0647 4.48448 86.4867 3.71615 87.2438C2.94782 88.0008 2.51056 89.0314 2.5 90.11V90.11Z" stroke="white" stroke-width="5" stroke-miterlimit="10" stroke-linecap="round"/>
<path d="M121.48 90.1099V116.51C121.48 117.592 121.05 118.63 120.285 119.395C119.52 120.16 118.482 120.59 117.4 120.59H91.54C90.4579 120.59 89.4201 120.16 88.655 119.395C87.8898 118.63 87.46 117.592 87.46 116.51V116.21C87.46 115.128 87.8898 114.09 88.655 113.325C89.4201 112.56 90.4579 112.13 91.54 112.13H109C110.068 112.13 111.094 111.711 111.857 110.963C112.62 110.215 113.059 109.198 113.08 108.13L113.32 90.0699C113.341 89.0018 113.78 87.9845 114.543 87.2365C115.306 86.4886 116.332 86.0697 117.4 86.0699V86.0699C118.475 86.0699 119.507 86.4943 120.271 87.2508C121.035 88.0073 121.469 89.0348 121.48 90.1099V90.1099Z" stroke="white" stroke-width="5" stroke-miterlimit="10" stroke-linecap="round"/>
<path d="M121.48 33V6.58C121.48 5.49792 121.05 4.46015 120.285 3.695C119.52 2.92986 118.482 2.5 117.4 2.5H91.5402C90.4581 2.5 89.4203 2.92986 88.6552 3.695C87.89 4.46015 87.4602 5.49792 87.4602 6.58V6.88C87.4549 7.41915 87.5565 7.954 87.7592 8.45364C87.9618 8.95327 88.2615 9.40778 88.6409 9.79089C89.0203 10.174 89.4719 10.4781 89.9695 10.6856C90.4672 10.8932 91.001 11 91.5402 11H109C110.069 10.9998 111.094 11.4187 111.857 12.1666C112.62 12.9145 113.059 13.9318 113.08 15L113.32 33C113.341 34.0682 113.78 35.0855 114.543 35.8334C115.306 36.5813 116.332 37.0002 117.4 37C118.469 37.0002 119.494 36.5813 120.257 35.8334C121.02 35.0855 121.459 34.0682 121.48 33V33Z" stroke="white" stroke-width="5" stroke-miterlimit="10" stroke-linecap="round"/>
<path d="M2.5 33V6.58C2.5 5.49792 2.92986 4.46015 3.695 3.695C4.46015 2.92986 5.49792 2.5 6.58 2.5H32.44C33.5221 2.5 34.5598 2.92986 35.325 3.695C36.0901 4.46015 36.52 5.49792 36.52 6.58V6.88C36.5253 7.41915 36.4237 7.954 36.221 8.45364C36.0183 8.95327 35.7186 9.40778 35.3392 9.79089C34.9598 10.174 34.5083 10.4781 34.0106 10.6856C33.513 10.8932 32.9792 11 32.44 11H15C13.9316 10.9998 12.9058 11.4187 12.1429 12.1666C11.38 12.9145 10.9409 13.9318 10.92 15L10.66 33C10.6391 34.0682 10.2 35.0855 9.43708 35.8334C8.67419 36.5813 7.64836 37.0002 6.58 37C5.51164 37.0002 4.48581 36.5813 3.72292 35.8334C2.96003 35.0855 2.52095 34.0682 2.5 33V33Z" stroke="white" stroke-width="5" stroke-miterlimit="10" stroke-linecap="round"/>
<path d="M62.0802 104.95C86.3365 104.95 106 85.2863 106 61.03C106 36.7736 86.3365 17.11 62.0802 17.11C37.8238 17.11 18.1602 36.7736 18.1602 61.03C18.1602 85.2863 37.8238 104.95 62.0802 104.95Z" stroke="white" stroke-width="5" stroke-miterlimit="10" stroke-linecap="round"/>
<path d="M62.0802 92.41C79.4109 92.41 93.4602 78.3607 93.4602 61.03C93.4602 43.6993 79.4109 29.65 62.0802 29.65C44.7495 29.65 30.7002 43.6993 30.7002 61.03C30.7002 78.3607 44.7495 92.41 62.0802 92.41Z" stroke="white" stroke-width="5" stroke-miterlimit="10" stroke-linecap="round"/>
<path d="M70.7198 39.7699C70.7198 39.7699 55.3098 32.2099 46.0798 46.9999C44.5262 49.5145 43.7086 52.4142 43.7198 55.3699V67.76C43.6875 70.0615 44.1679 72.3414 45.1261 74.4343C46.0843 76.5272 47.4964 78.3805 49.2598 79.8599C52.6298 82.6099 57.9098 84.5799 66.0298 82.9199C69.1916 82.2896 72.0893 80.7188 74.343 78.4133C76.5967 76.1078 78.1014 73.1753 78.6598 69.9999C79.4104 65.2357 79.6451 60.4045 79.3598 55.5899" stroke="#2380B0" stroke-width="4" stroke-miterlimit="10" stroke-linecap="round"/>
<path d="M51.6402 61C51.6402 61 49.2102 44.42 61.6402 44.42C70.9802 44.42 72.2402 53.89 72.3002 58.52C72.3002 60.09 72.3702 61.67 72.4202 63.25C72.5702 67.91 71.3202 78.05 57.0902 76.1" stroke="#2380B0" stroke-width="4" stroke-miterlimit="10" stroke-linecap="round"/>
<path d="M66.0002 57.4101C66.0002 57.4101 62.3502 48.4101 57.9102 56.3401C57.549 56.9955 57.3598 57.7317 57.3602 58.4801V64.6101C57.3407 65.641 57.6847 66.646 58.332 67.4487C58.9793 68.2513 59.8885 68.8006 60.9002 69.0001H61.0002C61.6265 69.088 62.2645 69.0395 62.8704 68.858C63.4763 68.6765 64.0358 68.3662 64.5106 67.9483C64.9855 67.5305 65.3644 67.0149 65.6215 66.437C65.8786 65.8591 66.0077 65.2325 66.0002 64.6V63.6" stroke="#2380B0" stroke-width="4" stroke-miterlimit="10" stroke-linecap="round"/>
</g>
<defs>
<clipPath id="clip0_463_385">
<rect width="123.98" height="123.09" fill="white"/>
</clipPath>
</defs>
</svg>
