<svg width="125" height="124" viewBox="0 0 125 124" fill="none" xmlns="http://www.w3.org/2000/svg">
<g clip-path="url(#clip0_463_397)">
<path d="M15.4599 37.78H46.9999C47.9947 37.7806 48.9753 38.0165 49.8617 38.4684C50.748 38.9202 51.5149 39.5752 52.0999 40.38L61.0999 52.82C61.6842 53.6253 62.451 54.2808 63.3375 54.7327C64.224 55.1846 65.2049 55.4201 66.1999 55.42H109.41C111.081 55.42 112.683 56.0837 113.865 57.2652C115.046 58.4467 115.71 60.0491 115.71 61.72V114.28C115.71 115.951 115.046 117.553 113.865 118.735C112.683 119.916 111.081 120.58 109.41 120.58H15.4099C13.739 120.58 12.1366 119.916 10.9551 118.735C9.77361 117.553 9.10986 115.951 9.10986 114.28V44.08C9.10984 43.2484 9.27443 42.4251 9.59416 41.6575C9.91389 40.8898 10.3824 40.1931 10.9727 39.6074C11.563 39.0218 12.2635 38.5588 13.0336 38.2451C13.8037 37.9315 14.6283 37.7734 15.4599 37.78V37.78Z" stroke="white" stroke-width="5" stroke-miterlimit="10" stroke-linecap="round"/>
<path d="M62.8902 97.4001C64.641 97.4001 66.0602 95.9808 66.0602 94.2301C66.0602 92.4793 64.641 91.0601 62.8902 91.0601C61.1395 91.0601 59.7202 92.4793 59.7202 94.2301C59.7202 95.9808 61.1395 97.4001 62.8902 97.4001Z" fill="#2380B0"/>
<path d="M64.5602 85.84H61.1802V91.54H64.5602V85.84Z" fill="#2380B0"/>
<path d="M19.69 79.1801H6.37C4.23266 79.1801 2.5 80.9127 2.5 83.0501V87.6701C2.5 89.8074 4.23266 91.5401 6.37 91.5401H19.69C21.8273 91.5401 23.56 89.8074 23.56 87.6701V83.0501C23.56 80.9127 21.8273 79.1801 19.69 79.1801Z" stroke="#2380B0" stroke-width="5" stroke-miterlimit="10"/>
<path d="M40.1298 92H34.6298C33.6034 92 32.619 91.5923 31.8933 90.8665C31.1675 90.1408 30.7598 89.1564 30.7598 88.13V83.53C30.7598 82.5036 31.1675 81.5193 31.8933 80.7935C32.619 80.0678 33.6034 79.66 34.6298 79.66H40.1298" stroke="#2380B0" stroke-width="5" stroke-miterlimit="10"/>
<path d="M23.5601 85.84H30.7601" stroke="#2380B0" stroke-width="5" stroke-miterlimit="10"/>
<path d="M105.12 91.78H118.44C120.577 91.78 122.31 90.0474 122.31 87.91V83.29C122.31 81.1527 120.577 79.42 118.44 79.42H105.12C102.983 79.42 101.25 81.1527 101.25 83.29V87.91C101.25 90.0474 102.983 91.78 105.12 91.78Z" stroke="#2380B0" stroke-width="5" stroke-miterlimit="10"/>
<path d="M84.6699 92.26H90.1699C91.1893 92.2495 92.1634 91.8371 92.8806 91.1125C93.5977 90.3879 93.9999 89.4095 93.9999 88.39V83.77C93.9999 83.2618 93.8998 82.7586 93.7053 82.289C93.5108 81.8195 93.2257 81.3929 92.8664 81.0335C92.507 80.6742 92.0804 80.3891 91.6109 80.1946C91.1413 80.0001 90.6381 79.9 90.1299 79.9H84.6299" stroke="#2380B0" stroke-width="5" stroke-miterlimit="10"/>
<path d="M101.24 86.08H94.04" stroke="#2380B0" stroke-width="5" stroke-miterlimit="10"/>
<path d="M9.16016 50.38H59.3402" stroke="white" stroke-width="5" stroke-miterlimit="10" stroke-linecap="round"/>
<path d="M24.2803 37.78V2.5H102.4V55.42" stroke="white" stroke-width="5" stroke-miterlimit="10" stroke-linecap="round"/>
<path d="M62.9004 109.52C75.4759 109.52 85.6704 99.3255 85.6704 86.75C85.6704 74.1745 75.4759 63.98 62.9004 63.98C50.3248 63.98 40.1304 74.1745 40.1304 86.75C40.1304 99.3255 50.3248 109.52 62.9004 109.52Z" stroke="white" stroke-width="5" stroke-miterlimit="10" stroke-linecap="round"/>
<path d="M69.5502 81.52H56.2302C54.2917 81.52 52.7202 83.0915 52.7202 85.03V97.09C52.7202 99.0285 54.2917 100.6 56.2302 100.6H69.5502C71.4887 100.6 73.0602 99.0285 73.0602 97.09V85.03C73.0602 83.0915 71.4887 81.52 69.5502 81.52Z" stroke="#2380B0" stroke-width="3" stroke-miterlimit="10"/>
<path d="M57 81.52C57 67.84 62.85 68.92 62.85 68.92C62.85 68.92 69.51 67.12 69.51 81.52" stroke="#2380B0" stroke-width="3" stroke-miterlimit="10"/>
<path d="M102.4 23H107.31C107.656 23.0013 107.998 23.071 108.316 23.2051C108.635 23.3393 108.924 23.5352 109.167 23.7815C109.409 24.0278 109.601 24.3198 109.73 24.6405C109.859 24.9612 109.924 25.3043 109.92 25.65L109.42 55.4" stroke="white" stroke-width="5" stroke-miterlimit="10" stroke-linecap="round"/>
<path d="M15.46 37.78V25.63C15.4574 25.2856 15.523 24.944 15.6529 24.6251C15.7829 24.3061 15.9748 24.016 16.2174 23.7715C16.46 23.527 16.7486 23.333 17.0666 23.2006C17.3846 23.0682 17.7256 23 18.07 23H22.48" stroke="white" stroke-width="5" stroke-miterlimit="10" stroke-linecap="round"/>
<path d="M62.9001 40.22C64.8717 40.22 66.4701 38.6216 66.4701 36.65C66.4701 34.6783 64.8717 33.08 62.9001 33.08C60.9284 33.08 59.3301 34.6783 59.3301 36.65C59.3301 38.6216 60.9284 40.22 62.9001 40.22Z" fill="#2380B0"/>
<path d="M65.6403 27.05C66.5661 22.9822 66.9295 18.8066 66.7203 14.64C66.6211 13.6838 66.1585 12.8022 65.4281 12.1772C64.6976 11.5523 63.755 11.2318 62.795 11.2818C61.835 11.3319 60.9309 11.7487 60.2693 12.4462C59.6078 13.1437 59.2394 14.0687 59.2403 15.03C59.1454 19.1957 59.7401 23.3483 61.0003 27.32C61.1557 27.804 61.4596 28.2268 61.8688 28.5283C62.2781 28.8299 62.7719 28.9949 63.2803 29V29C63.8386 28.9987 64.3792 28.8035 64.8097 28.4478C65.2401 28.0922 65.5337 27.5981 65.6403 27.05V27.05Z" stroke="#2380B0" stroke-width="4" stroke-miterlimit="10" stroke-linecap="round"/>
</g>
<defs>
<clipPath id="clip0_463_397">
<rect width="124.8" height="123.08" fill="white"/>
</clipPath>
</defs>
</svg>
