<svg width="322" height="319" viewBox="0 0 322 319" fill="none" xmlns="http://www.w3.org/2000/svg">
<g clip-path="url(#clip0_463_420)">
<path d="M145.2 287.9C224.011 287.9 287.9 224.011 287.9 145.2C287.9 66.389 224.011 2.5 145.2 2.5C66.389 2.5 2.5 66.389 2.5 145.2C2.5 224.011 66.389 287.9 145.2 287.9Z" stroke="white" stroke-width="5" stroke-miterlimit="10" stroke-linecap="round"/>
<path d="M145.2 265.89C211.855 265.89 265.89 211.855 265.89 145.2C265.89 78.5448 211.855 24.51 145.2 24.51C78.5445 24.51 24.5098 78.5448 24.5098 145.2C24.5098 211.855 78.5445 265.89 145.2 265.89Z" stroke="white" stroke-width="5" stroke-miterlimit="10" stroke-linecap="round"/>
<path d="M50.0698 214.47H90.9298C92.4601 214.47 93.9277 213.862 95.0098 212.78C96.0919 211.698 96.6998 210.23 96.6998 208.7V200.31C96.6998 199.552 96.8491 198.802 97.139 198.102C97.429 197.402 97.854 196.766 98.3898 196.23C98.9256 195.694 99.5617 195.269 100.262 194.979C100.962 194.689 101.712 194.54 102.47 194.54H128.73C129.488 194.54 130.238 194.391 130.938 194.101C131.638 193.811 132.274 193.386 132.81 192.85C133.346 192.314 133.771 191.678 134.061 190.978C134.351 190.278 134.5 189.528 134.5 188.77V175.47C134.5 173.94 135.108 172.472 136.19 171.39C137.272 170.308 138.74 169.7 140.27 169.7H165.45C166.98 169.7 168.448 169.092 169.53 168.01C170.612 166.928 171.22 165.46 171.22 163.93V151C171.216 150.239 171.363 149.485 171.651 148.78C171.94 148.076 172.365 147.436 172.903 146.897C173.44 146.358 174.079 145.93 174.782 145.639C175.485 145.348 176.239 145.199 177 145.2H263.88" stroke="white" stroke-width="5" stroke-miterlimit="10" stroke-linecap="round"/>
<path d="M194.98 145.2V62.78" stroke="#2380B0" stroke-width="5" stroke-miterlimit="10"/>
<path d="M233 257.73L286.37 310C288.802 312.432 291.802 314.221 295.097 315.205C298.393 316.19 301.882 316.339 305.25 315.64C313.17 313.88 316.9 308.08 318.61 302.3C319.608 298.756 319.65 295.011 318.732 291.445C317.813 287.879 315.967 284.621 313.38 282L261.22 228.3" stroke="white" stroke-width="5" stroke-miterlimit="10"/>
<path d="M195 72.5H136.29C135.816 72.5021 135.351 72.6344 134.947 72.8825C134.542 73.1306 134.214 73.485 133.997 73.907C133.781 74.329 133.684 74.8023 133.718 75.2755C133.752 75.7486 133.915 76.2033 134.19 76.59L144.19 90.59C144.489 91.001 144.658 91.4919 144.676 91.9997C144.693 92.5075 144.559 93.0091 144.29 93.44L133.67 110.73C133.43 111.121 133.298 111.569 133.289 112.028C133.28 112.487 133.393 112.94 133.617 113.34C133.841 113.741 134.168 114.074 134.564 114.306C134.96 114.538 135.411 114.66 135.87 114.66H195" stroke="#2380B0" stroke-width="5" stroke-miterlimit="10"/>
</g>
<defs>
<clipPath id="clip0_463_420">
<rect width="321.92" height="318.62" fill="white"/>
</clipPath>
</defs>
</svg>
