<svg width="98" height="92" viewBox="0 0 98 92" fill="none" xmlns="http://www.w3.org/2000/svg">
<path d="M3 33.0846V82.3903C3.00486 84.1461 3.70619 85.8283 4.95005 87.0675C6.1939 88.3068 7.87864 89.0019 9.63448 89.0003H88.2934C90.0487 89.0003 91.7326 88.3046 92.9761 87.0657C94.2196 85.8268 94.9214 84.1456 94.9279 82.3903V33.0846C94.9277 31.9418 94.6324 30.8185 94.0705 29.8234C93.5087 28.8283 92.6993 27.9953 91.7208 27.4049L53.236 4.19648C51.944 3.4138 50.4623 3 48.9517 3C47.4411 3 45.9594 3.4138 44.6674 4.19648L6.20707 27.4049C5.22862 27.9953 4.41923 28.8283 3.85736 29.8234C3.29548 30.8185 3.00015 31.9418 3 33.0846V33.0846Z" stroke="#2380B0" stroke-width="5" stroke-miterlimit="10"/>
<path d="M13.0005 35.2388L47.4826 55.1361C48.0425 55.4537 48.6751 55.6206 49.3187 55.6206C49.9624 55.6206 50.595 55.4537 51.1548 55.1361L86.1327 35.2266" stroke="white" stroke-width="5" stroke-miterlimit="10" stroke-linecap="round"/>
</svg>
