<svg width="98" height="98" viewBox="0 0 98 98" fill="none" xmlns="http://www.w3.org/2000/svg">
<path d="M23.5039 69.2122C9.19253 85.7849 3 58.6435 3 48.9595C3.00126 38.5198 6.55626 28.3916 13.0801 20.2413C19.6038 12.0911 28.7077 6.40436 38.8937 4.11696C49.0797 1.82956 59.741 3.07773 69.1231 7.65609C78.5053 12.2344 86.0495 19.8702 90.5142 29.307C94.979 38.7437 96.0984 49.4193 93.6882 59.5769C91.278 69.7345 85.4819 78.7691 77.2534 85.1941C69.025 91.619 58.8546 95.0515 48.4157 94.9267C37.9768 94.802 27.8913 91.1274 19.8188 84.5076" stroke="#2380B0" stroke-width="5" stroke-miterlimit="10" stroke-linecap="round"/>
<path d="M55.9325 48.8915C57.1914 47.0894 58.2564 45.1593 59.1099 43.1335C59.2654 42.7052 59.2947 42.2414 59.1945 41.797C59.0943 41.3526 58.8688 40.9462 58.5446 40.6261C56.9428 39.0557 53.8701 35.7108 54.5715 34.1666L60.4133 23.6712C60.7557 23.0534 61.2371 22.5237 61.8194 22.124C62.4018 21.7242 63.0691 21.4654 63.7687 21.368C66.9775 20.9388 72.6675 21.5041 76.4155 29.5078C76.4155 29.5078 80.933 43.4423 63.4232 62.2711C45.9135 81.1 30.0946 76.771 30.0946 76.771C30.0946 76.771 23.0959 76.771 21.3266 64.8518C21.2142 64.1156 21.295 63.3628 21.5611 62.6672C21.8272 61.9716 22.2695 61.3571 22.8447 60.884C25.9655 58.3106 29.5073 56.2953 33.3138 54.927C33.3138 54.927 36.4546 52.6761 40.8412 58.8111C41.0409 59.0948 41.3217 59.3116 41.6468 59.433C41.9718 59.5545 42.326 59.5749 42.6628 59.4916C44.0529 59.0986 45.3813 58.5137 46.6097 57.7537C50.3571 55.5553 53.5473 52.5228 55.9325 48.8915Z" fill="white"/>
</svg>
