<svg width="63" height="96" viewBox="0 0 63 96" fill="none" xmlns="http://www.w3.org/2000/svg">
<path d="M30.1991 92.9932H24.1323" stroke="#2380B0" stroke-width="5" stroke-miterlimit="10" stroke-linecap="round"/>
<path d="M43.6807 92.9932H37.2095" stroke="#2380B0" stroke-width="5" stroke-miterlimit="10" stroke-linecap="round"/>
<path d="M42.1489 66.7529H55.0239C55.5034 66.7523 55.9667 66.9259 56.3277 67.2415C56.6886 67.557 56.9227 67.9929 56.9863 68.4681L59.9635 90.754C60.0014 91.034 59.979 91.3189 59.8977 91.5895C59.8165 91.8601 59.6783 92.1102 59.4924 92.3231C59.3066 92.5359 59.0774 92.7065 58.8201 92.8234C58.5629 92.9403 58.2837 93.0009 58.0011 93.001H50.4214" stroke="#2380B0" stroke-width="5" stroke-miterlimit="10" stroke-linecap="round"/>
<path d="M17.2567 93.001H4.91721C4.62841 93.0015 4.34301 92.9387 4.08107 92.8171C3.81914 92.6954 3.58702 92.5179 3.40105 92.297C3.21508 92.076 3.07977 91.817 3.00462 91.5381C2.92948 91.2593 2.91634 90.9674 2.96611 90.6829L6.86831 68.3895C6.9493 67.9308 7.18926 67.5154 7.54607 67.2162C7.90287 66.9169 8.3537 66.7529 8.8194 66.7529H20.2226" stroke="#2380B0" stroke-width="5" stroke-miterlimit="10" stroke-linecap="round"/>
<path d="M31.4575 2.93562C31.4575 2.93562 62.5403 2.66599 57.9303 34.0745C56.8488 41.2535 54.2357 48.1159 50.2682 54.1959L31.4575 83.2864" stroke="white" stroke-width="5" stroke-miterlimit="10" stroke-linecap="round"/>
<path d="M31.4572 2.93562C31.4572 2.93562 0.389433 2.66599 4.99567 34.0745C6.07836 41.2538 8.69278 48.1162 12.6615 54.1959L31.4722 83.2864" stroke="white" stroke-width="5" stroke-miterlimit="10" stroke-linecap="round"/>
<path d="M31.4572 48.3313C41.4014 48.3313 49.4627 40.27 49.4627 30.3258C49.4627 20.3817 41.4014 12.3203 31.4572 12.3203C21.513 12.3203 13.4517 20.3817 13.4517 30.3258C13.4517 40.27 21.513 48.3313 31.4572 48.3313Z" stroke="white" stroke-width="5" stroke-miterlimit="10" stroke-linecap="round"/>
</svg>
