<svg width="92" height="92" viewBox="0 0 92 92" fill="none" xmlns="http://www.w3.org/2000/svg">
<path d="M46 92C71.4051 92 92 71.4051 92 46C92 20.5949 71.4051 0 46 0C20.5949 0 0 20.5949 0 46C0 71.4051 20.5949 92 46 92Z" fill="#F5F5F5"/>
<path d="M48.5208 63.9687C48.5208 63.9687 49.4999 65.6146 28.302 73.5312C27.9251 73.6398 27.5303 73.6719 27.1409 73.6254C26.7514 73.579 26.3752 73.455 26.0344 73.2608C25.6937 73.0667 25.3952 72.8062 25.1567 72.4948C24.9182 72.1835 24.7445 71.8275 24.6458 71.4479C24.2516 70.1905 24.2698 68.84 24.6979 67.5937C24.9394 67.036 24.9666 66.4087 24.7744 65.8321C24.5822 65.2555 24.1841 64.7701 23.6562 64.4687L23.4687 64.375C22.8749 64.0833 22.3749 63.4167 23.0104 62.7812C23.0424 62.7344 23.0634 62.6808 23.0717 62.6246C23.0801 62.5685 23.0756 62.5111 23.0585 62.457C23.0415 62.4028 23.0123 62.3532 22.9733 62.3119C22.9343 62.2707 22.8864 62.2388 22.8333 62.2187C22.1145 61.9479 20.8437 61.3333 21.2187 60.5625C21.6874 59.5208 22.9687 58.4792 22.9166 56.9271C22.9134 56.8543 22.8916 56.7835 22.8533 56.7215C22.815 56.6595 22.7615 56.6084 22.6979 56.5729C21.7916 56.0937 18.2499 54.1458 18.4687 53.4479C18.6874 52.75 25.4687 42.8854 25.4062 42.3229C24.7001 41.1597 23.8649 40.08 22.9166 39.1042C22.7883 38.9518 22.7063 38.7658 22.6804 38.5682C22.6546 38.3707 22.6859 38.1699 22.7708 37.9896C23.4374 36.6146 24.9895 33.2292 25.0416 31.4687C25.1041 29.2187 28.1041 15.7187 49.3541 16.2187C70.6041 16.7187 75.8333 31.25 74.2708 42.5937C74.2708 42.5937 73.802 45.9896 69.5833 52.4687C67.5159 55.6274 66.3127 59.2729 66.0937 63.0417C65.8541 67.3333 66.2708 72.8125 68.9687 77.3229C69.0689 77.5005 69.12 77.7016 69.1166 77.9055C69.1131 78.1094 69.0554 78.3087 68.9492 78.4828C68.843 78.6569 68.6923 78.7995 68.5127 78.8959C68.333 78.9923 68.1308 79.0391 67.927 79.0313H43.5208C43.5208 79.0313 40.3958 72.6979 38.4166 70.6979" stroke="#3E3E3D" stroke-width="3" stroke-miterlimit="10" stroke-linecap="round"/>
<path d="M59.4378 61.1875C59.2919 60.1458 58.5524 57.9688 55.2711 54.9375C54.1534 53.8857 53.3647 52.5325 53.0003 51.0417C52.6461 49.5521 52.6461 47.8021 54.0419 46.75C56.5317 48.5501 59.5435 49.4833 62.6149 49.4062C63.6565 49.4062 65.7399 48.8021 65.1669 49.6875C64.2815 50.9896 61.9378 54.4792 61.6669 56.375C61.4923 58.1254 60.8992 59.8082 59.9378 61.2813C59.903 61.3181 59.8596 61.3457 59.8114 61.3614C59.7633 61.3771 59.7119 61.3804 59.6621 61.3711C59.6123 61.3618 59.5657 61.3401 59.5265 61.308C59.4873 61.2759 59.4568 61.2345 59.4378 61.1875Z" stroke="#3E3E3D" stroke-width="3" stroke-miterlimit="10"/>
<path d="M53.271 20.8334C57.5835 21.4793 72.7398 25.1043 69.3127 43.9063C69.3127 43.9063 64.2398 56.9688 51.1877 43.9063C51.1877 43.9063 48.4794 40.7813 36.0939 42.5626C35.2663 42.6888 34.4204 42.6136 33.628 42.3434C32.8356 42.0733 32.12 41.616 31.5419 41.0105C28.9273 38.198 26.3335 32.3438 36.5627 23.7501C36.5627 23.7501 39.271 21.5105 51.3231 20.7501C51.9735 20.7101 52.6264 20.738 53.271 20.8334V20.8334Z" stroke="#3E3E3D" stroke-width="3" stroke-miterlimit="10"/>
<path d="M45.7085 28.7188H47.9168C48.476 28.7377 49.0059 28.9732 49.3946 29.3755C49.7833 29.7779 50.0005 30.3155 50.0002 30.875V33.5938" stroke="#3E3E3D" stroke-width="3" stroke-miterlimit="10"/>
<path d="M63.0002 42.0209L64.2189 43.8021C64.5399 44.2752 64.661 44.856 64.5556 45.418C64.4502 45.9799 64.127 46.4775 63.6564 46.8021L61.4585 48.3334" stroke="#3E3E3D" stroke-width="3" stroke-miterlimit="10"/>
<path d="M43.4477 29.0522L41.4269 28.2918C40.8922 28.0885 40.4596 27.682 40.2235 27.1609C39.9873 26.6399 39.9669 26.0466 40.1665 25.5105L41.1248 22.9689" stroke="#3E3E3D" stroke-width="3" stroke-miterlimit="10"/>
<path d="M62.5 30.1458L60.4166 29.3854C59.8819 29.1821 59.4493 28.7756 59.2132 28.2546C58.9771 27.7335 58.9566 27.1403 59.1562 26.6042L60.1145 24.0625" stroke="#3E3E3D" stroke-width="3" stroke-miterlimit="10"/>
<path d="M67.6356 32.0104L66.8752 34.0312C66.6761 34.567 66.2724 35.0019 65.7528 35.2402C65.2332 35.4785 64.6403 35.5008 64.1043 35.302L61.5522 34.375" stroke="#3E3E3D" stroke-width="3" stroke-miterlimit="10"/>
<path d="M33.1353 41.5001L33.2082 39.3438C33.2299 38.7728 33.4764 38.2334 33.8939 37.8432C34.3114 37.453 34.8661 37.2436 35.4373 37.2605L38.1561 37.3542" stroke="#3E3E3D" stroke-width="3" stroke-miterlimit="10"/>
<path d="M32.708 27.7083H34.8643C35.4361 27.7083 35.9846 27.9354 36.389 28.3398C36.7933 28.7442 37.0205 29.2926 37.0205 29.8645V32.5833" stroke="#3E3E3D" stroke-width="3" stroke-miterlimit="10"/>
<path d="M47.917 34.2395V36.4583C47.9156 36.6502 47.9524 36.8404 48.0252 37.018C48.098 37.1955 48.2054 37.3568 48.3411 37.4925C48.4768 37.6282 48.6381 37.7356 48.8156 37.8084C48.9932 37.8812 49.1835 37.918 49.3754 37.9166H53.2504C53.4423 37.918 53.6325 37.8812 53.8101 37.8084C53.9876 37.7356 54.149 37.6282 54.2847 37.4925C54.4203 37.3568 54.5277 37.1955 54.6005 37.018C54.6733 36.8404 54.7101 36.6502 54.7087 36.4583V34.2395" stroke="#3E3E3D" stroke-width="3" stroke-miterlimit="10"/>
<path d="M55.5627 27.7084L56.0314 25.5417C56.0711 25.3543 56.0735 25.1609 56.0385 24.9725C56.0034 24.7842 55.9316 24.6046 55.8272 24.444C55.7227 24.2834 55.5876 24.145 55.4296 24.0367C55.2716 23.9283 55.0938 23.8521 54.9064 23.8125L51.1147 23C50.735 22.9196 50.3388 22.9928 50.0128 23.2036C49.6869 23.4144 49.4576 23.7457 49.3752 24.125L48.9585 26.2813" stroke="#3E3E3D" stroke-width="3" stroke-miterlimit="10"/>
<path d="M61.9792 38.2604L60.5417 36.5833C60.4166 36.4341 60.2629 36.3114 60.0897 36.2225C59.9164 36.1336 59.7272 36.0803 59.533 36.0657C59.3388 36.0512 59.1437 36.0756 58.9591 36.1377C58.7745 36.1998 58.6043 36.2982 58.4583 36.4271L55.5104 38.9479C55.3624 39.0738 55.2408 39.2278 55.1527 39.401C55.0647 39.5742 55.0118 39.7632 54.9973 39.9569C54.9827 40.1507 55.0068 40.3455 55.0681 40.5299C55.1293 40.7143 55.2266 40.8847 55.3542 41.0312L56.8125 42.7083" stroke="#3E3E3D" stroke-width="3" stroke-miterlimit="10"/>
<path d="M39.1875 40.1146H41.3958C41.7828 40.1147 42.1544 39.9632 42.4309 39.6925C42.7074 39.4218 42.8668 39.0536 42.875 38.6667L42.9271 34.7917C42.9271 34.4067 42.7749 34.0374 42.5036 33.7642C42.2324 33.491 41.8641 33.3361 41.4792 33.3334H39.2708" stroke="#3E3E3D" stroke-width="3" stroke-miterlimit="10"/>
</svg>
