<svg width="589" height="416" viewBox="0 0 589 416" fill="none" xmlns="http://www.w3.org/2000/svg">
<path d="M330.928 45.3389H327.008V56H324.371V45.3389H320.504V43.2031H330.928V45.3389ZM342.705 49.8916C342.705 51.1514 342.482 52.2559 342.037 53.2051C341.592 54.1543 340.953 54.8867 340.121 55.4023C339.295 55.918 338.346 56.1758 337.273 56.1758C336.213 56.1758 335.267 55.9209 334.435 55.4111C333.603 54.9014 332.958 54.1748 332.501 53.2314C332.044 52.2822 331.812 51.1924 331.807 49.9619V49.3291C331.807 48.0693 332.032 46.9619 332.483 46.0068C332.94 45.0459 333.582 44.3105 334.408 43.8008C335.24 43.2852 336.189 43.0273 337.256 43.0273C338.322 43.0273 339.269 43.2852 340.095 43.8008C340.927 44.3105 341.568 45.0459 342.02 46.0068C342.477 46.9619 342.705 48.0664 342.705 49.3203V49.8916ZM340.033 49.3115C340.033 47.9697 339.793 46.9502 339.312 46.2529C338.832 45.5557 338.146 45.207 337.256 45.207C336.371 45.207 335.688 45.5527 335.208 46.2441C334.728 46.9297 334.484 47.9375 334.479 49.2676V49.8916C334.479 51.1982 334.719 52.2119 335.199 52.9326C335.68 53.6533 336.371 54.0137 337.273 54.0137C338.158 54.0137 338.838 53.668 339.312 52.9766C339.787 52.2793 340.027 51.2656 340.033 49.9355V49.3115ZM348.066 43.2031L351.354 52.4844L354.623 43.2031H358.086V56H355.44V52.502L355.704 46.4639L352.25 56H350.439L346.994 46.4727L347.258 52.502V56H344.621V43.2031H348.066ZM367.771 53.3633H363.148L362.27 56H359.466L364.229 43.2031H366.673L371.463 56H368.659L367.771 53.3633ZM363.86 51.2275H367.06L365.451 46.4375L363.86 51.2275ZM377.141 56V43.2031H381.078C382.203 43.2031 383.208 43.458 384.093 43.9678C384.983 44.4717 385.678 45.1924 386.176 46.1299C386.674 47.0615 386.923 48.1221 386.923 49.3115V49.9004C386.923 51.0898 386.677 52.1475 386.185 53.0732C385.698 53.999 385.01 54.7168 384.119 55.2266C383.229 55.7363 382.224 55.9941 381.104 56H377.141ZM379.777 45.3389V53.8818H381.052C382.083 53.8818 382.871 53.5449 383.416 52.8711C383.961 52.1973 384.239 51.2334 384.251 49.9795V49.3027C384.251 48.002 383.981 47.0176 383.442 46.3496C382.903 45.6758 382.115 45.3389 381.078 45.3389H379.777ZM396.547 50.4541H391.484V53.8818H397.426V56H388.848V43.2031H397.408V45.3389H391.484V48.3887H396.547V50.4541ZM403.455 56V43.2031H407.938C409.49 43.2031 410.668 43.502 411.471 44.0996C412.273 44.6914 412.675 45.5615 412.675 46.71C412.675 47.3369 412.514 47.8906 412.191 48.3711C411.869 48.8457 411.421 49.1943 410.847 49.417C411.503 49.5811 412.019 49.9121 412.394 50.4102C412.774 50.9082 412.965 51.5176 412.965 52.2383C412.965 53.4688 412.572 54.4004 411.787 55.0332C411.002 55.666 409.883 55.9883 408.43 56H403.455ZM406.092 50.4277V53.8818H408.351C408.972 53.8818 409.455 53.7354 409.801 53.4424C410.152 53.1436 410.328 52.7334 410.328 52.2119C410.328 51.04 409.722 50.4453 408.509 50.4277H406.092ZM406.092 48.5645H408.043C409.373 48.541 410.038 48.0107 410.038 46.9736C410.038 46.3936 409.868 45.9775 409.528 45.7256C409.194 45.4678 408.664 45.3389 407.938 45.3389H406.092V48.5645ZM424.637 43.2031V51.6318C424.637 53.0322 424.197 54.1396 423.318 54.9541C422.445 55.7686 421.25 56.1758 419.732 56.1758C418.238 56.1758 417.052 55.7803 416.173 54.9893C415.294 54.1982 414.846 53.1113 414.828 51.7285V43.2031H417.465V51.6494C417.465 52.4873 417.664 53.0996 418.062 53.4863C418.467 53.8672 419.023 54.0576 419.732 54.0576C421.215 54.0576 421.968 53.2783 421.991 51.7197V43.2031H424.637ZM434.498 50.4541H429.436V53.8818H435.377V56H426.799V43.2031H435.359V45.3389H429.436V48.3887H434.498V50.4541ZM447.33 56H444.693L439.561 47.5801V56H436.924V43.2031H439.561L444.702 51.6406V43.2031H447.33V56ZM457.016 53.3633H452.393L451.514 56H448.71L453.474 43.2031H455.917L460.707 56H457.903L457.016 53.3633ZM453.104 51.2275H456.304L454.695 46.4375L453.104 51.2275ZM468.538 52.6426C468.538 52.1445 468.362 51.7637 468.011 51.5C467.659 51.2305 467.026 50.9492 466.112 50.6562C465.198 50.3574 464.475 50.0645 463.941 49.7773C462.488 48.9922 461.762 47.9346 461.762 46.6045C461.762 45.9131 461.955 45.2979 462.342 44.7588C462.734 44.2139 463.294 43.7891 464.021 43.4844C464.753 43.1797 465.573 43.0273 466.481 43.0273C467.396 43.0273 468.21 43.1943 468.925 43.5283C469.64 43.8564 470.193 44.3223 470.586 44.9258C470.984 45.5293 471.184 46.2148 471.184 46.9824H468.547C468.547 46.3965 468.362 45.9424 467.993 45.6201C467.624 45.292 467.105 45.1279 466.438 45.1279C465.793 45.1279 465.292 45.2656 464.935 45.541C464.577 45.8105 464.398 46.168 464.398 46.6133C464.398 47.0293 464.606 47.3779 465.022 47.6592C465.444 47.9404 466.062 48.2041 466.877 48.4502C468.377 48.9014 469.47 49.4609 470.155 50.1289C470.841 50.7969 471.184 51.6289 471.184 52.625C471.184 53.7324 470.765 54.6025 469.927 55.2354C469.089 55.8623 467.961 56.1758 466.543 56.1758C465.559 56.1758 464.662 55.9971 463.854 55.6396C463.045 55.2764 462.427 54.7812 461.999 54.1543C461.577 53.5273 461.366 52.8008 461.366 51.9746H464.012C464.012 53.3867 464.855 54.0928 466.543 54.0928C467.17 54.0928 467.659 53.9668 468.011 53.7148C468.362 53.457 468.538 53.0996 468.538 52.6426ZM477.459 56V43.2031H481.396C482.521 43.2031 483.526 43.458 484.411 43.9678C485.302 44.4717 485.996 45.1924 486.494 46.1299C486.992 47.0615 487.241 48.1221 487.241 49.3115V49.9004C487.241 51.0898 486.995 52.1475 486.503 53.0732C486.017 53.999 485.328 54.7168 484.438 55.2266C483.547 55.7363 482.542 55.9941 481.423 56H477.459ZM480.096 45.3389V53.8818H481.37C482.401 53.8818 483.189 53.5449 483.734 52.8711C484.279 52.1973 484.558 51.2334 484.569 49.9795V49.3027C484.569 48.002 484.3 47.0176 483.761 46.3496C483.222 45.6758 482.434 45.3389 481.396 45.3389H480.096ZM496.865 50.4541H491.803V53.8818H497.744V56H489.166V43.2031H497.727V45.3389H491.803V48.3887H496.865V50.4541ZM505.927 52.6426C505.927 52.1445 505.751 51.7637 505.399 51.5C505.048 51.2305 504.415 50.9492 503.501 50.6562C502.587 50.3574 501.863 50.0645 501.33 49.7773C499.877 48.9922 499.15 47.9346 499.15 46.6045C499.15 45.9131 499.344 45.2979 499.73 44.7588C500.123 44.2139 500.683 43.7891 501.409 43.4844C502.142 43.1797 502.962 43.0273 503.87 43.0273C504.784 43.0273 505.599 43.1943 506.313 43.5283C507.028 43.8564 507.582 44.3223 507.975 44.9258C508.373 45.5293 508.572 46.2148 508.572 46.9824H505.936C505.936 46.3965 505.751 45.9424 505.382 45.6201C505.013 45.292 504.494 45.1279 503.826 45.1279C503.182 45.1279 502.681 45.2656 502.323 45.541C501.966 45.8105 501.787 46.168 501.787 46.6133C501.787 47.0293 501.995 47.3779 502.411 47.6592C502.833 47.9404 503.451 48.2041 504.266 48.4502C505.766 48.9014 506.858 49.4609 507.544 50.1289C508.229 50.7969 508.572 51.6289 508.572 52.625C508.572 53.7324 508.153 54.6025 507.315 55.2354C506.478 55.8623 505.35 56.1758 503.932 56.1758C502.947 56.1758 502.051 55.9971 501.242 55.6396C500.434 55.2764 499.815 54.7812 499.388 54.1543C498.966 53.5273 498.755 52.8008 498.755 51.9746H501.4C501.4 53.3867 502.244 54.0928 503.932 54.0928C504.559 54.0928 505.048 53.9668 505.399 53.7148C505.751 53.457 505.927 53.0996 505.927 52.6426ZM513.169 56H510.532V43.2031H513.169V56ZM525.667 51.7373C525.567 53.1143 525.058 54.1982 524.138 54.9893C523.224 55.7803 522.017 56.1758 520.517 56.1758C518.876 56.1758 517.584 55.625 516.641 54.5234C515.703 53.416 515.234 51.8984 515.234 49.9707V49.1885C515.234 47.958 515.451 46.874 515.885 45.9365C516.318 44.999 516.937 44.2812 517.739 43.7832C518.548 43.2793 519.485 43.0273 520.552 43.0273C522.028 43.0273 523.218 43.4229 524.12 44.2139C525.022 45.0049 525.544 46.1152 525.685 47.5449H523.048C522.983 46.7188 522.752 46.1211 522.354 45.752C521.961 45.377 521.36 45.1895 520.552 45.1895C519.673 45.1895 519.014 45.5059 518.574 46.1387C518.141 46.7656 517.918 47.7412 517.906 49.0654V50.0322C517.906 51.415 518.114 52.4258 518.53 53.0645C518.952 53.7031 519.614 54.0225 520.517 54.0225C521.331 54.0225 521.938 53.8379 522.336 53.4688C522.74 53.0938 522.972 52.5166 523.03 51.7373H525.667ZM530.202 56H527.565V43.2031H530.202V56ZM543.166 49.8916C543.166 51.1514 542.943 52.2559 542.498 53.2051C542.053 54.1543 541.414 54.8867 540.582 55.4023C539.756 55.918 538.807 56.1758 537.734 56.1758C536.674 56.1758 535.728 55.9209 534.896 55.4111C534.063 54.9014 533.419 54.1748 532.962 53.2314C532.505 52.2822 532.273 51.1924 532.268 49.9619V49.3291C532.268 48.0693 532.493 46.9619 532.944 46.0068C533.401 45.0459 534.043 44.3105 534.869 43.8008C535.701 43.2852 536.65 43.0273 537.717 43.0273C538.783 43.0273 539.729 43.2852 540.556 43.8008C541.388 44.3105 542.029 45.0459 542.48 46.0068C542.938 46.9619 543.166 48.0664 543.166 49.3203V49.8916ZM540.494 49.3115C540.494 47.9697 540.254 46.9502 539.773 46.2529C539.293 45.5557 538.607 45.207 537.717 45.207C536.832 45.207 536.149 45.5527 535.669 46.2441C535.188 46.9297 534.945 47.9375 534.939 49.2676V49.8916C534.939 51.1982 535.18 52.2119 535.66 52.9326C536.141 53.6533 536.832 54.0137 537.734 54.0137C538.619 54.0137 539.299 53.668 539.773 52.9766C540.248 52.2793 540.488 51.2656 540.494 49.9355V49.3115ZM555.488 56H552.852L547.719 47.5801V56H545.082V43.2031H547.719L552.86 51.6406V43.2031H555.488V56ZM565.49 50.4541H560.428V53.8818H566.369V56H557.791V43.2031H566.352V45.3389H560.428V48.3887H565.49V50.4541ZM574.552 52.6426C574.552 52.1445 574.376 51.7637 574.024 51.5C573.673 51.2305 573.04 50.9492 572.126 50.6562C571.212 50.3574 570.488 50.0645 569.955 49.7773C568.502 48.9922 567.775 47.9346 567.775 46.6045C567.775 45.9131 567.969 45.2979 568.355 44.7588C568.748 44.2139 569.308 43.7891 570.034 43.4844C570.767 43.1797 571.587 43.0273 572.495 43.0273C573.409 43.0273 574.224 43.1943 574.938 43.5283C575.653 43.8564 576.207 44.3223 576.6 44.9258C576.998 45.5293 577.197 46.2148 577.197 46.9824H574.561C574.561 46.3965 574.376 45.9424 574.007 45.6201C573.638 45.292 573.119 45.1279 572.451 45.1279C571.807 45.1279 571.306 45.2656 570.948 45.541C570.591 45.8105 570.412 46.168 570.412 46.6133C570.412 47.0293 570.62 47.3779 571.036 47.6592C571.458 47.9404 572.076 48.2041 572.891 48.4502C574.391 48.9014 575.483 49.4609 576.169 50.1289C576.854 50.7969 577.197 51.6289 577.197 52.625C577.197 53.7324 576.778 54.6025 575.94 55.2354C575.103 55.8623 573.975 56.1758 572.557 56.1758C571.572 56.1758 570.676 55.9971 569.867 55.6396C569.059 55.2764 568.44 54.7812 568.013 54.1543C567.591 53.5273 567.38 52.8008 567.38 51.9746H570.025C570.025 53.3867 570.869 54.0928 572.557 54.0928C573.184 54.0928 573.673 53.9668 574.024 53.7148C574.376 53.457 574.552 53.0996 574.552 52.6426Z" fill="white"/>
<path d="M393.541 145.737C393.441 147.114 392.932 148.198 392.012 148.989C391.098 149.78 389.891 150.176 388.391 150.176C386.75 150.176 385.458 149.625 384.515 148.523C383.577 147.416 383.108 145.898 383.108 143.971V143.188C383.108 141.958 383.325 140.874 383.759 139.937C384.192 138.999 384.811 138.281 385.613 137.783C386.422 137.279 387.359 137.027 388.426 137.027C389.902 137.027 391.092 137.423 391.994 138.214C392.896 139.005 393.418 140.115 393.559 141.545H390.922C390.857 140.719 390.626 140.121 390.228 139.752C389.835 139.377 389.234 139.189 388.426 139.189C387.547 139.189 386.888 139.506 386.448 140.139C386.015 140.766 385.792 141.741 385.78 143.065V144.032C385.78 145.415 385.988 146.426 386.404 147.064C386.826 147.703 387.488 148.022 388.391 148.022C389.205 148.022 389.812 147.838 390.21 147.469C390.614 147.094 390.846 146.517 390.904 145.737H393.541ZM405.784 143.892C405.784 145.151 405.562 146.256 405.116 147.205C404.671 148.154 404.032 148.887 403.2 149.402C402.374 149.918 401.425 150.176 400.353 150.176C399.292 150.176 398.346 149.921 397.514 149.411C396.682 148.901 396.037 148.175 395.58 147.231C395.123 146.282 394.892 145.192 394.886 143.962V143.329C394.886 142.069 395.111 140.962 395.562 140.007C396.02 139.046 396.661 138.311 397.487 137.801C398.319 137.285 399.269 137.027 400.335 137.027C401.401 137.027 402.348 137.285 403.174 137.801C404.006 138.311 404.647 139.046 405.099 140.007C405.556 140.962 405.784 142.066 405.784 143.32V143.892ZM403.112 143.312C403.112 141.97 402.872 140.95 402.392 140.253C401.911 139.556 401.226 139.207 400.335 139.207C399.45 139.207 398.768 139.553 398.287 140.244C397.807 140.93 397.563 141.938 397.558 143.268V143.892C397.558 145.198 397.798 146.212 398.278 146.933C398.759 147.653 399.45 148.014 400.353 148.014C401.237 148.014 401.917 147.668 402.392 146.977C402.866 146.279 403.106 145.266 403.112 143.936V143.312ZM418.106 150H415.47L410.337 141.58V150H407.7V137.203H410.337L415.479 145.641V137.203H418.106V150ZM430.921 143.892C430.921 145.151 430.698 146.256 430.253 147.205C429.808 148.154 429.169 148.887 428.337 149.402C427.511 149.918 426.562 150.176 425.489 150.176C424.429 150.176 423.482 149.921 422.65 149.411C421.818 148.901 421.174 148.175 420.717 147.231C420.26 146.282 420.028 145.192 420.022 143.962V143.329C420.022 142.069 420.248 140.962 420.699 140.007C421.156 139.046 421.798 138.311 422.624 137.801C423.456 137.285 424.405 137.027 425.472 137.027C426.538 137.027 427.484 137.285 428.311 137.801C429.143 138.311 429.784 139.046 430.235 140.007C430.692 140.962 430.921 142.066 430.921 143.32V143.892ZM428.249 143.312C428.249 141.97 428.009 140.95 427.528 140.253C427.048 139.556 426.362 139.207 425.472 139.207C424.587 139.207 423.904 139.553 423.424 140.244C422.943 140.93 422.7 141.938 422.694 143.268V143.892C422.694 145.198 422.935 146.212 423.415 146.933C423.896 147.653 424.587 148.014 425.489 148.014C426.374 148.014 427.054 147.668 427.528 146.977C428.003 146.279 428.243 145.266 428.249 143.936V143.312ZM442.883 145.737C442.783 147.114 442.273 148.198 441.354 148.989C440.439 149.78 439.232 150.176 437.732 150.176C436.092 150.176 434.8 149.625 433.856 148.523C432.919 147.416 432.45 145.898 432.45 143.971V143.188C432.45 141.958 432.667 140.874 433.101 139.937C433.534 138.999 434.152 138.281 434.955 137.783C435.764 137.279 436.701 137.027 437.768 137.027C439.244 137.027 440.434 137.423 441.336 138.214C442.238 139.005 442.76 140.115 442.9 141.545H440.264C440.199 140.719 439.968 140.121 439.569 139.752C439.177 139.377 438.576 139.189 437.768 139.189C436.889 139.189 436.229 139.506 435.79 140.139C435.356 140.766 435.134 141.741 435.122 143.065V144.032C435.122 145.415 435.33 146.426 435.746 147.064C436.168 147.703 436.83 148.022 437.732 148.022C438.547 148.022 439.153 147.838 439.552 147.469C439.956 147.094 440.188 146.517 440.246 145.737H442.883ZM447.418 150H444.781V137.203H447.418V150ZM453.315 137.203L456.603 146.484L459.872 137.203H463.335V150H460.689V146.502L460.953 140.464L457.499 150H455.688L452.243 140.473L452.507 146.502V150H449.87V137.203H453.315ZM468.441 150H465.805V137.203H468.441V150ZM478.593 144.454H473.53V147.882H479.472V150H470.894V137.203H479.454V139.339H473.53V142.389H478.593V144.454ZM491.425 150H488.788L483.655 141.58V150H481.019V137.203H483.655L488.797 145.641V137.203H491.425V150ZM503.097 139.339H499.177V150H496.54V139.339H492.673V137.203H503.097V139.339ZM514.874 143.892C514.874 145.151 514.651 146.256 514.206 147.205C513.761 148.154 513.122 148.887 512.29 149.402C511.464 149.918 510.515 150.176 509.442 150.176C508.382 150.176 507.436 149.921 506.604 149.411C505.771 148.901 505.127 148.175 504.67 147.231C504.213 146.282 503.981 145.192 503.976 143.962V143.329C503.976 142.069 504.201 140.962 504.652 140.007C505.109 139.046 505.751 138.311 506.577 137.801C507.409 137.285 508.358 137.027 509.425 137.027C510.491 137.027 511.438 137.285 512.264 137.801C513.096 138.311 513.737 139.046 514.188 140.007C514.646 140.962 514.874 142.066 514.874 143.32V143.892ZM512.202 143.312C512.202 141.97 511.962 140.95 511.481 140.253C511.001 139.556 510.315 139.207 509.425 139.207C508.54 139.207 507.857 139.553 507.377 140.244C506.896 140.93 506.653 141.938 506.647 143.268V143.892C506.647 145.198 506.888 146.212 507.368 146.933C507.849 147.653 508.54 148.014 509.442 148.014C510.327 148.014 511.007 147.668 511.481 146.977C511.956 146.279 512.196 145.266 512.202 143.936V143.312Z" fill="white"/>
<path d="M392.064 244H389.428V231.203H392.064V244ZM404.923 244H402.286L397.153 235.58V244H394.517V231.203H397.153L402.295 239.641V231.203H404.923V244ZM414.925 238.771H409.862V244H407.226V231.203H415.558V233.339H409.862V236.644H414.925V238.771ZM427.599 237.892C427.599 239.151 427.376 240.256 426.931 241.205C426.485 242.154 425.847 242.887 425.015 243.402C424.188 243.918 423.239 244.176 422.167 244.176C421.106 244.176 420.16 243.921 419.328 243.411C418.496 242.901 417.852 242.175 417.395 241.231C416.938 240.282 416.706 239.192 416.7 237.962V237.329C416.7 236.069 416.926 234.962 417.377 234.007C417.834 233.046 418.476 232.311 419.302 231.801C420.134 231.285 421.083 231.027 422.149 231.027C423.216 231.027 424.162 231.285 424.988 231.801C425.82 232.311 426.462 233.046 426.913 234.007C427.37 234.962 427.599 236.066 427.599 237.32V237.892ZM424.927 237.312C424.927 235.97 424.687 234.95 424.206 234.253C423.726 233.556 423.04 233.207 422.149 233.207C421.265 233.207 420.582 233.553 420.102 234.244C419.621 234.93 419.378 235.938 419.372 237.268V237.892C419.372 239.198 419.612 240.212 420.093 240.933C420.573 241.653 421.265 242.014 422.167 242.014C423.052 242.014 423.731 241.668 424.206 240.977C424.681 240.279 424.921 239.266 424.927 237.936V237.312ZM434.252 239.315H432.151V244H429.515V231.203H434.27C435.781 231.203 436.947 231.54 437.768 232.214C438.588 232.888 438.998 233.84 438.998 235.07C438.998 235.943 438.808 236.673 438.427 237.259C438.052 237.839 437.48 238.302 436.713 238.647L439.481 243.877V244H436.651L434.252 239.315ZM432.151 237.18H434.278C434.94 237.18 435.453 237.013 435.816 236.679C436.18 236.339 436.361 235.873 436.361 235.281C436.361 234.678 436.188 234.203 435.843 233.857C435.503 233.512 434.979 233.339 434.27 233.339H432.151V237.18ZM444.456 231.203L447.743 240.484L451.013 231.203H454.476V244H451.83V240.502L452.094 234.464L448.64 244H446.829L443.384 234.473L443.647 240.502V244H441.011V231.203H444.456ZM464.161 241.363H459.538L458.659 244H455.855L460.619 231.203H463.062L467.853 244H465.049L464.161 241.363ZM460.25 239.228H463.449L461.841 234.438L460.25 239.228ZM478.9 239.737C478.801 241.114 478.291 242.198 477.371 242.989C476.457 243.78 475.25 244.176 473.75 244.176C472.109 244.176 470.817 243.625 469.874 242.523C468.937 241.416 468.468 239.898 468.468 237.971V237.188C468.468 235.958 468.685 234.874 469.118 233.937C469.552 232.999 470.17 232.281 470.973 231.783C471.781 231.279 472.719 231.027 473.785 231.027C475.262 231.027 476.451 231.423 477.354 232.214C478.256 233.005 478.777 234.115 478.918 235.545H476.281C476.217 234.719 475.985 234.121 475.587 233.752C475.194 233.377 474.594 233.189 473.785 233.189C472.906 233.189 472.247 233.506 471.808 234.139C471.374 234.766 471.151 235.741 471.14 237.065V238.032C471.14 239.415 471.348 240.426 471.764 241.064C472.186 241.703 472.848 242.022 473.75 242.022C474.564 242.022 475.171 241.838 475.569 241.469C475.974 241.094 476.205 240.517 476.264 239.737H478.9ZM483.436 244H480.799V231.203H483.436V244ZM496.399 237.892C496.399 239.151 496.177 240.256 495.731 241.205C495.286 242.154 494.647 242.887 493.815 243.402C492.989 243.918 492.04 244.176 490.968 244.176C489.907 244.176 488.961 243.921 488.129 243.411C487.297 242.901 486.652 242.175 486.195 241.231C485.738 240.282 485.507 239.192 485.501 237.962V237.329C485.501 236.069 485.727 234.962 486.178 234.007C486.635 233.046 487.276 232.311 488.103 231.801C488.935 231.285 489.884 231.027 490.95 231.027C492.017 231.027 492.963 231.285 493.789 231.801C494.621 232.311 495.263 233.046 495.714 234.007C496.171 234.962 496.399 236.066 496.399 237.32V237.892ZM493.728 237.312C493.728 235.97 493.487 234.95 493.007 234.253C492.526 233.556 491.841 233.207 490.95 233.207C490.065 233.207 489.383 233.553 488.902 234.244C488.422 234.93 488.179 235.938 488.173 237.268V237.892C488.173 239.198 488.413 240.212 488.894 240.933C489.374 241.653 490.065 242.014 490.968 242.014C491.853 242.014 492.532 241.668 493.007 240.977C493.481 240.279 493.722 239.266 493.728 237.936V237.312ZM491.46 227.775H494.229L491.794 230.5H489.729L491.46 227.775ZM508.722 244H506.085L500.952 235.58V244H498.315V231.203H500.952L506.094 239.641V231.203H508.722V244Z" fill="white"/>
<path d="M421.657 338V325.203H425.595C426.72 325.203 427.725 325.458 428.609 325.968C429.5 326.472 430.194 327.192 430.692 328.13C431.19 329.062 431.439 330.122 431.439 331.312V331.9C431.439 333.09 431.193 334.147 430.701 335.073C430.215 335.999 429.526 336.717 428.636 337.227C427.745 337.736 426.74 337.994 425.621 338H421.657ZM424.294 327.339V335.882H425.568C426.6 335.882 427.388 335.545 427.933 334.871C428.478 334.197 428.756 333.233 428.768 331.979V331.303C428.768 330.002 428.498 329.018 427.959 328.35C427.42 327.676 426.632 327.339 425.595 327.339H424.294ZM440.396 335.363H435.772L434.894 338H432.09L436.854 325.203H439.297L444.087 338H441.283L440.396 335.363ZM436.484 333.228H439.684L438.075 328.438L436.484 333.228ZM453.86 327.339H449.94V338H447.304V327.339H443.437V325.203H453.86V327.339ZM465.638 331.892C465.638 333.151 465.415 334.256 464.97 335.205C464.524 336.154 463.886 336.887 463.054 337.402C462.228 337.918 461.278 338.176 460.206 338.176C459.146 338.176 458.199 337.921 457.367 337.411C456.535 336.901 455.891 336.175 455.434 335.231C454.977 334.282 454.745 333.192 454.739 331.962V331.329C454.739 330.069 454.965 328.962 455.416 328.007C455.873 327.046 456.515 326.311 457.341 325.801C458.173 325.285 459.122 325.027 460.188 325.027C461.255 325.027 462.201 325.285 463.027 325.801C463.859 326.311 464.501 327.046 464.952 328.007C465.409 328.962 465.638 330.066 465.638 331.32V331.892ZM462.966 331.312C462.966 329.97 462.726 328.95 462.245 328.253C461.765 327.556 461.079 327.207 460.188 327.207C459.304 327.207 458.621 327.553 458.141 328.244C457.66 328.93 457.417 329.938 457.411 331.268V331.892C457.411 333.198 457.651 334.212 458.132 334.933C458.612 335.653 459.304 336.014 460.206 336.014C461.091 336.014 461.771 335.668 462.245 334.977C462.72 334.279 462.96 333.266 462.966 331.936V331.312ZM474.189 334.643C474.189 334.145 474.014 333.764 473.662 333.5C473.311 333.23 472.678 332.949 471.764 332.656C470.85 332.357 470.126 332.064 469.593 331.777C468.14 330.992 467.413 329.935 467.413 328.604C467.413 327.913 467.606 327.298 467.993 326.759C468.386 326.214 468.945 325.789 469.672 325.484C470.404 325.18 471.225 325.027 472.133 325.027C473.047 325.027 473.861 325.194 474.576 325.528C475.291 325.856 475.845 326.322 476.237 326.926C476.636 327.529 476.835 328.215 476.835 328.982H474.198C474.198 328.396 474.014 327.942 473.645 327.62C473.275 327.292 472.757 327.128 472.089 327.128C471.444 327.128 470.943 327.266 470.586 327.541C470.229 327.811 470.05 328.168 470.05 328.613C470.05 329.029 470.258 329.378 470.674 329.659C471.096 329.94 471.714 330.204 472.528 330.45C474.028 330.901 475.121 331.461 475.807 332.129C476.492 332.797 476.835 333.629 476.835 334.625C476.835 335.732 476.416 336.603 475.578 337.235C474.74 337.862 473.612 338.176 472.194 338.176C471.21 338.176 470.313 337.997 469.505 337.64C468.696 337.276 468.078 336.781 467.65 336.154C467.229 335.527 467.018 334.801 467.018 333.975H469.663C469.663 335.387 470.507 336.093 472.194 336.093C472.821 336.093 473.311 335.967 473.662 335.715C474.014 335.457 474.189 335.1 474.189 334.643Z" fill="white"/>
<path d="M367.719 81.9395C367.561 83.293 367.06 84.3389 366.216 85.0771C365.378 85.8096 364.262 86.1758 362.867 86.1758C361.355 86.1758 360.143 85.6338 359.229 84.5498C358.32 83.4658 357.866 82.0156 357.866 80.1992V78.9688C357.866 77.7793 358.077 76.7334 358.499 75.8311C358.927 74.9287 359.53 74.2373 360.31 73.7568C361.089 73.2705 361.991 73.0273 363.017 73.0273C364.376 73.0273 365.466 73.4082 366.286 74.1699C367.106 74.9258 367.584 75.9746 367.719 77.3164H366.022C365.876 76.2969 365.557 75.5586 365.064 75.1016C364.578 74.6445 363.896 74.416 363.017 74.416C361.938 74.416 361.092 74.8145 360.477 75.6113C359.867 76.4082 359.562 77.542 359.562 79.0127V80.252C359.562 81.6406 359.853 82.7451 360.433 83.5654C361.013 84.3857 361.824 84.7959 362.867 84.7959C363.805 84.7959 364.522 84.585 365.021 84.1631C365.524 83.7354 365.858 82.9941 366.022 81.9395H367.719ZM369.345 81.1572C369.345 80.2256 369.526 79.3877 369.89 78.6436C370.259 77.8994 370.769 77.3252 371.419 76.9209C372.075 76.5166 372.822 76.3145 373.66 76.3145C374.955 76.3145 376.001 76.7627 376.798 77.6592C377.601 78.5557 378.002 79.748 378.002 81.2363V81.3506C378.002 82.2764 377.823 83.1084 377.466 83.8467C377.114 84.5791 376.607 85.1504 375.945 85.5605C375.289 85.9707 374.533 86.1758 373.678 86.1758C372.389 86.1758 371.343 85.7275 370.54 84.8311C369.743 83.9346 369.345 82.748 369.345 81.2715V81.1572ZM370.979 81.3506C370.979 82.4053 371.223 83.252 371.709 83.8906C372.201 84.5293 372.857 84.8486 373.678 84.8486C374.504 84.8486 375.16 84.5264 375.646 83.8818C376.133 83.2314 376.376 82.3232 376.376 81.1572C376.376 80.1143 376.127 79.2705 375.629 78.626C375.137 77.9756 374.48 77.6504 373.66 77.6504C372.857 77.6504 372.21 77.9697 371.718 78.6084C371.226 79.2471 370.979 80.1611 370.979 81.3506ZM381.579 76.4902L381.632 77.6855C382.358 76.7715 383.308 76.3145 384.479 76.3145C386.489 76.3145 387.503 77.4482 387.521 79.7158V86H385.895V79.707C385.889 79.0215 385.73 78.5146 385.42 78.1865C385.115 77.8584 384.638 77.6943 383.987 77.6943C383.46 77.6943 382.997 77.835 382.599 78.1162C382.2 78.3975 381.89 78.7666 381.667 79.2236V86H380.041V76.4902H381.579ZM389.542 81.1572C389.542 80.2256 389.724 79.3877 390.087 78.6436C390.456 77.8994 390.966 77.3252 391.616 76.9209C392.272 76.5166 393.02 76.3145 393.857 76.3145C395.152 76.3145 396.198 76.7627 396.995 77.6592C397.798 78.5557 398.199 79.748 398.199 81.2363V81.3506C398.199 82.2764 398.021 83.1084 397.663 83.8467C397.312 84.5791 396.805 85.1504 396.143 85.5605C395.486 85.9707 394.73 86.1758 393.875 86.1758C392.586 86.1758 391.54 85.7275 390.737 84.8311C389.94 83.9346 389.542 82.748 389.542 81.2715V81.1572ZM391.177 81.3506C391.177 82.4053 391.42 83.252 391.906 83.8906C392.398 84.5293 393.055 84.8486 393.875 84.8486C394.701 84.8486 395.357 84.5264 395.844 83.8818C396.33 83.2314 396.573 82.3232 396.573 81.1572C396.573 80.1143 396.324 79.2705 395.826 78.626C395.334 77.9756 394.678 77.6504 393.857 77.6504C393.055 77.6504 392.407 77.9697 391.915 78.6084C391.423 79.2471 391.177 80.1611 391.177 81.3506ZM404.053 84.8486C404.633 84.8486 405.14 84.6729 405.573 84.3213C406.007 83.9697 406.247 83.5303 406.294 83.0029H407.832C407.803 83.5479 407.615 84.0664 407.27 84.5586C406.924 85.0508 406.461 85.4434 405.881 85.7363C405.307 86.0293 404.697 86.1758 404.053 86.1758C402.758 86.1758 401.727 85.7451 400.959 84.8838C400.197 84.0166 399.816 82.833 399.816 81.333V81.0605C399.816 80.1348 399.986 79.3115 400.326 78.5908C400.666 77.8701 401.152 77.3105 401.785 76.9121C402.424 76.5137 403.177 76.3145 404.044 76.3145C405.11 76.3145 405.995 76.6338 406.698 77.2725C407.407 77.9111 407.785 78.7402 407.832 79.7598H406.294C406.247 79.1445 406.013 78.6406 405.591 78.248C405.175 77.8496 404.659 77.6504 404.044 77.6504C403.218 77.6504 402.576 77.9492 402.119 78.5469C401.668 79.1387 401.442 79.9971 401.442 81.1221V81.4297C401.442 82.5254 401.668 83.3691 402.119 83.9609C402.57 84.5527 403.215 84.8486 404.053 84.8486ZM411.427 86H409.801V76.4902H411.427V86ZM409.669 73.9678C409.669 73.7041 409.748 73.4814 409.906 73.2998C410.07 73.1182 410.311 73.0273 410.627 73.0273C410.943 73.0273 411.184 73.1182 411.348 73.2998C411.512 73.4814 411.594 73.7041 411.594 73.9678C411.594 74.2314 411.512 74.4512 411.348 74.627C411.184 74.8027 410.943 74.8906 410.627 74.8906C410.311 74.8906 410.07 74.8027 409.906 74.627C409.748 74.4512 409.669 74.2314 409.669 73.9678ZM415.566 76.4902L415.61 77.5449C416.308 76.7246 417.248 76.3145 418.432 76.3145C419.762 76.3145 420.667 76.8242 421.147 77.8438C421.464 77.3867 421.874 77.0176 422.378 76.7363C422.888 76.4551 423.488 76.3145 424.18 76.3145C426.266 76.3145 427.326 77.4189 427.361 79.6279V86H425.735V79.7246C425.735 79.0449 425.58 78.5381 425.27 78.2041C424.959 77.8643 424.438 77.6943 423.705 77.6943C423.102 77.6943 422.601 77.876 422.202 78.2393C421.804 78.5967 421.572 79.0801 421.508 79.6895V86H419.873V79.7686C419.873 78.3857 419.196 77.6943 417.843 77.6943C416.776 77.6943 416.047 78.1484 415.654 79.0566V86H414.028V76.4902H415.566ZM431.589 86H429.963V76.4902H431.589V86ZM429.831 73.9678C429.831 73.7041 429.91 73.4814 430.068 73.2998C430.232 73.1182 430.473 73.0273 430.789 73.0273C431.105 73.0273 431.346 73.1182 431.51 73.2998C431.674 73.4814 431.756 73.7041 431.756 73.9678C431.756 74.2314 431.674 74.4512 431.51 74.627C431.346 74.8027 431.105 74.8906 430.789 74.8906C430.473 74.8906 430.232 74.8027 430.068 74.627C429.91 74.4512 429.831 74.2314 429.831 73.9678ZM438.146 86.1758C436.856 86.1758 435.808 85.7539 434.999 84.9102C434.19 84.0605 433.786 82.9268 433.786 81.5088V81.21C433.786 80.2666 433.965 79.4258 434.322 78.6875C434.686 77.9434 435.189 77.3633 435.834 76.9473C436.484 76.5254 437.188 76.3145 437.943 76.3145C439.18 76.3145 440.141 76.7217 440.826 77.5361C441.512 78.3506 441.854 79.5166 441.854 81.0342V81.7109H435.412C435.436 82.6484 435.708 83.4072 436.229 83.9873C436.757 84.5615 437.425 84.8486 438.233 84.8486C438.808 84.8486 439.294 84.7314 439.692 84.4971C440.091 84.2627 440.439 83.9521 440.738 83.5654L441.731 84.3389C440.935 85.5635 439.739 86.1758 438.146 86.1758ZM437.943 77.6504C437.287 77.6504 436.736 77.8906 436.291 78.3711C435.846 78.8457 435.57 79.5137 435.465 80.375H440.229V80.252C440.182 79.4258 439.959 78.7871 439.561 78.3359C439.162 77.8789 438.623 77.6504 437.943 77.6504ZM445.282 76.4902L445.335 77.6855C446.062 76.7715 447.011 76.3145 448.183 76.3145C450.192 76.3145 451.206 77.4482 451.224 79.7158V86H449.598V79.707C449.592 79.0215 449.434 78.5146 449.123 78.1865C448.818 77.8584 448.341 77.6943 447.69 77.6943C447.163 77.6943 446.7 77.835 446.302 78.1162C445.903 78.3975 445.593 78.7666 445.37 79.2236V86H443.744V76.4902H445.282ZM455.882 74.1875V76.4902H457.657V77.7471H455.882V83.6445C455.882 84.0254 455.961 84.3125 456.119 84.5059C456.277 84.6934 456.547 84.7871 456.928 84.7871C457.115 84.7871 457.373 84.752 457.701 84.6816V86C457.273 86.1172 456.857 86.1758 456.453 86.1758C455.727 86.1758 455.179 85.9561 454.81 85.5166C454.44 85.0771 454.256 84.4531 454.256 83.6445V77.7471H452.524V76.4902H454.256V74.1875H455.882ZM458.958 81.1572C458.958 80.2256 459.14 79.3877 459.503 78.6436C459.872 77.8994 460.382 77.3252 461.032 76.9209C461.688 76.5166 462.436 76.3145 463.273 76.3145C464.568 76.3145 465.614 76.7627 466.411 77.6592C467.214 78.5557 467.615 79.748 467.615 81.2363V81.3506C467.615 82.2764 467.437 83.1084 467.079 83.8467C466.728 84.5791 466.221 85.1504 465.559 85.5605C464.902 85.9707 464.146 86.1758 463.291 86.1758C462.002 86.1758 460.956 85.7275 460.153 84.8311C459.356 83.9346 458.958 82.748 458.958 81.2715V81.1572ZM460.593 81.3506C460.593 82.4053 460.836 83.252 461.322 83.8906C461.814 84.5293 462.471 84.8486 463.291 84.8486C464.117 84.8486 464.773 84.5264 465.26 83.8818C465.746 83.2314 465.989 82.3232 465.989 81.1572C465.989 80.1143 465.74 79.2705 465.242 78.626C464.75 77.9756 464.094 77.6504 463.273 77.6504C462.471 77.6504 461.823 77.9697 461.331 78.6084C460.839 79.2471 460.593 80.1611 460.593 81.3506ZM479.99 86C479.896 85.8125 479.82 85.4785 479.762 84.998C479.006 85.7832 478.104 86.1758 477.055 86.1758C476.117 86.1758 475.347 85.9121 474.743 85.3848C474.146 84.8516 473.847 84.1777 473.847 83.3633C473.847 82.373 474.222 81.6055 474.972 81.0605C475.728 80.5098 476.788 80.2344 478.153 80.2344H479.735V79.4873C479.735 78.9189 479.565 78.4678 479.226 78.1338C478.886 77.7939 478.385 77.624 477.723 77.624C477.143 77.624 476.656 77.7705 476.264 78.0635C475.871 78.3564 475.675 78.7109 475.675 79.127H474.04C474.04 78.6523 474.207 78.1953 474.541 77.7559C474.881 77.3105 475.338 76.959 475.912 76.7012C476.492 76.4434 477.128 76.3145 477.819 76.3145C478.915 76.3145 479.773 76.5898 480.395 77.1406C481.016 77.6855 481.338 78.4385 481.361 79.3994V83.7764C481.361 84.6494 481.473 85.3438 481.695 85.8594V86H479.99ZM477.292 84.7607C477.802 84.7607 478.285 84.6289 478.742 84.3652C479.199 84.1016 479.53 83.7588 479.735 83.3369V81.3857H478.461C476.469 81.3857 475.473 81.9688 475.473 83.1348C475.473 83.6445 475.643 84.043 475.982 84.3301C476.322 84.6172 476.759 84.7607 477.292 84.7607ZM491.943 81.3506C491.943 82.7979 491.612 83.9639 490.95 84.8486C490.288 85.7334 489.392 86.1758 488.261 86.1758C487.106 86.1758 486.198 85.8096 485.536 85.0771V89.6562H483.91V76.4902H485.396L485.475 77.5449C486.137 76.7246 487.057 76.3145 488.234 76.3145C489.377 76.3145 490.279 76.7451 490.941 77.6064C491.609 78.4678 491.943 79.666 491.943 81.2012V81.3506ZM490.317 81.166C490.317 80.0938 490.089 79.2471 489.632 78.626C489.175 78.0049 488.548 77.6943 487.751 77.6943C486.767 77.6943 486.028 78.1309 485.536 79.0039V83.5479C486.022 84.415 486.767 84.8486 487.769 84.8486C488.548 84.8486 489.166 84.541 489.623 83.9258C490.086 83.3047 490.317 82.3848 490.317 81.166ZM495.784 86H494.158V72.5H495.784V86ZM500.161 86H498.535V76.4902H500.161V86ZM498.403 73.9678C498.403 73.7041 498.482 73.4814 498.641 73.2998C498.805 73.1182 499.045 73.0273 499.361 73.0273C499.678 73.0273 499.918 73.1182 500.082 73.2998C500.246 73.4814 500.328 73.7041 500.328 73.9678C500.328 74.2314 500.246 74.4512 500.082 74.627C499.918 74.8027 499.678 74.8906 499.361 74.8906C499.045 74.8906 498.805 74.8027 498.641 74.627C498.482 74.4512 498.403 74.2314 498.403 73.9678ZM506.586 84.8486C507.166 84.8486 507.673 84.6729 508.106 84.3213C508.54 83.9697 508.78 83.5303 508.827 83.0029H510.365C510.336 83.5479 510.148 84.0664 509.803 84.5586C509.457 85.0508 508.994 85.4434 508.414 85.7363C507.84 86.0293 507.23 86.1758 506.586 86.1758C505.291 86.1758 504.26 85.7451 503.492 84.8838C502.73 84.0166 502.35 82.833 502.35 81.333V81.0605C502.35 80.1348 502.52 79.3115 502.859 78.5908C503.199 77.8701 503.686 77.3105 504.318 76.9121C504.957 76.5137 505.71 76.3145 506.577 76.3145C507.644 76.3145 508.528 76.6338 509.231 77.2725C509.94 77.9111 510.318 78.7402 510.365 79.7598H508.827C508.78 79.1445 508.546 78.6406 508.124 78.248C507.708 77.8496 507.192 77.6504 506.577 77.6504C505.751 77.6504 505.109 77.9492 504.652 78.5469C504.201 79.1387 503.976 79.9971 503.976 81.1221V81.4297C503.976 82.5254 504.201 83.3691 504.652 83.9609C505.104 84.5527 505.748 84.8486 506.586 84.8486ZM518.064 86C517.971 85.8125 517.895 85.4785 517.836 84.998C517.08 85.7832 516.178 86.1758 515.129 86.1758C514.191 86.1758 513.421 85.9121 512.817 85.3848C512.22 84.8516 511.921 84.1777 511.921 83.3633C511.921 82.373 512.296 81.6055 513.046 81.0605C513.802 80.5098 514.862 80.2344 516.228 80.2344H517.81V79.4873C517.81 78.9189 517.64 78.4678 517.3 78.1338C516.96 77.7939 516.459 77.624 515.797 77.624C515.217 77.624 514.73 77.7705 514.338 78.0635C513.945 78.3564 513.749 78.7109 513.749 79.127H512.114C512.114 78.6523 512.281 78.1953 512.615 77.7559C512.955 77.3105 513.412 76.959 513.986 76.7012C514.566 76.4434 515.202 76.3145 515.894 76.3145C516.989 76.3145 517.848 76.5898 518.469 77.1406C519.09 77.6855 519.412 78.4385 519.436 79.3994V83.7764C519.436 84.6494 519.547 85.3438 519.77 85.8594V86H518.064ZM515.366 84.7607C515.876 84.7607 516.359 84.6289 516.816 84.3652C517.273 84.1016 517.604 83.7588 517.81 83.3369V81.3857H516.535C514.543 81.3857 513.547 81.9688 513.547 83.1348C513.547 83.6445 513.717 84.043 514.057 84.3301C514.396 84.6172 514.833 84.7607 515.366 84.7607ZM521.589 81.166C521.589 79.707 521.935 78.5352 522.626 77.6504C523.317 76.7598 524.223 76.3145 525.342 76.3145C526.455 76.3145 527.337 76.6953 527.987 77.457V72.5H529.613V86H528.119L528.04 84.9805C527.39 85.7773 526.484 86.1758 525.324 86.1758C524.223 86.1758 523.323 85.7246 522.626 84.8223C521.935 83.9199 521.589 82.7422 521.589 81.2891V81.166ZM523.215 81.3506C523.215 82.4287 523.438 83.2725 523.883 83.8818C524.328 84.4912 524.943 84.7959 525.729 84.7959C526.76 84.7959 527.513 84.333 527.987 83.4072V79.0391C527.501 78.1426 526.754 77.6943 525.746 77.6943C524.949 77.6943 524.328 78.002 523.883 78.6172C523.438 79.2324 523.215 80.1436 523.215 81.3506ZM531.714 81.1572C531.714 80.2256 531.896 79.3877 532.259 78.6436C532.628 77.8994 533.138 77.3252 533.788 76.9209C534.444 76.5166 535.191 76.3145 536.029 76.3145C537.324 76.3145 538.37 76.7627 539.167 77.6592C539.97 78.5557 540.371 79.748 540.371 81.2363V81.3506C540.371 82.2764 540.192 83.1084 539.835 83.8467C539.483 84.5791 538.977 85.1504 538.314 85.5605C537.658 85.9707 536.902 86.1758 536.047 86.1758C534.758 86.1758 533.712 85.7275 532.909 84.8311C532.112 83.9346 531.714 82.748 531.714 81.2715V81.1572ZM533.349 81.3506C533.349 82.4053 533.592 83.252 534.078 83.8906C534.57 84.5293 535.227 84.8486 536.047 84.8486C536.873 84.8486 537.529 84.5264 538.016 83.8818C538.502 83.2314 538.745 82.3232 538.745 81.1572C538.745 80.1143 538.496 79.2705 537.998 78.626C537.506 77.9756 536.85 77.6504 536.029 77.6504C535.227 77.6504 534.579 77.9697 534.087 78.6084C533.595 79.2471 533.349 80.1611 533.349 81.3506ZM369.23 107.176C367.941 107.176 366.893 106.754 366.084 105.91C365.275 105.061 364.871 103.927 364.871 102.509V102.21C364.871 101.267 365.05 100.426 365.407 99.6875C365.771 98.9434 366.274 98.3633 366.919 97.9473C367.569 97.5254 368.272 97.3145 369.028 97.3145C370.265 97.3145 371.226 97.7217 371.911 98.5361C372.597 99.3506 372.939 100.517 372.939 102.034V102.711H366.497C366.521 103.648 366.793 104.407 367.314 104.987C367.842 105.562 368.51 105.849 369.318 105.849C369.893 105.849 370.379 105.731 370.777 105.497C371.176 105.263 371.524 104.952 371.823 104.565L372.816 105.339C372.02 106.563 370.824 107.176 369.23 107.176ZM369.028 98.6504C368.372 98.6504 367.821 98.8906 367.376 99.3711C366.931 99.8457 366.655 100.514 366.55 101.375H371.313V101.252C371.267 100.426 371.044 99.7871 370.646 99.3359C370.247 98.8789 369.708 98.6504 369.028 98.6504ZM376.367 97.4902L376.42 98.6855C377.146 97.7715 378.096 97.3145 379.268 97.3145C381.277 97.3145 382.291 98.4482 382.309 100.716V107H380.683V100.707C380.677 100.021 380.519 99.5146 380.208 99.1865C379.903 98.8584 379.426 98.6943 378.775 98.6943C378.248 98.6943 377.785 98.835 377.387 99.1162C376.988 99.3975 376.678 99.7666 376.455 100.224V107H374.829V97.4902H376.367ZM397.259 102.351C397.259 103.798 396.928 104.964 396.266 105.849C395.604 106.733 394.707 107.176 393.576 107.176C392.422 107.176 391.514 106.81 390.852 106.077V110.656H389.226V97.4902H390.711L390.79 98.5449C391.452 97.7246 392.372 97.3145 393.55 97.3145C394.692 97.3145 395.595 97.7451 396.257 98.6064C396.925 99.4678 397.259 100.666 397.259 102.201V102.351ZM395.633 102.166C395.633 101.094 395.404 100.247 394.947 99.626C394.49 99.0049 393.863 98.6943 393.066 98.6943C392.082 98.6943 391.344 99.1309 390.852 100.004V104.548C391.338 105.415 392.082 105.849 393.084 105.849C393.863 105.849 394.481 105.541 394.938 104.926C395.401 104.305 395.633 103.385 395.633 102.166ZM398.902 102.157C398.902 101.226 399.084 100.388 399.447 99.6436C399.816 98.8994 400.326 98.3252 400.977 97.9209C401.633 97.5166 402.38 97.3145 403.218 97.3145C404.513 97.3145 405.559 97.7627 406.355 98.6592C407.158 99.5557 407.56 100.748 407.56 102.236V102.351C407.56 103.276 407.381 104.108 407.023 104.847C406.672 105.579 406.165 106.15 405.503 106.561C404.847 106.971 404.091 107.176 403.235 107.176C401.946 107.176 400.9 106.728 400.098 105.831C399.301 104.935 398.902 103.748 398.902 102.271V102.157ZM400.537 102.351C400.537 103.405 400.78 104.252 401.267 104.891C401.759 105.529 402.415 105.849 403.235 105.849C404.062 105.849 404.718 105.526 405.204 104.882C405.69 104.231 405.934 103.323 405.934 102.157C405.934 101.114 405.685 100.271 405.187 99.626C404.694 98.9756 404.038 98.6504 403.218 98.6504C402.415 98.6504 401.768 98.9697 401.275 99.6084C400.783 100.247 400.537 101.161 400.537 102.351ZM415.136 104.478C415.136 104.038 414.969 103.698 414.635 103.458C414.307 103.212 413.729 103.001 412.903 102.825C412.083 102.649 411.43 102.438 410.943 102.192C410.463 101.946 410.105 101.653 409.871 101.313C409.643 100.974 409.528 100.569 409.528 100.101C409.528 99.3213 409.856 98.6621 410.513 98.123C411.175 97.584 412.019 97.3145 413.044 97.3145C414.122 97.3145 414.995 97.5928 415.663 98.1494C416.337 98.7061 416.674 99.418 416.674 100.285H415.039C415.039 99.8398 414.849 99.4561 414.468 99.1338C414.093 98.8115 413.618 98.6504 413.044 98.6504C412.452 98.6504 411.989 98.7793 411.655 99.0371C411.321 99.2949 411.154 99.6318 411.154 100.048C411.154 100.44 411.31 100.736 411.62 100.936C411.931 101.135 412.49 101.325 413.299 101.507C414.113 101.688 414.772 101.905 415.276 102.157C415.78 102.409 416.152 102.714 416.393 103.071C416.639 103.423 416.762 103.854 416.762 104.363C416.762 105.213 416.422 105.896 415.742 106.411C415.062 106.921 414.181 107.176 413.097 107.176C412.335 107.176 411.661 107.041 411.075 106.771C410.489 106.502 410.029 106.127 409.695 105.646C409.367 105.16 409.203 104.636 409.203 104.073H410.829C410.858 104.618 411.075 105.052 411.479 105.374C411.89 105.69 412.429 105.849 413.097 105.849C413.712 105.849 414.204 105.726 414.573 105.479C414.948 105.228 415.136 104.894 415.136 104.478ZM422.949 102.166C422.949 100.707 423.295 99.5352 423.986 98.6504C424.678 97.7598 425.583 97.3145 426.702 97.3145C427.815 97.3145 428.697 97.6953 429.348 98.457V93.5H430.974V107H429.479L429.4 105.98C428.75 106.777 427.845 107.176 426.685 107.176C425.583 107.176 424.684 106.725 423.986 105.822C423.295 104.92 422.949 103.742 422.949 102.289V102.166ZM424.575 102.351C424.575 103.429 424.798 104.272 425.243 104.882C425.688 105.491 426.304 105.796 427.089 105.796C428.12 105.796 428.873 105.333 429.348 104.407V100.039C428.861 99.1426 428.114 98.6943 427.106 98.6943C426.31 98.6943 425.688 99.002 425.243 99.6172C424.798 100.232 424.575 101.144 424.575 102.351ZM437.451 107.176C436.162 107.176 435.113 106.754 434.305 105.91C433.496 105.061 433.092 103.927 433.092 102.509V102.21C433.092 101.267 433.271 100.426 433.628 99.6875C433.991 98.9434 434.495 98.3633 435.14 97.9473C435.79 97.5254 436.493 97.3145 437.249 97.3145C438.485 97.3145 439.446 97.7217 440.132 98.5361C440.817 99.3506 441.16 100.517 441.16 102.034V102.711H434.718C434.741 103.648 435.014 104.407 435.535 104.987C436.062 105.562 436.73 105.849 437.539 105.849C438.113 105.849 438.6 105.731 438.998 105.497C439.396 105.263 439.745 104.952 440.044 104.565L441.037 105.339C440.24 106.563 439.045 107.176 437.451 107.176ZM437.249 98.6504C436.593 98.6504 436.042 98.8906 435.597 99.3711C435.151 99.8457 434.876 100.514 434.771 101.375H439.534V101.252C439.487 100.426 439.265 99.7871 438.866 99.3359C438.468 98.8789 437.929 98.6504 437.249 98.6504ZM453.386 106.06C452.753 106.804 451.824 107.176 450.6 107.176C449.586 107.176 448.812 106.883 448.279 106.297C447.752 105.705 447.485 104.832 447.479 103.678V97.4902H449.105V103.634C449.105 105.075 449.691 105.796 450.863 105.796C452.105 105.796 452.932 105.333 453.342 104.407V97.4902H454.968V107H453.421L453.386 106.06ZM458.984 97.4902L459.037 98.6855C459.764 97.7715 460.713 97.3145 461.885 97.3145C463.895 97.3145 464.908 98.4482 464.926 100.716V107H463.3V100.707C463.294 100.021 463.136 99.5146 462.825 99.1865C462.521 98.8584 462.043 98.6943 461.393 98.6943C460.865 98.6943 460.402 98.835 460.004 99.1162C459.605 99.3975 459.295 99.7666 459.072 100.224V107H457.446V97.4902H458.984ZM471.412 102.157C471.412 101.226 471.594 100.388 471.957 99.6436C472.326 98.8994 472.836 98.3252 473.486 97.9209C474.143 97.5166 474.89 97.3145 475.728 97.3145C477.022 97.3145 478.068 97.7627 478.865 98.6592C479.668 99.5557 480.069 100.748 480.069 102.236V102.351C480.069 103.276 479.891 104.108 479.533 104.847C479.182 105.579 478.675 106.15 478.013 106.561C477.356 106.971 476.601 107.176 475.745 107.176C474.456 107.176 473.41 106.728 472.607 105.831C471.811 104.935 471.412 103.748 471.412 102.271V102.157ZM473.047 102.351C473.047 103.405 473.29 104.252 473.776 104.891C474.269 105.529 474.925 105.849 475.745 105.849C476.571 105.849 477.228 105.526 477.714 104.882C478.2 104.231 478.443 103.323 478.443 102.157C478.443 101.114 478.194 100.271 477.696 99.626C477.204 98.9756 476.548 98.6504 475.728 98.6504C474.925 98.6504 474.277 98.9697 473.785 99.6084C473.293 100.247 473.047 101.161 473.047 102.351ZM490.159 102.351C490.159 103.804 489.825 104.973 489.157 105.857C488.489 106.736 487.593 107.176 486.468 107.176C485.267 107.176 484.338 106.751 483.682 105.901L483.603 107H482.108V93.5H483.734V98.5361C484.391 97.7217 485.296 97.3145 486.45 97.3145C487.604 97.3145 488.51 97.751 489.166 98.624C489.828 99.4971 490.159 100.692 490.159 102.21V102.351ZM488.533 102.166C488.533 101.059 488.319 100.203 487.892 99.5996C487.464 98.9961 486.849 98.6943 486.046 98.6943C484.974 98.6943 484.203 99.1924 483.734 100.188V104.302C484.232 105.298 485.009 105.796 486.063 105.796C486.843 105.796 487.449 105.494 487.883 104.891C488.316 104.287 488.533 103.379 488.533 102.166ZM493.895 97.4902V108.099C493.895 109.927 493.065 110.841 491.407 110.841C491.05 110.841 490.719 110.788 490.414 110.683V109.382C490.602 109.429 490.848 109.452 491.152 109.452C491.516 109.452 491.791 109.353 491.979 109.153C492.172 108.96 492.269 108.62 492.269 108.134V97.4902H493.895ZM492.102 94.9678C492.102 94.71 492.181 94.4902 492.339 94.3086C492.503 94.1211 492.74 94.0273 493.051 94.0273C493.367 94.0273 493.607 94.1182 493.771 94.2998C493.936 94.4814 494.018 94.7041 494.018 94.9678C494.018 95.2314 493.936 95.4512 493.771 95.627C493.607 95.8027 493.367 95.8906 493.051 95.8906C492.734 95.8906 492.497 95.8027 492.339 95.627C492.181 95.4512 492.102 95.2314 492.102 94.9678ZM500.469 107.176C499.18 107.176 498.131 106.754 497.322 105.91C496.514 105.061 496.109 103.927 496.109 102.509V102.21C496.109 101.267 496.288 100.426 496.646 99.6875C497.009 98.9434 497.513 98.3633 498.157 97.9473C498.808 97.5254 499.511 97.3145 500.267 97.3145C501.503 97.3145 502.464 97.7217 503.149 98.5361C503.835 99.3506 504.178 100.517 504.178 102.034V102.711H497.735C497.759 103.648 498.031 104.407 498.553 104.987C499.08 105.562 499.748 105.849 500.557 105.849C501.131 105.849 501.617 105.731 502.016 105.497C502.414 105.263 502.763 104.952 503.062 104.565L504.055 105.339C503.258 106.563 502.062 107.176 500.469 107.176ZM500.267 98.6504C499.61 98.6504 499.06 98.8906 498.614 99.3711C498.169 99.8457 497.894 100.514 497.788 101.375H502.552V101.252C502.505 100.426 502.282 99.7871 501.884 99.3359C501.485 98.8789 500.946 98.6504 500.267 98.6504ZM508.273 95.1875V97.4902H510.049V98.7471H508.273V104.645C508.273 105.025 508.353 105.312 508.511 105.506C508.669 105.693 508.938 105.787 509.319 105.787C509.507 105.787 509.765 105.752 510.093 105.682V107C509.665 107.117 509.249 107.176 508.845 107.176C508.118 107.176 507.57 106.956 507.201 106.517C506.832 106.077 506.647 105.453 506.647 104.645V98.7471H504.916V97.4902H506.647V95.1875H508.273ZM513.723 107H512.097V97.4902H513.723V107ZM511.965 94.9678C511.965 94.7041 512.044 94.4814 512.202 94.2998C512.366 94.1182 512.606 94.0273 512.923 94.0273C513.239 94.0273 513.479 94.1182 513.644 94.2998C513.808 94.4814 513.89 94.7041 513.89 94.9678C513.89 95.2314 513.808 95.4512 513.644 95.627C513.479 95.8027 513.239 95.8906 512.923 95.8906C512.606 95.8906 512.366 95.8027 512.202 95.627C512.044 95.4512 511.965 95.2314 511.965 94.9678ZM519.471 104.794L521.826 97.4902H523.487L520.077 107H518.838L515.393 97.4902H517.054L519.471 104.794ZM524.48 102.157C524.48 101.226 524.662 100.388 525.025 99.6436C525.395 98.8994 525.904 98.3252 526.555 97.9209C527.211 97.5166 527.958 97.3145 528.796 97.3145C530.091 97.3145 531.137 97.7627 531.934 98.6592C532.736 99.5557 533.138 100.748 533.138 102.236V102.351C533.138 103.276 532.959 104.108 532.602 104.847C532.25 105.579 531.743 106.15 531.081 106.561C530.425 106.971 529.669 107.176 528.813 107.176C527.524 107.176 526.479 106.728 525.676 105.831C524.879 104.935 524.48 103.748 524.48 102.271V102.157ZM526.115 102.351C526.115 103.405 526.358 104.252 526.845 104.891C527.337 105.529 527.993 105.849 528.813 105.849C529.64 105.849 530.296 105.526 530.782 104.882C531.269 104.231 531.512 103.323 531.512 102.157C531.512 101.114 531.263 100.271 530.765 99.626C530.272 98.9756 529.616 98.6504 528.796 98.6504C527.993 98.6504 527.346 98.9697 526.854 99.6084C526.361 100.247 526.115 101.161 526.115 102.351Z" fill="white"/>
<path d="M403.78 180H402.093V167.203H403.78V180ZM408.157 170.49L408.21 171.686C408.937 170.771 409.886 170.314 411.058 170.314C413.067 170.314 414.081 171.448 414.099 173.716V180H412.473V173.707C412.467 173.021 412.309 172.515 411.998 172.187C411.693 171.858 411.216 171.694 410.565 171.694C410.038 171.694 409.575 171.835 409.177 172.116C408.778 172.397 408.468 172.767 408.245 173.224V180H406.619V170.49H408.157ZM417.351 180V171.747H415.848V170.49H417.351V169.515C417.351 168.495 417.623 167.707 418.168 167.15C418.713 166.594 419.483 166.315 420.479 166.315C420.854 166.315 421.227 166.365 421.596 166.465L421.508 167.783C421.232 167.73 420.939 167.704 420.629 167.704C420.102 167.704 419.694 167.859 419.407 168.17C419.12 168.475 418.977 168.914 418.977 169.488V170.49H421.007V171.747H418.977V180H417.351ZM422.378 175.157C422.378 174.226 422.56 173.388 422.923 172.644C423.292 171.899 423.802 171.325 424.452 170.921C425.108 170.517 425.855 170.314 426.693 170.314C427.988 170.314 429.034 170.763 429.831 171.659C430.634 172.556 431.035 173.748 431.035 175.236V175.351C431.035 176.276 430.856 177.108 430.499 177.847C430.147 178.579 429.641 179.15 428.979 179.561C428.322 179.971 427.566 180.176 426.711 180.176C425.422 180.176 424.376 179.728 423.573 178.831C422.776 177.935 422.378 176.748 422.378 175.271V175.157ZM424.013 175.351C424.013 176.405 424.256 177.252 424.742 177.891C425.234 178.529 425.891 178.849 426.711 178.849C427.537 178.849 428.193 178.526 428.68 177.882C429.166 177.231 429.409 176.323 429.409 175.157C429.409 174.114 429.16 173.271 428.662 172.626C428.17 171.976 427.514 171.65 426.693 171.65C425.891 171.65 425.243 171.97 424.751 172.608C424.259 173.247 424.013 174.161 424.013 175.351ZM437.671 171.949C437.425 171.908 437.158 171.888 436.871 171.888C435.805 171.888 435.081 172.342 434.7 173.25V180H433.074V170.49H434.656L434.683 171.589C435.216 170.739 435.972 170.314 436.95 170.314C437.267 170.314 437.507 170.355 437.671 170.438V171.949ZM440.703 170.49L440.747 171.545C441.444 170.725 442.385 170.314 443.568 170.314C444.898 170.314 445.804 170.824 446.284 171.844C446.601 171.387 447.011 171.018 447.515 170.736C448.024 170.455 448.625 170.314 449.316 170.314C451.402 170.314 452.463 171.419 452.498 173.628V180H450.872V173.725C450.872 173.045 450.717 172.538 450.406 172.204C450.096 171.864 449.574 171.694 448.842 171.694C448.238 171.694 447.737 171.876 447.339 172.239C446.94 172.597 446.709 173.08 446.645 173.689V180H445.01V173.769C445.01 172.386 444.333 171.694 442.979 171.694C441.913 171.694 441.184 172.148 440.791 173.057V180H439.165V170.49H440.703ZM460.83 180C460.736 179.812 460.66 179.479 460.602 178.998C459.846 179.783 458.943 180.176 457.895 180.176C456.957 180.176 456.187 179.912 455.583 179.385C454.985 178.852 454.687 178.178 454.687 177.363C454.687 176.373 455.062 175.605 455.812 175.061C456.567 174.51 457.628 174.234 458.993 174.234H460.575V173.487C460.575 172.919 460.405 172.468 460.065 172.134C459.726 171.794 459.225 171.624 458.562 171.624C457.982 171.624 457.496 171.771 457.104 172.063C456.711 172.356 456.515 172.711 456.515 173.127H454.88C454.88 172.652 455.047 172.195 455.381 171.756C455.721 171.311 456.178 170.959 456.752 170.701C457.332 170.443 457.968 170.314 458.659 170.314C459.755 170.314 460.613 170.59 461.234 171.141C461.855 171.686 462.178 172.438 462.201 173.399V177.776C462.201 178.649 462.312 179.344 462.535 179.859V180H460.83ZM458.132 178.761C458.642 178.761 459.125 178.629 459.582 178.365C460.039 178.102 460.37 177.759 460.575 177.337V175.386H459.301C457.309 175.386 456.312 175.969 456.312 177.135C456.312 177.645 456.482 178.043 456.822 178.33C457.162 178.617 457.599 178.761 458.132 178.761ZM468.564 178.849C469.145 178.849 469.651 178.673 470.085 178.321C470.519 177.97 470.759 177.53 470.806 177.003H472.344C472.314 177.548 472.127 178.066 471.781 178.559C471.436 179.051 470.973 179.443 470.393 179.736C469.818 180.029 469.209 180.176 468.564 180.176C467.27 180.176 466.238 179.745 465.471 178.884C464.709 178.017 464.328 176.833 464.328 175.333V175.061C464.328 174.135 464.498 173.312 464.838 172.591C465.178 171.87 465.664 171.311 466.297 170.912C466.936 170.514 467.688 170.314 468.556 170.314C469.622 170.314 470.507 170.634 471.21 171.272C471.919 171.911 472.297 172.74 472.344 173.76H470.806C470.759 173.145 470.524 172.641 470.103 172.248C469.687 171.85 469.171 171.65 468.556 171.65C467.729 171.65 467.088 171.949 466.631 172.547C466.18 173.139 465.954 173.997 465.954 175.122V175.43C465.954 176.525 466.18 177.369 466.631 177.961C467.082 178.553 467.727 178.849 468.564 178.849ZM475.938 180H474.312V170.49H475.938V180ZM474.181 167.968C474.181 167.704 474.26 167.481 474.418 167.3C474.582 167.118 474.822 167.027 475.139 167.027C475.455 167.027 475.695 167.118 475.859 167.3C476.023 167.481 476.105 167.704 476.105 167.968C476.105 168.231 476.023 168.451 475.859 168.627C475.695 168.803 475.455 168.891 475.139 168.891C474.822 168.891 474.582 168.803 474.418 168.627C474.26 168.451 474.181 168.231 474.181 167.968ZM478.118 175.157C478.118 174.226 478.3 173.388 478.663 172.644C479.032 171.899 479.542 171.325 480.192 170.921C480.849 170.517 481.596 170.314 482.434 170.314C483.729 170.314 484.774 170.763 485.571 171.659C486.374 172.556 486.775 173.748 486.775 175.236V175.351C486.775 176.276 486.597 177.108 486.239 177.847C485.888 178.579 485.381 179.15 484.719 179.561C484.062 179.971 483.307 180.176 482.451 180.176C481.162 180.176 480.116 179.728 479.313 178.831C478.517 177.935 478.118 176.748 478.118 175.271V175.157ZM479.753 175.351C479.753 176.405 479.996 177.252 480.482 177.891C480.975 178.529 481.631 178.849 482.451 178.849C483.277 178.849 483.934 178.526 484.42 177.882C484.906 177.231 485.149 176.323 485.149 175.157C485.149 174.114 484.9 173.271 484.402 172.626C483.91 171.976 483.254 171.65 482.434 171.65C481.631 171.65 480.983 171.97 480.491 172.608C479.999 173.247 479.753 174.161 479.753 175.351ZM483.172 166.5H485.141L482.785 169.084H481.476L483.172 166.5ZM490.353 170.49L490.405 171.686C491.132 170.771 492.081 170.314 493.253 170.314C495.263 170.314 496.276 171.448 496.294 173.716V180H494.668V173.707C494.662 173.021 494.504 172.515 494.193 172.187C493.889 171.858 493.411 171.694 492.761 171.694C492.233 171.694 491.771 171.835 491.372 172.116C490.974 172.397 490.663 172.767 490.44 173.224V180H488.814V170.49H490.353ZM407.226 201.176C405.937 201.176 404.888 200.754 404.079 199.91C403.271 199.061 402.866 197.927 402.866 196.509V196.21C402.866 195.267 403.045 194.426 403.402 193.688C403.766 192.943 404.27 192.363 404.914 191.947C405.564 191.525 406.268 191.314 407.023 191.314C408.26 191.314 409.221 191.722 409.906 192.536C410.592 193.351 410.935 194.517 410.935 196.034V196.711H404.492C404.516 197.648 404.788 198.407 405.31 198.987C405.837 199.562 406.505 199.849 407.313 199.849C407.888 199.849 408.374 199.731 408.772 199.497C409.171 199.263 409.52 198.952 409.818 198.565L410.812 199.339C410.015 200.563 408.819 201.176 407.226 201.176ZM407.023 192.65C406.367 192.65 405.816 192.891 405.371 193.371C404.926 193.846 404.65 194.514 404.545 195.375H409.309V195.252C409.262 194.426 409.039 193.787 408.641 193.336C408.242 192.879 407.703 192.65 407.023 192.65ZM414.362 191.49L414.415 192.686C415.142 191.771 416.091 191.314 417.263 191.314C419.272 191.314 420.286 192.448 420.304 194.716V201H418.678V194.707C418.672 194.021 418.514 193.515 418.203 193.187C417.898 192.858 417.421 192.694 416.771 192.694C416.243 192.694 415.78 192.835 415.382 193.116C414.983 193.397 414.673 193.767 414.45 194.224V201H412.824V191.49H414.362ZM431.035 199.849C431.615 199.849 432.122 199.673 432.556 199.321C432.989 198.97 433.229 198.53 433.276 198.003H434.814C434.785 198.548 434.598 199.066 434.252 199.559C433.906 200.051 433.443 200.443 432.863 200.736C432.289 201.029 431.68 201.176 431.035 201.176C429.74 201.176 428.709 200.745 427.941 199.884C427.18 199.017 426.799 197.833 426.799 196.333V196.061C426.799 195.135 426.969 194.312 427.309 193.591C427.648 192.87 428.135 192.311 428.768 191.912C429.406 191.514 430.159 191.314 431.026 191.314C432.093 191.314 432.978 191.634 433.681 192.272C434.39 192.911 434.768 193.74 434.814 194.76H433.276C433.229 194.145 432.995 193.641 432.573 193.248C432.157 192.85 431.642 192.65 431.026 192.65C430.2 192.65 429.559 192.949 429.102 193.547C428.65 194.139 428.425 194.997 428.425 196.122V196.43C428.425 197.525 428.65 198.369 429.102 198.961C429.553 199.553 430.197 199.849 431.035 199.849ZM436.212 196.157C436.212 195.226 436.394 194.388 436.757 193.644C437.126 192.899 437.636 192.325 438.286 191.921C438.942 191.517 439.689 191.314 440.527 191.314C441.822 191.314 442.868 191.763 443.665 192.659C444.468 193.556 444.869 194.748 444.869 196.236V196.351C444.869 197.276 444.69 198.108 444.333 198.847C443.981 199.579 443.475 200.15 442.812 200.561C442.156 200.971 441.4 201.176 440.545 201.176C439.256 201.176 438.21 200.728 437.407 199.831C436.61 198.935 436.212 197.748 436.212 196.271V196.157ZM437.847 196.351C437.847 197.405 438.09 198.252 438.576 198.891C439.068 199.529 439.725 199.849 440.545 199.849C441.371 199.849 442.027 199.526 442.514 198.882C443 198.231 443.243 197.323 443.243 196.157C443.243 195.114 442.994 194.271 442.496 193.626C442.004 192.976 441.348 192.65 440.527 192.65C439.725 192.65 439.077 192.97 438.585 193.608C438.093 194.247 437.847 195.161 437.847 196.351ZM448.446 191.49L448.499 192.686C449.226 191.771 450.175 191.314 451.347 191.314C453.356 191.314 454.37 192.448 454.388 194.716V201H452.762V194.707C452.756 194.021 452.598 193.515 452.287 193.187C451.982 192.858 451.505 192.694 450.854 192.694C450.327 192.694 449.864 192.835 449.466 193.116C449.067 193.397 448.757 193.767 448.534 194.224V201H446.908V191.49H448.446ZM459.046 189.188V191.49H460.821V192.747H459.046V198.645C459.046 199.025 459.125 199.312 459.283 199.506C459.441 199.693 459.711 199.787 460.092 199.787C460.279 199.787 460.537 199.752 460.865 199.682V201C460.438 201.117 460.021 201.176 459.617 201.176C458.891 201.176 458.343 200.956 457.974 200.517C457.604 200.077 457.42 199.453 457.42 198.645V192.747H455.688V191.49H457.42V189.188H459.046ZM466.675 201.176C465.386 201.176 464.337 200.754 463.528 199.91C462.72 199.061 462.315 197.927 462.315 196.509V196.21C462.315 195.267 462.494 194.426 462.852 193.688C463.215 192.943 463.719 192.363 464.363 191.947C465.014 191.525 465.717 191.314 466.473 191.314C467.709 191.314 468.67 191.722 469.355 192.536C470.041 193.351 470.384 194.517 470.384 196.034V196.711H463.941C463.965 197.648 464.237 198.407 464.759 198.987C465.286 199.562 465.954 199.849 466.763 199.849C467.337 199.849 467.823 199.731 468.222 199.497C468.62 199.263 468.969 198.952 469.268 198.565L470.261 199.339C469.464 200.563 468.269 201.176 466.675 201.176ZM466.473 192.65C465.816 192.65 465.266 192.891 464.82 193.371C464.375 193.846 464.1 194.514 463.994 195.375H468.758V195.252C468.711 194.426 468.488 193.787 468.09 193.336C467.691 192.879 467.152 192.65 466.473 192.65ZM475.464 194.962L477.573 191.49H479.472L476.36 196.192L479.568 201H477.688L475.49 197.44L473.293 201H471.403L474.611 196.192L471.5 191.49H473.381L475.464 194.962ZM483.409 189.188V191.49H485.185V192.747H483.409V198.645C483.409 199.025 483.488 199.312 483.646 199.506C483.805 199.693 484.074 199.787 484.455 199.787C484.643 199.787 484.9 199.752 485.229 199.682V201C484.801 201.117 484.385 201.176 483.98 201.176C483.254 201.176 482.706 200.956 482.337 200.517C481.968 200.077 481.783 199.453 481.783 198.645V192.747H480.052V191.49H481.783V189.188H483.409ZM486.485 196.157C486.485 195.226 486.667 194.388 487.03 193.644C487.399 192.899 487.909 192.325 488.56 191.921C489.216 191.517 489.963 191.314 490.801 191.314C492.096 191.314 493.142 191.763 493.938 192.659C494.741 193.556 495.143 194.748 495.143 196.236V196.351C495.143 197.276 494.964 198.108 494.606 198.847C494.255 199.579 493.748 200.15 493.086 200.561C492.43 200.971 491.674 201.176 490.818 201.176C489.529 201.176 488.483 200.728 487.681 199.831C486.884 198.935 486.485 197.748 486.485 196.271V196.157ZM488.12 196.351C488.12 197.405 488.363 198.252 488.85 198.891C489.342 199.529 489.998 199.849 490.818 199.849C491.645 199.849 492.301 199.526 492.787 198.882C493.273 198.231 493.517 197.323 493.517 196.157C493.517 195.114 493.268 194.271 492.77 193.626C492.277 192.976 491.621 192.65 490.801 192.65C489.998 192.65 489.351 192.97 488.858 193.608C488.366 194.247 488.12 195.161 488.12 196.351Z" fill="white"/>
<path d="M407.779 274V261.203H411.392C412.505 261.203 413.489 261.449 414.345 261.941C415.2 262.434 415.859 263.134 416.322 264.042C416.791 264.95 417.028 265.993 417.034 267.171V267.988C417.034 269.195 416.8 270.253 416.331 271.161C415.868 272.069 415.203 272.767 414.336 273.253C413.475 273.739 412.47 273.988 411.321 274H407.779ZM409.467 262.592V272.62H411.242C412.543 272.62 413.554 272.216 414.274 271.407C415.001 270.599 415.364 269.447 415.364 267.953V267.206C415.364 265.753 415.021 264.625 414.336 263.822C413.656 263.014 412.689 262.604 411.436 262.592H409.467ZM425.208 274C425.114 273.812 425.038 273.479 424.979 272.998C424.224 273.783 423.321 274.176 422.272 274.176C421.335 274.176 420.564 273.912 419.961 273.385C419.363 272.852 419.064 272.178 419.064 271.363C419.064 270.373 419.439 269.605 420.189 269.061C420.945 268.51 422.006 268.234 423.371 268.234H424.953V267.487C424.953 266.919 424.783 266.468 424.443 266.134C424.104 265.794 423.603 265.624 422.94 265.624C422.36 265.624 421.874 265.771 421.481 266.063C421.089 266.356 420.893 266.711 420.893 267.127H419.258C419.258 266.652 419.425 266.195 419.759 265.756C420.099 265.311 420.556 264.959 421.13 264.701C421.71 264.443 422.346 264.314 423.037 264.314C424.133 264.314 424.991 264.59 425.612 265.141C426.233 265.686 426.556 266.438 426.579 267.399V271.776C426.579 272.649 426.69 273.344 426.913 273.859V274H425.208ZM422.51 272.761C423.02 272.761 423.503 272.629 423.96 272.365C424.417 272.102 424.748 271.759 424.953 271.337V269.386H423.679C421.687 269.386 420.69 269.969 420.69 271.135C420.69 271.645 420.86 272.043 421.2 272.33C421.54 272.617 421.977 272.761 422.51 272.761ZM431.334 262.188V264.49H433.109V265.747H431.334V271.645C431.334 272.025 431.413 272.312 431.571 272.506C431.729 272.693 431.999 272.787 432.38 272.787C432.567 272.787 432.825 272.752 433.153 272.682V274C432.726 274.117 432.31 274.176 431.905 274.176C431.179 274.176 430.631 273.956 430.262 273.517C429.893 273.077 429.708 272.453 429.708 271.645V265.747H427.977V264.49H429.708V262.188H431.334ZM434.41 269.157C434.41 268.226 434.592 267.388 434.955 266.644C435.324 265.899 435.834 265.325 436.484 264.921C437.141 264.517 437.888 264.314 438.726 264.314C440.021 264.314 441.066 264.763 441.863 265.659C442.666 266.556 443.067 267.748 443.067 269.236V269.351C443.067 270.276 442.889 271.108 442.531 271.847C442.18 272.579 441.673 273.15 441.011 273.561C440.354 273.971 439.599 274.176 438.743 274.176C437.454 274.176 436.408 273.728 435.605 272.831C434.809 271.935 434.41 270.748 434.41 269.271V269.157ZM436.045 269.351C436.045 270.405 436.288 271.252 436.774 271.891C437.267 272.529 437.923 272.849 438.743 272.849C439.569 272.849 440.226 272.526 440.712 271.882C441.198 271.231 441.441 270.323 441.441 269.157C441.441 268.114 441.192 267.271 440.694 266.626C440.202 265.976 439.546 265.65 438.726 265.65C437.923 265.65 437.275 265.97 436.783 266.608C436.291 267.247 436.045 268.161 436.045 269.351ZM450.644 271.478C450.644 271.038 450.477 270.698 450.143 270.458C449.814 270.212 449.237 270.001 448.411 269.825C447.591 269.649 446.938 269.438 446.451 269.192C445.971 268.946 445.613 268.653 445.379 268.313C445.15 267.974 445.036 267.569 445.036 267.101C445.036 266.321 445.364 265.662 446.021 265.123C446.683 264.584 447.526 264.314 448.552 264.314C449.63 264.314 450.503 264.593 451.171 265.149C451.845 265.706 452.182 266.418 452.182 267.285H450.547C450.547 266.84 450.356 266.456 449.976 266.134C449.601 265.812 449.126 265.65 448.552 265.65C447.96 265.65 447.497 265.779 447.163 266.037C446.829 266.295 446.662 266.632 446.662 267.048C446.662 267.44 446.817 267.736 447.128 267.936C447.438 268.135 447.998 268.325 448.807 268.507C449.621 268.688 450.28 268.905 450.784 269.157C451.288 269.409 451.66 269.714 451.9 270.071C452.146 270.423 452.27 270.854 452.27 271.363C452.27 272.213 451.93 272.896 451.25 273.411C450.57 273.921 449.688 274.176 448.604 274.176C447.843 274.176 447.169 274.041 446.583 273.771C445.997 273.502 445.537 273.127 445.203 272.646C444.875 272.16 444.711 271.636 444.711 271.073H446.337C446.366 271.618 446.583 272.052 446.987 272.374C447.397 272.69 447.937 272.849 448.604 272.849C449.22 272.849 449.712 272.726 450.081 272.479C450.456 272.228 450.644 271.894 450.644 271.478ZM462.667 272.849C463.247 272.849 463.754 272.673 464.188 272.321C464.621 271.97 464.861 271.53 464.908 271.003H466.446C466.417 271.548 466.229 272.066 465.884 272.559C465.538 273.051 465.075 273.443 464.495 273.736C463.921 274.029 463.312 274.176 462.667 274.176C461.372 274.176 460.341 273.745 459.573 272.884C458.812 272.017 458.431 270.833 458.431 269.333V269.061C458.431 268.135 458.601 267.312 458.94 266.591C459.28 265.87 459.767 265.311 460.399 264.912C461.038 264.514 461.791 264.314 462.658 264.314C463.725 264.314 464.609 264.634 465.312 265.272C466.021 265.911 466.399 266.74 466.446 267.76H464.908C464.861 267.145 464.627 266.641 464.205 266.248C463.789 265.85 463.273 265.65 462.658 265.65C461.832 265.65 461.19 265.949 460.733 266.547C460.282 267.139 460.057 267.997 460.057 269.122V269.43C460.057 270.525 460.282 271.369 460.733 271.961C461.185 272.553 461.829 272.849 462.667 272.849ZM467.844 269.157C467.844 268.226 468.025 267.388 468.389 266.644C468.758 265.899 469.268 265.325 469.918 264.921C470.574 264.517 471.321 264.314 472.159 264.314C473.454 264.314 474.5 264.763 475.297 265.659C476.1 266.556 476.501 267.748 476.501 269.236V269.351C476.501 270.276 476.322 271.108 475.965 271.847C475.613 272.579 475.106 273.15 474.444 273.561C473.788 273.971 473.032 274.176 472.177 274.176C470.888 274.176 469.842 273.728 469.039 272.831C468.242 271.935 467.844 270.748 467.844 269.271V269.157ZM469.479 269.351C469.479 270.405 469.722 271.252 470.208 271.891C470.7 272.529 471.356 272.849 472.177 272.849C473.003 272.849 473.659 272.526 474.146 271.882C474.632 271.231 474.875 270.323 474.875 269.157C474.875 268.114 474.626 267.271 474.128 266.626C473.636 265.976 472.979 265.65 472.159 265.65C471.356 265.65 470.709 265.97 470.217 266.608C469.725 267.247 469.479 268.161 469.479 269.351ZM480.078 264.49L480.131 265.686C480.857 264.771 481.807 264.314 482.979 264.314C484.988 264.314 486.002 265.448 486.02 267.716V274H484.394V267.707C484.388 267.021 484.229 266.515 483.919 266.187C483.614 265.858 483.137 265.694 482.486 265.694C481.959 265.694 481.496 265.835 481.098 266.116C480.699 266.397 480.389 266.767 480.166 267.224V274H478.54V264.49H480.078ZM411.928 292.478C411.928 292.038 411.761 291.698 411.427 291.458C411.099 291.212 410.521 291.001 409.695 290.825C408.875 290.649 408.222 290.438 407.735 290.192C407.255 289.946 406.897 289.653 406.663 289.313C406.435 288.974 406.32 288.569 406.32 288.101C406.32 287.321 406.648 286.662 407.305 286.123C407.967 285.584 408.811 285.314 409.836 285.314C410.914 285.314 411.787 285.593 412.455 286.149C413.129 286.706 413.466 287.418 413.466 288.285H411.831C411.831 287.84 411.641 287.456 411.26 287.134C410.885 286.812 410.41 286.65 409.836 286.65C409.244 286.65 408.781 286.779 408.447 287.037C408.113 287.295 407.946 287.632 407.946 288.048C407.946 288.44 408.102 288.736 408.412 288.936C408.723 289.135 409.282 289.325 410.091 289.507C410.905 289.688 411.564 289.905 412.068 290.157C412.572 290.409 412.944 290.714 413.185 291.071C413.431 291.423 413.554 291.854 413.554 292.363C413.554 293.213 413.214 293.896 412.534 294.411C411.854 294.921 410.973 295.176 409.889 295.176C409.127 295.176 408.453 295.041 407.867 294.771C407.281 294.502 406.821 294.127 406.487 293.646C406.159 293.16 405.995 292.636 405.995 292.073H407.621C407.65 292.618 407.867 293.052 408.271 293.374C408.682 293.69 409.221 293.849 409.889 293.849C410.504 293.849 410.996 293.726 411.365 293.479C411.74 293.228 411.928 292.894 411.928 292.478ZM417.438 295H415.812V285.49H417.438V295ZM415.681 282.968C415.681 282.704 415.76 282.481 415.918 282.3C416.082 282.118 416.322 282.027 416.639 282.027C416.955 282.027 417.195 282.118 417.359 282.3C417.523 282.481 417.605 282.704 417.605 282.968C417.605 283.231 417.523 283.451 417.359 283.627C417.195 283.803 416.955 283.891 416.639 283.891C416.322 283.891 416.082 283.803 415.918 283.627C415.76 283.451 415.681 283.231 415.681 282.968ZM419.662 290.166C419.662 288.684 420.005 287.506 420.69 286.633C421.376 285.754 422.284 285.314 423.415 285.314C424.575 285.314 425.48 285.725 426.131 286.545L426.21 285.49H427.695V294.771C427.695 296.002 427.329 296.972 426.597 297.681C425.87 298.39 424.892 298.744 423.661 298.744C422.976 298.744 422.305 298.598 421.648 298.305C420.992 298.012 420.491 297.61 420.146 297.101L420.989 296.125C421.687 296.986 422.539 297.417 423.547 297.417C424.338 297.417 424.953 297.194 425.393 296.749C425.838 296.304 426.061 295.677 426.061 294.868V294.051C425.41 294.801 424.522 295.176 423.397 295.176C422.284 295.176 421.382 294.728 420.69 293.831C420.005 292.935 419.662 291.713 419.662 290.166ZM421.297 290.351C421.297 291.423 421.517 292.267 421.956 292.882C422.396 293.491 423.011 293.796 423.802 293.796C424.827 293.796 425.58 293.33 426.061 292.398V288.057C425.562 287.148 424.815 286.694 423.819 286.694C423.028 286.694 422.41 287.002 421.965 287.617C421.52 288.232 421.297 289.144 421.297 290.351ZM431.694 285.49L431.747 286.686C432.474 285.771 433.423 285.314 434.595 285.314C436.604 285.314 437.618 286.448 437.636 288.716V295H436.01V288.707C436.004 288.021 435.846 287.515 435.535 287.187C435.23 286.858 434.753 286.694 434.103 286.694C433.575 286.694 433.112 286.835 432.714 287.116C432.315 287.397 432.005 287.767 431.782 288.224V295H430.156V285.49H431.694ZM441.854 295H440.229V285.49H441.854V295ZM440.097 282.968C440.097 282.704 440.176 282.481 440.334 282.3C440.498 282.118 440.738 282.027 441.055 282.027C441.371 282.027 441.611 282.118 441.775 282.3C441.939 282.481 442.021 282.704 442.021 282.968C442.021 283.231 441.939 283.451 441.775 283.627C441.611 283.803 441.371 283.891 441.055 283.891C440.738 283.891 440.498 283.803 440.334 283.627C440.176 283.451 440.097 283.231 440.097 282.968ZM445.01 295V286.747H443.507V285.49H445.01V284.682C445.01 283.621 445.312 282.795 445.915 282.203C446.524 281.611 447.383 281.315 448.49 281.315C449.146 281.315 449.976 281.494 450.978 281.852L450.705 283.223C449.973 282.93 449.275 282.783 448.613 282.783C447.916 282.783 447.412 282.941 447.102 283.258C446.797 283.568 446.645 284.037 446.645 284.664V285.49H448.587V286.747H446.645V295H445.01ZM451.786 295H450.151V285.49H451.786V295ZM458.246 293.849C458.826 293.849 459.333 293.673 459.767 293.321C460.2 292.97 460.44 292.53 460.487 292.003H462.025C461.996 292.548 461.809 293.066 461.463 293.559C461.117 294.051 460.654 294.443 460.074 294.736C459.5 295.029 458.891 295.176 458.246 295.176C456.951 295.176 455.92 294.745 455.152 293.884C454.391 293.017 454.01 291.833 454.01 290.333V290.061C454.01 289.135 454.18 288.312 454.52 287.591C454.859 286.87 455.346 286.311 455.979 285.912C456.617 285.514 457.37 285.314 458.237 285.314C459.304 285.314 460.188 285.634 460.892 286.272C461.601 286.911 461.979 287.74 462.025 288.76H460.487C460.44 288.145 460.206 287.641 459.784 287.248C459.368 286.85 458.853 286.65 458.237 286.65C457.411 286.65 456.77 286.949 456.312 287.547C455.861 288.139 455.636 288.997 455.636 290.122V290.43C455.636 291.525 455.861 292.369 456.312 292.961C456.764 293.553 457.408 293.849 458.246 293.849ZM469.725 295C469.631 294.812 469.555 294.479 469.496 293.998C468.74 294.783 467.838 295.176 466.789 295.176C465.852 295.176 465.081 294.912 464.478 294.385C463.88 293.852 463.581 293.178 463.581 292.363C463.581 291.373 463.956 290.605 464.706 290.061C465.462 289.51 466.522 289.234 467.888 289.234H469.47V288.487C469.47 287.919 469.3 287.468 468.96 287.134C468.62 286.794 468.119 286.624 467.457 286.624C466.877 286.624 466.391 286.771 465.998 287.063C465.605 287.356 465.409 287.711 465.409 288.127H463.774C463.774 287.652 463.941 287.195 464.275 286.756C464.615 286.311 465.072 285.959 465.646 285.701C466.227 285.443 466.862 285.314 467.554 285.314C468.649 285.314 469.508 285.59 470.129 286.141C470.75 286.686 471.072 287.438 471.096 288.399V292.776C471.096 293.649 471.207 294.344 471.43 294.859V295H469.725ZM467.026 293.761C467.536 293.761 468.02 293.629 468.477 293.365C468.934 293.102 469.265 292.759 469.47 292.337V290.386H468.195C466.203 290.386 465.207 290.969 465.207 292.135C465.207 292.645 465.377 293.043 465.717 293.33C466.057 293.617 466.493 293.761 467.026 293.761ZM473.249 290.166C473.249 288.707 473.595 287.535 474.286 286.65C474.978 285.76 475.883 285.314 477.002 285.314C478.115 285.314 478.997 285.695 479.647 286.457V281.5H481.273V295H479.779L479.7 293.98C479.05 294.777 478.145 295.176 476.984 295.176C475.883 295.176 474.983 294.725 474.286 293.822C473.595 292.92 473.249 291.742 473.249 290.289V290.166ZM474.875 290.351C474.875 291.429 475.098 292.272 475.543 292.882C475.988 293.491 476.604 293.796 477.389 293.796C478.42 293.796 479.173 293.333 479.647 292.407V288.039C479.161 287.143 478.414 286.694 477.406 286.694C476.609 286.694 475.988 287.002 475.543 287.617C475.098 288.232 474.875 289.144 474.875 290.351ZM483.374 290.157C483.374 289.226 483.556 288.388 483.919 287.644C484.288 286.899 484.798 286.325 485.448 285.921C486.104 285.517 486.852 285.314 487.689 285.314C488.984 285.314 490.03 285.763 490.827 286.659C491.63 287.556 492.031 288.748 492.031 290.236V290.351C492.031 291.276 491.853 292.108 491.495 292.847C491.144 293.579 490.637 294.15 489.975 294.561C489.318 294.971 488.562 295.176 487.707 295.176C486.418 295.176 485.372 294.728 484.569 293.831C483.772 292.935 483.374 291.748 483.374 290.271V290.157ZM485.009 290.351C485.009 291.405 485.252 292.252 485.738 292.891C486.23 293.529 486.887 293.849 487.707 293.849C488.533 293.849 489.189 293.526 489.676 292.882C490.162 292.231 490.405 291.323 490.405 290.157C490.405 289.114 490.156 288.271 489.658 287.626C489.166 286.976 488.51 286.65 487.689 286.65C486.887 286.65 486.239 286.97 485.747 287.608C485.255 288.247 485.009 289.161 485.009 290.351Z" fill="white"/>
<path d="M363.263 366H361.575V353.203H363.263V366ZM367.64 356.49L367.692 357.686C368.419 356.771 369.368 356.314 370.54 356.314C372.55 356.314 373.563 357.448 373.581 359.716V366H371.955V359.707C371.949 359.021 371.791 358.515 371.48 358.187C371.176 357.858 370.698 357.694 370.048 357.694C369.521 357.694 369.058 357.835 368.659 358.116C368.261 358.397 367.95 358.767 367.728 359.224V366H366.102V356.49H367.64ZM381.57 363.478C381.57 363.038 381.403 362.698 381.069 362.458C380.741 362.212 380.164 362.001 379.338 361.825C378.518 361.649 377.864 361.438 377.378 361.192C376.897 360.946 376.54 360.653 376.306 360.313C376.077 359.974 375.963 359.569 375.963 359.101C375.963 358.321 376.291 357.662 376.947 357.123C377.609 356.584 378.453 356.314 379.479 356.314C380.557 356.314 381.43 356.593 382.098 357.149C382.771 357.706 383.108 358.418 383.108 359.285H381.474C381.474 358.84 381.283 358.456 380.902 358.134C380.527 357.812 380.053 357.65 379.479 357.65C378.887 357.65 378.424 357.779 378.09 358.037C377.756 358.295 377.589 358.632 377.589 359.048C377.589 359.44 377.744 359.736 378.055 359.936C378.365 360.135 378.925 360.325 379.733 360.507C380.548 360.688 381.207 360.905 381.711 361.157C382.215 361.409 382.587 361.714 382.827 362.071C383.073 362.423 383.196 362.854 383.196 363.363C383.196 364.213 382.856 364.896 382.177 365.411C381.497 365.921 380.615 366.176 379.531 366.176C378.77 366.176 378.096 366.041 377.51 365.771C376.924 365.502 376.464 365.127 376.13 364.646C375.802 364.16 375.638 363.636 375.638 363.073H377.264C377.293 363.618 377.51 364.052 377.914 364.374C378.324 364.69 378.863 364.849 379.531 364.849C380.146 364.849 380.639 364.726 381.008 364.479C381.383 364.228 381.57 363.894 381.57 363.478ZM391.186 365.06C390.553 365.804 389.624 366.176 388.399 366.176C387.386 366.176 386.612 365.883 386.079 365.297C385.552 364.705 385.285 363.832 385.279 362.678V356.49H386.905V362.634C386.905 364.075 387.491 364.796 388.663 364.796C389.905 364.796 390.731 364.333 391.142 363.407V356.49H392.768V366H391.221L391.186 365.06ZM396.775 356.49L396.819 357.545C397.517 356.725 398.457 356.314 399.641 356.314C400.971 356.314 401.876 356.824 402.356 357.844C402.673 357.387 403.083 357.018 403.587 356.736C404.097 356.455 404.697 356.314 405.389 356.314C407.475 356.314 408.535 357.419 408.57 359.628V366H406.944V359.725C406.944 359.045 406.789 358.538 406.479 358.204C406.168 357.864 405.646 357.694 404.914 357.694C404.311 357.694 403.81 357.876 403.411 358.239C403.013 358.597 402.781 359.08 402.717 359.689V366H401.082V359.769C401.082 358.386 400.405 357.694 399.052 357.694C397.985 357.694 397.256 358.148 396.863 359.057V366H395.237V356.49H396.775ZM410.601 361.157C410.601 360.226 410.782 359.388 411.146 358.644C411.515 357.899 412.024 357.325 412.675 356.921C413.331 356.517 414.078 356.314 414.916 356.314C416.211 356.314 417.257 356.763 418.054 357.659C418.856 358.556 419.258 359.748 419.258 361.236V361.351C419.258 362.276 419.079 363.108 418.722 363.847C418.37 364.579 417.863 365.15 417.201 365.561C416.545 365.971 415.789 366.176 414.934 366.176C413.645 366.176 412.599 365.728 411.796 364.831C410.999 363.935 410.601 362.748 410.601 361.271V361.157ZM412.235 361.351C412.235 362.405 412.479 363.252 412.965 363.891C413.457 364.529 414.113 364.849 414.934 364.849C415.76 364.849 416.416 364.526 416.902 363.882C417.389 363.231 417.632 362.323 417.632 361.157C417.632 360.114 417.383 359.271 416.885 358.626C416.393 357.976 415.736 357.65 414.916 357.65C414.113 357.65 413.466 357.97 412.974 358.608C412.481 359.247 412.235 360.161 412.235 361.351ZM426.834 363.478C426.834 363.038 426.667 362.698 426.333 362.458C426.005 362.212 425.428 362.001 424.602 361.825C423.781 361.649 423.128 361.438 422.642 361.192C422.161 360.946 421.804 360.653 421.569 360.313C421.341 359.974 421.227 359.569 421.227 359.101C421.227 358.321 421.555 357.662 422.211 357.123C422.873 356.584 423.717 356.314 424.742 356.314C425.82 356.314 426.693 356.593 427.361 357.149C428.035 357.706 428.372 358.418 428.372 359.285H426.737C426.737 358.84 426.547 358.456 426.166 358.134C425.791 357.812 425.316 357.65 424.742 357.65C424.15 357.65 423.688 357.779 423.354 358.037C423.02 358.295 422.853 358.632 422.853 359.048C422.853 359.44 423.008 359.736 423.318 359.936C423.629 360.135 424.188 360.325 424.997 360.507C425.812 360.688 426.471 360.905 426.975 361.157C427.479 361.409 427.851 361.714 428.091 362.071C428.337 362.423 428.46 362.854 428.46 363.363C428.46 364.213 428.12 364.896 427.44 365.411C426.761 365.921 425.879 366.176 424.795 366.176C424.033 366.176 423.359 366.041 422.773 365.771C422.188 365.502 421.728 365.127 421.394 364.646C421.065 364.16 420.901 363.636 420.901 363.073H422.527C422.557 363.618 422.773 364.052 423.178 364.374C423.588 364.69 424.127 364.849 424.795 364.849C425.41 364.849 425.902 364.726 426.271 364.479C426.646 364.228 426.834 363.894 426.834 363.478ZM434.647 361.166C434.647 359.707 434.993 358.535 435.685 357.65C436.376 356.76 437.281 356.314 438.4 356.314C439.514 356.314 440.396 356.695 441.046 357.457V352.5H442.672V366H441.178L441.099 364.98C440.448 365.777 439.543 366.176 438.383 366.176C437.281 366.176 436.382 365.725 435.685 364.822C434.993 363.92 434.647 362.742 434.647 361.289V361.166ZM436.273 361.351C436.273 362.429 436.496 363.272 436.941 363.882C437.387 364.491 438.002 364.796 438.787 364.796C439.818 364.796 440.571 364.333 441.046 363.407V359.039C440.56 358.143 439.812 357.694 438.805 357.694C438.008 357.694 437.387 358.002 436.941 358.617C436.496 359.232 436.273 360.144 436.273 361.351ZM449.149 366.176C447.86 366.176 446.812 365.754 446.003 364.91C445.194 364.061 444.79 362.927 444.79 361.509V361.21C444.79 360.267 444.969 359.426 445.326 358.688C445.689 357.943 446.193 357.363 446.838 356.947C447.488 356.525 448.191 356.314 448.947 356.314C450.184 356.314 451.145 356.722 451.83 357.536C452.516 358.351 452.858 359.517 452.858 361.034V361.711H446.416C446.439 362.648 446.712 363.407 447.233 363.987C447.761 364.562 448.429 364.849 449.237 364.849C449.812 364.849 450.298 364.731 450.696 364.497C451.095 364.263 451.443 363.952 451.742 363.565L452.735 364.339C451.938 365.563 450.743 366.176 449.149 366.176ZM448.947 357.65C448.291 357.65 447.74 357.891 447.295 358.371C446.85 358.846 446.574 359.514 446.469 360.375H451.232V360.252C451.186 359.426 450.963 358.787 450.564 358.336C450.166 357.879 449.627 357.65 448.947 357.65ZM463.81 357.949C463.563 357.908 463.297 357.888 463.01 357.888C461.943 357.888 461.22 358.342 460.839 359.25V366H459.213V356.49H460.795L460.821 357.589C461.354 356.739 462.11 356.314 463.089 356.314C463.405 356.314 463.646 356.355 463.81 356.438V357.949ZM469.083 366.176C467.794 366.176 466.745 365.754 465.937 364.91C465.128 364.061 464.724 362.927 464.724 361.509V361.21C464.724 360.267 464.902 359.426 465.26 358.688C465.623 357.943 466.127 357.363 466.771 356.947C467.422 356.525 468.125 356.314 468.881 356.314C470.117 356.314 471.078 356.722 471.764 357.536C472.449 358.351 472.792 359.517 472.792 361.034V361.711H466.35C466.373 362.648 466.646 363.407 467.167 363.987C467.694 364.562 468.362 364.849 469.171 364.849C469.745 364.849 470.231 364.731 470.63 364.497C471.028 364.263 471.377 363.952 471.676 363.565L472.669 364.339C471.872 365.563 470.677 366.176 469.083 366.176ZM468.881 357.65C468.225 357.65 467.674 357.891 467.229 358.371C466.783 358.846 466.508 359.514 466.402 360.375H471.166V360.252C471.119 359.426 470.896 358.787 470.498 358.336C470.1 357.879 469.561 357.65 468.881 357.65ZM475.481 366V357.747H473.979V356.49H475.481V355.515C475.481 354.495 475.754 353.707 476.299 353.15C476.844 352.594 477.614 352.315 478.61 352.315C478.985 352.315 479.357 352.365 479.727 352.465L479.639 353.783C479.363 353.73 479.07 353.704 478.76 353.704C478.232 353.704 477.825 353.859 477.538 354.17C477.251 354.475 477.107 354.914 477.107 355.488V356.49H479.138V357.747H477.107V366H475.481ZM484.675 366.176C483.386 366.176 482.337 365.754 481.528 364.91C480.72 364.061 480.315 362.927 480.315 361.509V361.21C480.315 360.267 480.494 359.426 480.852 358.688C481.215 357.943 481.719 357.363 482.363 356.947C483.014 356.525 483.717 356.314 484.473 356.314C485.709 356.314 486.67 356.722 487.355 357.536C488.041 358.351 488.384 359.517 488.384 361.034V361.711H481.941C481.965 362.648 482.237 363.407 482.759 363.987C483.286 364.562 483.954 364.849 484.763 364.849C485.337 364.849 485.823 364.731 486.222 364.497C486.62 364.263 486.969 363.952 487.268 363.565L488.261 364.339C487.464 365.563 486.269 366.176 484.675 366.176ZM484.473 357.65C483.816 357.65 483.266 357.891 482.82 358.371C482.375 358.846 482.1 359.514 481.994 360.375H486.758V360.252C486.711 359.426 486.488 358.787 486.09 358.336C485.691 357.879 485.152 357.65 484.473 357.65ZM494.87 357.949C494.624 357.908 494.357 357.888 494.07 357.888C493.004 357.888 492.28 358.342 491.899 359.25V366H490.273V356.49H491.855L491.882 357.589C492.415 356.739 493.171 356.314 494.149 356.314C494.466 356.314 494.706 356.355 494.87 356.438V357.949ZM500.144 366.176C498.854 366.176 497.806 365.754 496.997 364.91C496.188 364.061 495.784 362.927 495.784 361.509V361.21C495.784 360.267 495.963 359.426 496.32 358.688C496.684 357.943 497.188 357.363 497.832 356.947C498.482 356.525 499.186 356.314 499.941 356.314C501.178 356.314 502.139 356.722 502.824 357.536C503.51 358.351 503.853 359.517 503.853 361.034V361.711H497.41C497.434 362.648 497.706 363.407 498.228 363.987C498.755 364.562 499.423 364.849 500.231 364.849C500.806 364.849 501.292 364.731 501.69 364.497C502.089 364.263 502.438 363.952 502.736 363.565L503.729 364.339C502.933 365.563 501.737 366.176 500.144 366.176ZM499.941 357.65C499.285 357.65 498.734 357.891 498.289 358.371C497.844 358.846 497.568 359.514 497.463 360.375H502.227V360.252C502.18 359.426 501.957 358.787 501.559 358.336C501.16 357.879 500.621 357.65 499.941 357.65ZM507.28 356.49L507.333 357.686C508.06 356.771 509.009 356.314 510.181 356.314C512.19 356.314 513.204 357.448 513.222 359.716V366H511.596V359.707C511.59 359.021 511.432 358.515 511.121 358.187C510.816 357.858 510.339 357.694 509.688 357.694C509.161 357.694 508.698 357.835 508.3 358.116C507.901 358.397 507.591 358.767 507.368 359.224V366H505.742V356.49H507.28ZM519.488 364.849C520.068 364.849 520.575 364.673 521.009 364.321C521.442 363.97 521.683 363.53 521.729 363.003H523.268C523.238 363.548 523.051 364.066 522.705 364.559C522.359 365.051 521.896 365.443 521.316 365.736C520.742 366.029 520.133 366.176 519.488 366.176C518.193 366.176 517.162 365.745 516.395 364.884C515.633 364.017 515.252 362.833 515.252 361.333V361.061C515.252 360.135 515.422 359.312 515.762 358.591C516.102 357.87 516.588 357.311 517.221 356.912C517.859 356.514 518.612 356.314 519.479 356.314C520.546 356.314 521.431 356.634 522.134 357.272C522.843 357.911 523.221 358.74 523.268 359.76H521.729C521.683 359.145 521.448 358.641 521.026 358.248C520.61 357.85 520.095 357.65 519.479 357.65C518.653 357.65 518.012 357.949 517.555 358.547C517.104 359.139 516.878 359.997 516.878 361.122V361.43C516.878 362.525 517.104 363.369 517.555 363.961C518.006 364.553 518.65 364.849 519.488 364.849ZM526.862 366H525.236V356.49H526.862V366ZM525.104 353.968C525.104 353.704 525.184 353.481 525.342 353.3C525.506 353.118 525.746 353.027 526.062 353.027C526.379 353.027 526.619 353.118 526.783 353.3C526.947 353.481 527.029 353.704 527.029 353.968C527.029 354.231 526.947 354.451 526.783 354.627C526.619 354.803 526.379 354.891 526.062 354.891C525.746 354.891 525.506 354.803 525.342 354.627C525.184 354.451 525.104 354.231 525.104 353.968ZM535.344 366C535.25 365.812 535.174 365.479 535.115 364.998C534.359 365.783 533.457 366.176 532.408 366.176C531.471 366.176 530.7 365.912 530.097 365.385C529.499 364.852 529.2 364.178 529.2 363.363C529.2 362.373 529.575 361.605 530.325 361.061C531.081 360.51 532.142 360.234 533.507 360.234H535.089V359.487C535.089 358.919 534.919 358.468 534.579 358.134C534.239 357.794 533.738 357.624 533.076 357.624C532.496 357.624 532.01 357.771 531.617 358.063C531.225 358.356 531.028 358.711 531.028 359.127H529.394C529.394 358.652 529.561 358.195 529.895 357.756C530.234 357.311 530.691 356.959 531.266 356.701C531.846 356.443 532.481 356.314 533.173 356.314C534.269 356.314 535.127 356.59 535.748 357.141C536.369 357.686 536.691 358.438 536.715 359.399V363.776C536.715 364.649 536.826 365.344 537.049 365.859V366H535.344ZM532.646 364.761C533.155 364.761 533.639 364.629 534.096 364.365C534.553 364.102 534.884 363.759 535.089 363.337V361.386H533.814C531.822 361.386 530.826 361.969 530.826 363.135C530.826 363.645 530.996 364.043 531.336 364.33C531.676 364.617 532.112 364.761 532.646 364.761Z" fill="white"/>
<path d="M232.06 51.66L295.9 2.69995" stroke="#2380B0" stroke-width="5" stroke-miterlimit="10"/>
<path d="M232.06 51.66L226.42 6.53995L295.9 2.69995L273.82 68.46L232.06 51.66Z" stroke="#2380B0" stroke-width="5" stroke-miterlimit="10"/>
<path d="M12.5801 337.13L150.46 412.73L289.42 337.13L276.46 302.2L151 370.25L26.9801 302.2L12.5801 337.13Z" stroke="white" stroke-width="5" stroke-miterlimit="10"/>
<path d="M151 370.24L150.46 412.72" stroke="white" stroke-width="5" stroke-miterlimit="10"/>
<path d="M26.8901 301.05L151 244.13L276.46 300.76" stroke="white" stroke-width="5" stroke-miterlimit="10"/>
<path d="M77.02 302.2L151 343.25L226.42 302.2L151.72 265.49L77.02 302.2Z" stroke="white" stroke-width="5" stroke-miterlimit="10"/>
<path d="M88.8198 246.4L4.33984 153.28L23.5398 131.2L132.5 120.64L210.74 192.29V223.36L88.8198 246.4Z" stroke="#2380B0" stroke-width="5" stroke-miterlimit="10"/>
<path d="M23.54 131.2L100.34 213.28L210.74 192.29" stroke="#2380B0" stroke-width="5" stroke-miterlimit="10"/>
<path d="M88.8198 246.4L100.34 213.28" stroke="#2380B0" stroke-width="5" stroke-miterlimit="10"/>
<path d="M107.54 194.56L62.8999 143.2L126.74 136L173.3 180.55L107.54 194.56Z" stroke="#2380B0" stroke-width="5" stroke-miterlimit="10"/>
<path d="M136.34 108.46L107.54 37.8999L121.94 27.8199L187.22 44.6199L217.46 101.26L213.14 119.5L136.34 108.46Z" stroke="white" stroke-width="5" stroke-miterlimit="10"/>
<path d="M121.94 27.8199L149.3 91.66L217.46 101.26" stroke="white" stroke-width="5" stroke-miterlimit="10"/>
<path d="M136.34 108.46L149.3 91.6599" stroke="white" stroke-width="5" stroke-miterlimit="10"/>
<path d="M157.94 82.0599L142.82 42.2199L181.46 52.2999L198.26 86.3799L157.94 82.0599Z" stroke="white" stroke-width="5" stroke-miterlimit="10"/>
</svg>
