<?xml version="1.0" encoding="utf-8"?>
<!-- Generator: Adobe Illustrator 26.0.1, SVG Export Plug-In . SVG Version: 6.00 Build 0)  -->
<svg version="1.1" id="Capa_1" xmlns="http://www.w3.org/2000/svg" xmlns:xlink="http://www.w3.org/1999/xlink" x="0px" y="0px"
	 viewBox="0 0 86 64" style="enable-background:new 0 0 86 64;" xml:space="preserve">
<style type="text/css">
	.st0{fill:#FFFFFF;filter:url(#Adobe_OpacityMaskFilter);}
	.st1{mask:url(#path-1-inside-1_532_14_00000155831016439071596760000005516665148510999429_);fill:#47BDDA;}
	.st2{fill:#FFFFFF;}
	.st3{fill:none;stroke:#FFFFFF;stroke-width:5;stroke-linecap:round;stroke-miterlimit:10;}
</style>
<defs>
	<filter id="Adobe_OpacityMaskFilter" filterUnits="userSpaceOnUse" x="-5" y="-5" width="96" height="73.6">
		<feColorMatrix  type="matrix" values="1 0 0 0 0  0 1 0 0 0  0 0 1 0 0  0 0 0 1 0"/>
	</filter>
</defs>
<mask maskUnits="userSpaceOnUse" x="-5" y="-5" width="96" height="73.6" id="path-1-inside-1_532_14_00000155831016439071596760000005516665148510999429_">
	<path class="st0" d="M30.2,0H9C6.6,0,4.3,1,2.6,2.7C0.9,4.3,0,6.6,0,9v45.6c0,1.2,0.2,2.4,0.7,3.5c0.5,1.1,1.1,2.1,2,2.9
		c0.8,0.8,1.8,1.5,2.9,2c1.1,0.5,2.3,0.7,3.5,0.7h68c2.4,0,4.7-1,6.4-2.6c1.7-1.7,2.6-4,2.6-6.4V9c0-1.2-0.2-2.4-0.7-3.5
		c-0.5-1.1-1.1-2.1-2-2.9c-0.8-0.8-1.8-1.5-2.9-2C79.3,0.2,78.2,0,77,0H56.7"/>
</mask>
<path class="st1" d="M9,0v-5h0l0,0L9,0z M0,9h5v0L0,9z M77,63.6v5V63.6z M86,9h5H86z M77,0v-5V0z M30.2-5H9V5h21.3V-5z M9-5
	C5.3-5,1.7-3.5-0.9-0.9l7.1,7.1C6.9,5.4,7.9,5,9,5L9-5z M-0.9-0.9C-3.5,1.8-5,5.3-5,9L5,9C5,8,5.4,6.9,6.2,6.2L-0.9-0.9z M-5,9v45.6
	H5V9H-5z M-5,54.6c0,1.8,0.4,3.7,1.1,5.4l9.2-3.8c-0.2-0.5-0.3-1-0.3-1.5H-5z M-3.9,59.9c0.7,1.7,1.7,3.2,3,4.5l7.1-7.1
	c-0.4-0.4-0.7-0.8-0.9-1.3L-3.9,59.9z M-0.9,64.5c1.3,1.3,2.8,2.3,4.5,3l3.8-9.2c-0.5-0.2-0.9-0.5-1.3-0.9L-0.9,64.5z M3.7,67.5
	c1.7,0.7,3.5,1.1,5.4,1.1v-10c-0.5,0-1.1-0.1-1.5-0.3L3.7,67.5z M9,68.6h68v-10H9V68.6z M77,68.6c3.7,0,7.3-1.5,9.9-4.1l-7.1-7.1
	c-0.8,0.8-1.8,1.2-2.8,1.2V68.6z M86.9,64.5c2.6-2.6,4.1-6.2,4.1-9.9H81c0,1.1-0.4,2.1-1.2,2.8L86.9,64.5z M91,54.6V9H81v45.6H91z
	 M91,9c0-1.8-0.4-3.7-1.1-5.4l-9.2,3.8C80.9,8,81,8.5,81,9H91z M89.9,3.7c-0.7-1.7-1.7-3.2-3-4.5l-7.1,7.1c0.4,0.4,0.7,0.8,0.9,1.3
	L89.9,3.7z M86.9-0.9c-1.3-1.3-2.8-2.3-4.5-3l-3.8,9.2c0.5,0.2,0.9,0.5,1.3,0.9L86.9-0.9z M82.3-3.9C80.6-4.6,78.8-5,77-5V5
	c0.5,0,1.1,0.1,1.5,0.3L82.3-3.9z M77-5H56.7V5H77V-5z"/>
<path class="st2" d="M25.3,33c4.4,0,8-3.6,8-8c0-4.4-3.6-8-8-8c-4.4,0-8,3.6-8,8C17.2,29.5,20.8,33,25.3,33z"/>
<path class="st2" d="M40,47.5v-4.6c0-2-0.8-3.9-2.2-5.4c-1.4-1.4-3.4-2.2-5.4-2.2H18c-2,0-3.9,0.8-5.4,2.2c-1.4,1.4-2.2,3.4-2.2,5.4
	v4.6"/>
<path class="st3" d="M50,21h24.6"/>
<path class="st3" d="M50,32h24.6"/>
<path class="st3" d="M50,43h24.6"/>
</svg>
