<?xml version="1.0" encoding="utf-8"?>
<!-- Generator: Adobe Illustrator 26.0.1, SVG Export Plug-In . SVG Version: 6.00 Build 0)  -->
<svg version="1.1" id="Capa_1" xmlns="http://www.w3.org/2000/svg" xmlns:xlink="http://www.w3.org/1999/xlink" x="0px" y="0px"
	 viewBox="0 0 86 86" style="enable-background:new 0 0 86 86;" xml:space="preserve">
<style type="text/css">
	.st0{fill:#47BDDA;}
	.st1{clip-path:url(#SVGID_00000020384480553784182900000005871447415222422704_);}
	.st2{fill:#FFFFFF;}
</style>
<circle class="st0" cx="43" cy="43" r="43"/>
<g>
	<defs>
		<rect id="SVGID_1_" x="23" y="23" width="39" height="39"/>
	</defs>
	<clipPath id="SVGID_00000085929080603272989310000012494343438103547818_">
		<use xlink:href="#SVGID_1_"  style="overflow:visible;"/>
	</clipPath>
	<g style="clip-path:url(#SVGID_00000085929080603272989310000012494343438103547818_);">
		<path class="st2" d="M62,62L62,62L62,62l0-14.3c0-7-1.5-12.4-9.7-12.4c-3.9,0-6.6,2.2-7.6,4.2h-0.1V36h-7.8v26h8.1V49.1
			c0-3.4,0.6-6.7,4.8-6.7c4.1,0,4.2,3.9,4.2,6.9V62H62z"/>
		<path class="st2" d="M23.6,36h8.1v26h-8.1V36z"/>
		<path class="st2" d="M27.7,23c-2.6,0-4.7,2.1-4.7,4.7c0,2.6,2.1,4.7,4.7,4.7c2.6,0,4.7-2.1,4.7-4.7C32.4,25.1,30.3,23,27.7,23
			L27.7,23z"/>
	</g>
</g>
</svg>
