<svg width="86" height="86" viewBox="0 0 86 86" fill="none" xmlns="http://www.w3.org/2000/svg">
<circle cx="43" cy="43" r="43" fill="#1B88BF"/>
<g clip-path="url(#clip0_513_14)">
<path d="M61.9903 61.9999V61.9982H62.0001V47.695C62.0001 40.6977 60.4937 35.3076 52.3134 35.3076C48.3809 35.3076 45.7419 37.4656 44.6646 39.5115H44.5508V35.9609H36.7947V61.9982H44.8709V49.1055C44.8709 45.7109 45.5144 42.4284 49.7183 42.4284C53.8604 42.4284 53.9222 46.3024 53.9222 49.3232V61.9999H61.9903Z" fill="white"/>
<path d="M23.6436 35.9629H31.7296V62.0003H23.6436V35.9629Z" fill="white"/>
<path d="M27.6832 23C25.0979 23 23 25.0979 23 27.6833C23 30.2686 25.0979 32.4104 27.6832 32.4104C30.2686 32.4104 32.3665 30.2686 32.3665 27.6833C32.3649 25.0979 30.267 23 27.6832 23V23Z" fill="white"/>
</g>
<defs>
<clipPath id="clip0_513_14">
<rect width="39" height="39" fill="white" transform="translate(23 23)"/>
</clipPath>
</defs>
</svg>
