<svg width="86" height="64" viewBox="0 0 86 64" fill="none" xmlns="http://www.w3.org/2000/svg">
<path d="M30.2458 0H8.9887C6.60196 0.00803621 4.31572 0.961803 2.63088 2.65234C0.946037 4.34287 -1.35289e-05 6.63231 1.45102e-10 9.01907L1.45102e-10 54.5699C1.45102e-10 55.7543 0.233285 56.9271 0.686536 58.0214C1.13979 59.1156 1.80413 60.1099 2.64162 60.9474C3.47912 61.7849 4.47338 62.4492 5.56762 62.9024C6.66186 63.3557 7.83467 63.589 9.01907 63.589H76.9809C79.3729 63.589 81.667 62.6388 83.3584 60.9474C85.0498 59.256 86 56.9619 86 54.5699V9.01907C86 7.83467 85.7667 6.66186 85.3135 5.56762C84.8602 4.47338 84.1959 3.47912 83.3584 2.64162C82.5209 1.80413 81.5266 1.13979 80.4324 0.686536C79.3381 0.233285 78.1653 0 76.9809 0L56.6653 0" fill="#2380B0"/>
<path d="M25.2655 33.0476C29.6931 33.0476 33.2824 29.4583 33.2824 25.0306C33.2824 20.603 29.6931 17.0137 25.2655 17.0137C20.8378 17.0137 17.2485 20.603 17.2485 25.0306C17.2485 29.4583 20.8378 33.0476 25.2655 33.0476Z" fill="white"/>
<path d="M40.0241 47.4939V42.8477C40.0241 40.8342 39.2242 38.9032 37.8005 37.4794C36.3767 36.0557 34.4457 35.2559 32.4323 35.2559H18.0078C15.9943 35.2559 14.0633 36.0557 12.6396 37.4794C11.2159 38.9032 10.416 40.8342 10.416 42.8477V47.4939" fill="white"/>
<path d="M51.5635 22.0469H76.1609" stroke="white" stroke-width="5" stroke-miterlimit="10" stroke-linecap="round"/>
<path d="M51.3813 36.8047H75.9788" stroke="white" stroke-width="5" stroke-miterlimit="10" stroke-linecap="round"/>
<path d="M51.3813 51.9277H75.9788" stroke="white" stroke-width="5" stroke-miterlimit="10" stroke-linecap="round"/>
</svg>
