<svg width="49" height="49" viewBox="0 0 49 49" fill="none" xmlns="http://www.w3.org/2000/svg">
<g clip-path="url(#clip0_540_2)">
<path d="M35.7435 29.2102L35.7251 29.3633C31.2355 27.1256 30.7659 26.8276 30.1861 27.6973C29.7839 28.2996 28.612 29.6655 28.2587 30.0697C27.9015 30.4679 27.5462 30.4985 26.9398 30.2229C26.3273 29.9166 24.3612 29.2735 22.0337 27.191C20.2207 25.5679 19.0039 23.5772 18.6445 22.9647C18.0463 21.9316 19.2979 21.7846 20.4371 19.6286C20.6413 19.1999 20.5372 18.863 20.3861 18.5588C20.233 18.2526 19.0141 15.2513 18.5037 14.0549C18.0137 12.8626 17.5094 13.0136 17.1317 13.0136C15.9557 12.9116 15.0961 12.9279 14.3387 13.716C11.0434 17.3379 11.8744 21.0741 14.6939 25.0472C20.235 32.2992 23.1872 33.6345 28.5854 35.4883C30.0432 35.9518 31.3723 35.8864 32.4237 35.7354C33.5957 35.5496 36.0314 34.2633 36.5397 32.8239C37.0604 31.3846 37.0604 30.1902 36.9072 29.9146C36.7562 29.6389 36.356 29.4858 35.7435 29.2102V29.2102Z" fill="white" />
<path d="M41.895 7.04149C26.1966 -8.13422 0.216417 2.87241 0.206208 24.2813C0.206208 28.5607 1.32708 32.7338 3.46267 36.419L0 48.9998L12.934 45.627C29.0733 54.3449 48.9918 42.7686 49 24.2936C49 17.8092 46.4683 11.7067 41.8644 7.12112L41.895 7.04149ZM44.9208 24.2262C44.9085 39.8102 27.8014 49.5429 14.2713 41.5885L13.5363 41.1516L5.88 43.1423L7.93188 35.7004L7.44392 34.9347C-0.975917 21.5312 8.6975 4.0137 24.647 4.0137C30.0656 4.0137 35.1514 6.12683 38.9815 9.95495C42.8097 13.7504 44.9208 18.8362 44.9208 24.2262V24.2262Z" fill="#47bdda"/>
</g>
<defs>
<clipPath id="clip0_540_2">
<rect width="49" height="49" stroke="#47bdda"/>
</clipPath>
</defs>
</svg>
