<svg width="143" height="143" viewBox="0 0 143 143" fill="none" xmlns="http://www.w3.org/2000/svg">
<g clip-path="url(#clip0_462_155)">
<path d="M128 111.13C137.465 97.6493 141.796 81.2272 140.209 64.8319C138.622 48.4366 131.222 33.1498 119.347 21.7348C107.472 10.3197 91.9046 3.52947 75.4594 2.59141C59.0142 1.65336 42.7759 6.62936 29.6797 16.62" stroke="#2380B0" stroke-width="5" stroke-miterlimit="10" stroke-linecap="round"/>
<path d="M17.2699 28.84C6.70419 42.2959 1.51418 59.1972 2.7071 76.2639C3.90003 93.3307 11.3908 109.346 23.7257 121.201C36.0606 133.056 52.36 139.906 69.4606 140.421C86.5612 140.937 103.243 135.081 116.27 123.99" stroke="#2380B0" stroke-width="5" stroke-miterlimit="10" stroke-linecap="round"/>
<path d="M24.7597 19.6801C25.7644 19.6801 26.7466 19.978 27.582 20.5362C28.4174 21.0944 29.0685 21.8878 29.453 22.816C29.8375 23.7443 29.9381 24.7657 29.7421 25.7511C29.5461 26.7365 29.0622 27.6417 28.3518 28.3522C27.6413 29.0626 26.7362 29.5464 25.7508 29.7424C24.7653 29.9385 23.7439 29.8379 22.8157 29.4534C21.8874 29.0689 21.094 28.4178 20.5358 27.5823C19.9776 26.7469 19.6797 25.7648 19.6797 24.7601C19.6823 23.4136 20.2184 22.123 21.1705 21.1709C22.1226 20.2188 23.4132 19.6827 24.7597 19.6801V19.6801ZM24.7597 14.6801C22.7661 14.6801 20.8172 15.2712 19.1595 16.3788C17.5019 17.4864 16.2099 19.0607 15.447 20.9026C14.6841 22.7445 14.4844 24.7712 14.8734 26.7266C15.2623 28.6819 16.2223 30.478 17.6321 31.8877C19.0418 33.2974 20.8379 34.2574 22.7932 34.6464C24.7485 35.0353 26.7753 34.8357 28.6171 34.0728C30.459 33.3098 32.0333 32.0178 33.1409 30.3602C34.2485 28.7026 34.8397 26.7537 34.8397 24.7601C34.8397 22.0867 33.7777 19.5228 31.8873 17.6324C29.997 15.7421 27.4331 14.6801 24.7597 14.6801V14.6801Z" fill="#2380B0"/>
<path d="M122.69 113.16C123.695 113.16 124.677 113.458 125.512 114.016C126.348 114.574 126.999 115.368 127.383 116.296C127.768 117.224 127.868 118.246 127.672 119.231C127.476 120.217 126.992 121.122 126.282 121.832C125.572 122.543 124.666 123.026 123.681 123.222C122.696 123.418 121.674 123.318 120.746 122.933C119.818 122.549 119.024 121.898 118.466 121.062C117.908 120.227 117.61 119.245 117.61 118.24C117.613 116.894 118.149 115.603 119.101 114.651C120.053 113.699 121.343 113.163 122.69 113.16ZM122.69 108.16C120.696 108.16 118.747 108.751 117.09 109.859C115.432 110.966 114.14 112.541 113.377 114.383C112.614 116.224 112.415 118.251 112.804 120.207C113.192 122.162 114.153 123.958 115.562 125.368C116.972 126.777 118.768 127.737 120.723 128.126C122.679 128.515 124.705 128.316 126.547 127.553C128.389 126.79 129.963 125.498 131.071 123.84C132.179 122.183 132.77 120.234 132.77 118.24C132.767 115.567 131.704 113.005 129.815 111.115C127.925 109.226 125.362 108.163 122.69 108.16V108.16Z" fill="#2380B0"/>
<path d="M23.3301 44.79V98.21L71.5001 116.37L118.24 98.21V44.79L71.7501 26.73L23.3301 44.79Z" stroke="#F5F5F5" stroke-width="5" stroke-miterlimit="10"/>
<path d="M24.7598 44.79L71.4998 62.37L118.24 44.79" stroke="#F5F5F5" stroke-width="5" stroke-miterlimit="10"/>
<path d="M23.3301 98.21L71.5001 80.73L118.24 98.21" stroke="#F5F5F5" stroke-width="5" stroke-miterlimit="10"/>
<path d="M71.5 66.42V62.37" stroke="#F5F5F5" stroke-width="5" stroke-miterlimit="10"/>
<path d="M71.5 72.9V69.21" stroke="#F5F5F5" stroke-width="5" stroke-miterlimit="10"/>
<path d="M71.5 85.95V74.52" stroke="#F5F5F5" stroke-width="5" stroke-miterlimit="10"/>
<path d="M71.5 102.57V90.99" stroke="#F5F5F5" stroke-width="5" stroke-miterlimit="10"/>
<path d="M71.5 107.61V105.21" stroke="#F5F5F5" stroke-width="5" stroke-miterlimit="10"/>
<path d="M71.5 116.37V109.05" stroke="#F5F5F5" stroke-width="5" stroke-miterlimit="10"/>
</g>
<defs>
<clipPath id="clip0_462_155">
<rect width="143" height="143" fill="white"/>
</clipPath>
</defs>
</svg>
