<svg width="142" height="136" viewBox="0 0 142 136" fill="none" xmlns="http://www.w3.org/2000/svg">
<g clip-path="url(#clip0_462_176)">
<path d="M85.4698 37.21C86.6572 37.21 87.6198 36.2474 87.6198 35.06C87.6198 33.8726 86.6572 32.91 85.4698 32.91C84.2824 32.91 83.3198 33.8726 83.3198 35.06C83.3198 36.2474 84.2824 37.21 85.4698 37.21Z" fill="#F5F5F5"/>
<path d="M124.9 114.66V106.04" stroke="#2380B0" stroke-width="5" stroke-miterlimit="10" stroke-linecap="round"/>
<path d="M52.1502 98.12C56.6326 98.1535 60.938 99.8742 64.2089 102.939C67.4797 106.004 69.476 110.189 69.8002 114.66H87.6502V111.43C87.6412 110.942 87.4593 110.473 87.137 110.107C86.8147 109.741 86.3729 109.501 85.8902 109.43L79.5602 108.66C78.9189 106.252 77.9711 103.937 76.7402 101.77L80.6802 96.66C80.9694 96.264 81.1109 95.7793 81.0802 95.29C81.0559 94.8064 80.8569 94.348 80.5202 94L74.0002 87.37C73.6511 87.0274 73.1886 86.8246 72.7002 86.8C72.2127 86.772 71.731 86.9172 71.3402 87.21L66.3402 91.21C64.2102 89.9575 61.919 89.002 59.5302 88.37L58.8002 82C58.7344 81.514 58.4924 81.0692 58.1202 80.75C57.76 80.4175 57.2903 80.2289 56.8002 80.22H47.5302C47.0358 80.2185 46.5585 80.4002 46.1902 80.73C45.8211 81.0574 45.586 81.5097 45.5302 82L44.8002 88.41C42.4208 89.0371 40.1344 89.9752 38.0002 91.2L33.0002 87.2C32.6154 86.8979 32.1332 86.7474 31.6448 86.7769C31.1565 86.8064 30.6959 87.0138 30.3502 87.36L23.8002 94C23.4622 94.3521 23.2602 94.8128 23.2302 95.3C23.1986 95.7894 23.3402 96.2744 23.6302 96.67L27.5602 101.74C26.3397 103.919 25.4117 106.249 24.8002 108.67L18.4602 109.44C17.9792 109.515 17.5396 109.756 17.218 110.121C16.8964 110.487 16.7131 110.953 16.7002 111.44V114.67H34.4802C34.8023 110.194 36.8003 106.004 40.0757 102.936C43.351 99.8685 47.6627 98.1487 52.1502 98.12V98.12Z" fill="#6B6B6B"/>
<path d="M99.15 35.06H125.74C126.664 35.0521 127.581 35.2273 128.437 35.5755C129.293 35.9238 130.072 36.4381 130.729 37.0889C131.385 37.7397 131.906 38.5141 132.261 39.3673C132.617 40.2205 132.8 41.1357 132.8 42.06V115.14H9.45996V42.06C9.45993 41.1357 9.64296 40.2205 9.99849 39.3673C10.354 38.5141 10.875 37.7397 11.5314 37.0889C12.1878 36.4381 12.9665 35.9238 13.8227 35.5755C14.679 35.2273 15.5957 35.0521 16.52 35.06H74.8" stroke="#F5F5F5" stroke-width="5" stroke-miterlimit="10"/>
<path d="M5.91 115.14H135.49C136.394 115.14 137.262 115.499 137.901 116.139C138.541 116.778 138.9 117.646 138.9 118.55V119.27C138.9 122.943 137.441 126.466 134.843 129.063C132.246 131.661 128.723 133.12 125.05 133.12H16.35C12.6768 133.12 9.15395 131.661 6.55657 129.063C3.95919 126.466 2.5 122.943 2.5 119.27V118.55C2.5 117.646 2.85927 116.778 3.49877 116.139C4.13827 115.499 5.00561 115.14 5.91 115.14V115.14Z" stroke="#F5F5F5" stroke-width="5" stroke-miterlimit="10"/>
<path d="M134.46 2.5H6.94C5.86857 2.5 5 3.36857 5 4.44V12.81C5 13.8814 5.86857 14.75 6.94 14.75H134.46C135.531 14.75 136.4 13.8814 136.4 12.81V4.44C136.4 3.36857 135.531 2.5 134.46 2.5Z" stroke="#F5F5F5" stroke-width="5" stroke-miterlimit="10"/>
<path d="M99.1499 20.44V48.16L106.36 55L102.76 64" stroke="#2380B0" stroke-width="5" stroke-miterlimit="10" stroke-linecap="round"/>
<path d="M99.1502 48.16L91.9502 55L95.5502 64" stroke="#2380B0" stroke-width="5" stroke-miterlimit="10" stroke-linecap="round"/>
<path d="M124.9 78.94V75.1" stroke="#2380B0" stroke-width="5" stroke-miterlimit="10" stroke-linecap="round"/>
<path d="M124.9 97.41V85.42" stroke="#2380B0" stroke-width="5" stroke-miterlimit="10" stroke-linecap="round"/>
<path d="M108.69 2.5H89.6199C88.5208 2.5 87.6299 3.39095 87.6299 4.49V18.45C87.6299 19.549 88.5208 20.44 89.6199 20.44H108.69C109.789 20.44 110.68 19.549 110.68 18.45V4.49C110.68 3.39095 109.789 2.5 108.69 2.5Z" fill="#6B6B6B"/>
</g>
<defs>
<clipPath id="clip0_462_176">
<rect width="141.4" height="135.62" fill="white"/>
</clipPath>
</defs>
</svg>
