<svg width="311" height="300" viewBox="0 0 311 300" fill="none" xmlns="http://www.w3.org/2000/svg">
<g clip-path="url(#clip0_462_190)">
<path d="M71.62 297.1H2.5V270.42H18.87H71.62V297.1Z" stroke="white" stroke-width="5" stroke-miterlimit="10"/>
<path d="M13.2998 253.54V183L23.3798 134.14L41.5898 103.08C41.5898 103.08 65.5898 99.08 45.1698 133.67C43.4837 136.515 42.5991 139.763 42.6098 143.07L42.7898 172.64C42.8093 176.35 43.511 180.024 44.8598 183.48L49.0598 194.26C49.0697 194.284 49.0863 194.304 49.1077 194.318C49.129 194.332 49.1541 194.34 49.1798 194.34C49.2055 194.34 49.2306 194.332 49.2519 194.318C49.2733 194.304 49.2899 194.284 49.2998 194.26L62.4998 170.2C63.3131 168.664 64.5128 167.366 65.9806 166.435C67.4484 165.504 69.1335 164.971 70.8698 164.89C72.06 164.834 73.248 165.04 74.3502 165.493C75.4524 165.945 76.4421 166.634 77.2498 167.51C78.4617 168.86 79.2791 170.517 79.6124 172.3C79.9457 174.083 79.7822 175.924 79.1398 177.62L64.3098 218.74L53.3798 234.34L53.8598 270.42H16.6598L13.2998 253.54Z" stroke="white" stroke-width="5" stroke-miterlimit="10"/>
<path d="M70.15 140.05C71.39 142.87 72.95 152.38 42.71 159.35L43.46 137.5C43.46 137.5 65.92 127.78 69.4 138.01C69.63 138.7 69.86 139.39 70.15 140.05Z" stroke="white" stroke-width="5" stroke-miterlimit="10"/>
<path d="M238.63 297.1H307.75V270.42H291.38H238.63V297.1Z" stroke="white" stroke-width="5" stroke-miterlimit="10"/>
<path d="M297 253.54V183L286.92 134.14L268.71 103.08C268.71 103.08 244.71 99.08 265.13 133.67C266.821 136.513 267.706 139.762 267.69 143.07L267.52 172.64C267.497 176.35 266.792 180.025 265.44 183.48L261.24 194.26C261.229 194.281 261.212 194.298 261.192 194.311C261.172 194.323 261.149 194.329 261.125 194.329C261.101 194.329 261.078 194.323 261.058 194.311C261.038 194.298 261.021 194.281 261.01 194.26L247.81 170.21C246.996 168.672 245.795 167.374 244.325 166.443C242.855 165.511 241.168 164.98 239.43 164.9C238.24 164.845 237.052 165.051 235.95 165.504C234.848 165.956 233.858 166.644 233.05 167.52C231.84 168.871 231.024 170.528 230.691 172.311C230.357 174.093 230.52 175.933 231.16 177.63L245.99 218.75L256.92 234.35L256.44 270.43H293.64L297 253.54Z" stroke="white" stroke-width="5" stroke-miterlimit="10"/>
<path d="M240.1 140.05C238.86 142.87 237.3 152.38 267.55 159.35L266.8 137.5C266.8 137.5 244.34 127.78 240.86 138.01C240.62 138.7 240.4 139.39 240.1 140.05Z" stroke="white" stroke-width="5" stroke-miterlimit="10"/>
<path d="M160.23 169.45H150.13V179.55H160.23V169.45Z" fill="white"/>
<path d="M160.23 186.67H150.13V196.77H160.23V186.67Z" fill="white"/>
<path d="M160.23 203.89H150.13V213.99H160.23V203.89Z" fill="white"/>
<path d="M160.23 221.11H150.13V231.21H160.23V221.11Z" fill="white"/>
<path d="M155.18 85.6C161.957 85.6 167.45 80.1065 167.45 73.33C167.45 66.5535 161.957 61.06 155.18 61.06C148.404 61.06 142.91 66.5535 142.91 73.33C142.91 80.1065 148.404 85.6 155.18 85.6Z" stroke="#2380B0" stroke-width="5" stroke-miterlimit="10" stroke-linecap="round"/>
<path d="M173.18 140.18H137.34C133.297 140.18 130.02 143.455 130.02 147.495C130.02 151.535 133.297 154.81 137.34 154.81H173.18C177.223 154.81 180.5 151.535 180.5 147.495C180.5 143.455 177.223 140.18 173.18 140.18Z" stroke="#2380B0" stroke-width="5" stroke-miterlimit="10" stroke-linecap="round"/>
<path d="M183.13 124.27H127.39C123.347 124.27 120.07 127.545 120.07 131.585C120.07 135.625 123.347 138.9 127.39 138.9H183.13C187.173 138.9 190.45 135.625 190.45 131.585C190.45 127.545 187.173 124.27 183.13 124.27Z" stroke="#2380B0" stroke-width="5" stroke-miterlimit="10" stroke-linecap="round"/>
<path d="M123.05 125.71L110.5 131.59L96.11 117.21L104.98 108.87C104.98 108.87 97.57 97.54 96.11 84.1H84.5V63.94H94.66C94.66 63.94 95.14 53.94 105.66 38.2L97.53 30.07L112.3 15.34L119.92 24.1C127.264 18.4963 135.917 14.8614 145.06 13.54V2.5H155.18" stroke="#2380B0" stroke-width="5" stroke-miterlimit="10" stroke-linecap="round"/>
<path d="M187.25 125.71L199.8 131.59L214.19 117.21L205.32 108.87C205.32 108.87 212.73 97.54 214.19 84.1H225.8V63.94H215.64C215.64 63.94 215.16 53.94 204.64 38.2L212.77 30.07L198 15.34L190.38 24.1C183.036 18.4963 174.383 14.8614 165.24 13.54V2.5H155.12" stroke="#2380B0" stroke-width="5" stroke-miterlimit="10" stroke-linecap="round"/>
<path d="M153.7 123.51H135.07V108.87C135.07 108.87 113.86 98.8 113.86 73.33C113.86 47.86 136.86 32.26 153.7 32.26" stroke="#2380B0" stroke-width="5" stroke-miterlimit="10" stroke-linecap="round"/>
<path d="M153.7 123.51H172.33V108.87C172.33 108.87 193.54 98.8 193.54 73.33C193.54 47.86 170.54 32.26 153.7 32.26" stroke="#2380B0" stroke-width="5" stroke-miterlimit="10" stroke-linecap="round"/>
<path d="M155.18 85.6L155.24 123.51" stroke="#2380B0" stroke-width="5" stroke-miterlimit="10" stroke-linecap="round"/>
</g>
<defs>
<clipPath id="clip0_462_190">
<rect width="310.25" height="299.6" fill="white"/>
</clipPath>
</defs>
</svg>
