<svg width="302" height="309" viewBox="0 0 302 309" fill="none" xmlns="http://www.w3.org/2000/svg">
<g clip-path="url(#clip0_462_211)">
<path d="M56.4602 252.36V259.08C56.4602 259.08 13.7402 262 3.18018 305.64H77.3402L76.6202 252.36H56.4602Z" stroke="white" stroke-width="5" stroke-miterlimit="10"/>
<path d="M76.6001 305.64L77.3201 252.36H97.4801V259.08C102.863 259.647 108.146 260.928 113.19 262.89" stroke="white" stroke-width="5" stroke-miterlimit="10"/>
<path d="M113.68 239C111.128 242.563 107.762 245.466 103.863 247.468C99.9638 249.47 95.6434 250.512 91.2603 250.51H62.9403C55.6204 250.51 48.6002 247.602 43.4242 242.426C38.2482 237.25 35.3403 230.23 35.3403 222.91V187.64C35.3403 186.504 35.5645 185.379 35.9999 184.329C36.4354 183.279 37.0736 182.326 37.878 181.524C38.6824 180.721 39.6372 180.085 40.6878 179.652C41.7384 179.219 42.864 178.997 44.0003 179H92.8103" stroke="white" stroke-width="5" stroke-miterlimit="10"/>
<path d="M56.46 220.76C56.46 220.76 74.05 241.55 92.81 224.86" stroke="white" stroke-width="5" stroke-miterlimit="10"/>
<path d="M56.46 206.36C59.7737 206.36 62.46 203.674 62.46 200.36C62.46 197.046 59.7737 194.36 56.46 194.36C53.1463 194.36 50.46 197.046 50.46 200.36C50.46 203.674 53.1463 206.36 56.46 206.36Z" fill="white"/>
<path d="M113.86 143.28C105.699 137.763 96.0705 134.823 86.22 134.84H68.46C61.9654 134.836 55.5337 136.112 49.5324 138.595C43.5312 141.078 38.0781 144.719 33.4848 149.311C28.8915 153.902 25.248 159.354 22.7626 165.354C20.2773 171.354 18.9987 177.785 19 184.28V221.77C19 224.329 20.0167 226.784 21.8264 228.594C23.6361 230.403 26.0907 231.42 28.65 231.42H36.65" stroke="white" stroke-width="5" stroke-miterlimit="10"/>
<path d="M87.1802 179L86.2202 134.84" stroke="white" stroke-width="5" stroke-miterlimit="10"/>
<path d="M64.6201 179V134.84" stroke="white" stroke-width="5" stroke-miterlimit="10"/>
<path d="M244.87 252.36V259.08C244.87 259.08 287.59 261.96 298.15 305.64H224L224.72 252.36H244.87Z" stroke="white" stroke-width="5" stroke-miterlimit="10"/>
<path d="M224.73 305.64L224 252.36H203.85V259.08C198.464 259.647 193.178 260.928 188.13 262.89" stroke="white" stroke-width="5" stroke-miterlimit="10"/>
<path d="M187.64 239C190.194 242.564 193.562 245.467 197.462 247.469C201.363 249.471 205.686 250.513 210.07 250.51H238.39C245.71 250.51 252.73 247.602 257.906 242.426C263.082 237.25 265.99 230.23 265.99 222.91V187.64C265.99 185.349 265.08 183.151 263.46 181.531C261.839 179.91 259.642 179 257.35 179H208.52" stroke="white" stroke-width="5" stroke-miterlimit="10"/>
<path d="M244.87 220.76C244.87 220.76 227.27 241.55 208.52 224.86" stroke="white" stroke-width="5" stroke-miterlimit="10"/>
<path d="M244.87 206.36C248.184 206.36 250.87 203.674 250.87 200.36C250.87 197.046 248.184 194.36 244.87 194.36C241.556 194.36 238.87 197.046 238.87 200.36C238.87 203.674 241.556 206.36 244.87 206.36Z" fill="white"/>
<path d="M187.47 143.28C195.631 137.763 205.26 134.823 215.11 134.84H232.87C245.983 134.84 258.558 140.049 267.83 149.321C277.101 158.592 282.31 171.168 282.31 184.28V221.77C282.31 224.329 281.294 226.784 279.484 228.594C277.674 230.403 275.22 231.42 272.66 231.42H264.66" stroke="white" stroke-width="5" stroke-miterlimit="10"/>
<path d="M214.15 179L215.11 134.84" stroke="white" stroke-width="5" stroke-miterlimit="10"/>
<path d="M236.71 179V134.84" stroke="white" stroke-width="5" stroke-miterlimit="10"/>
<path d="M136.25 32.92H124.25V44.92H136.25V32.92Z" fill="#2380B0"/>
<path d="M157.13 32.92H145.13V44.92H157.13V32.92Z" fill="#2380B0"/>
<path d="M178.01 32.92H166.01V44.92H178.01V32.92Z" fill="#2380B0"/>
<path d="M198.89 32.92H186.89V44.92H198.89V32.92Z" fill="#2380B0"/>
<path d="M109.13 108.4L261.07 35C261.07 35 277.07 15.08 250.87 11.94H109.13" stroke="#2380B0" stroke-width="5" stroke-miterlimit="10"/>
<path d="M87.1802 134.86L86.2502 6.64C86.2449 6.09738 86.3474 5.55911 86.5517 5.05639C86.756 4.55367 87.058 4.09651 87.4403 3.71141C87.8227 3.32631 88.2776 3.02093 88.7788 2.81298C89.28 2.60503 89.8176 2.49865 90.3602 2.5H105C106.09 2.5 107.136 2.93301 107.906 3.70379C108.677 4.47456 109.11 5.51996 109.11 6.61V140.46" stroke="white" stroke-width="5" stroke-miterlimit="10"/>
<path d="M130.25 251.84V258.56C130.25 258.56 87.53 261.44 77 305.12H151.16L150.44 251.84H130.25Z" stroke="white" stroke-width="5" stroke-miterlimit="10"/>
<path d="M171.27 251.84V258.56C171.27 258.56 213.99 261.44 224.55 305.12H150.39L151.11 251.84H171.27Z" stroke="white" stroke-width="5" stroke-miterlimit="10"/>
<path d="M117.77 178.48H184C186.291 178.48 188.489 179.39 190.109 181.011C191.73 182.631 192.64 184.829 192.64 187.12V222.4C192.64 226.028 191.925 229.62 190.535 232.971C189.146 236.323 187.109 239.367 184.542 241.93C181.975 244.494 178.927 246.526 175.574 247.911C172.221 249.295 168.628 250.005 165 250H136.73C129.41 250 122.39 247.092 117.214 241.916C112.038 236.74 109.13 229.72 109.13 222.4V187.12C109.13 184.829 110.04 182.631 111.66 181.011C113.281 179.39 115.478 178.48 117.77 178.48V178.48Z" stroke="white" stroke-width="5" stroke-miterlimit="10"/>
<path d="M130.25 220.24C130.25 220.24 150.41 244.06 170.57 220.24" stroke="white" stroke-width="5" stroke-miterlimit="10"/>
<path d="M130.25 205.84C133.564 205.84 136.25 203.154 136.25 199.84C136.25 196.526 133.564 193.84 130.25 193.84C126.936 193.84 124.25 196.526 124.25 199.84C124.25 203.154 126.936 205.84 130.25 205.84Z" fill="white"/>
<path d="M170.57 205.84C173.884 205.84 176.57 203.154 176.57 199.84C176.57 196.526 173.884 193.84 170.57 193.84C167.256 193.84 164.57 196.526 164.57 199.84C164.57 203.154 167.256 205.84 170.57 205.84Z" fill="white"/>
<path d="M192.65 230.9C197.98 230.9 209.45 230.9 209.45 221.25V183.76C209.45 177.267 208.171 170.837 205.686 164.838C203.2 158.839 199.558 153.388 194.966 148.797C190.374 144.206 184.922 140.565 178.923 138.081C172.924 135.597 166.493 134.319 160 134.32H142.25C135.757 134.319 129.328 135.597 123.329 138.081C117.33 140.565 111.879 144.207 107.288 148.798C102.697 153.389 99.0549 158.84 96.5708 164.839C94.0867 170.838 92.8087 177.267 92.8101 183.76V221.25C92.8101 223.809 93.8268 226.264 95.6365 228.074C97.4462 229.883 99.9007 230.9 102.46 230.9H110.46" stroke="white" stroke-width="5" stroke-miterlimit="10"/>
<path d="M160.97 178.48L160.01 134.32" stroke="white" stroke-width="5" stroke-miterlimit="10"/>
<path d="M138.41 178.48V134.32" stroke="white" stroke-width="5" stroke-miterlimit="10"/>
</g>
<defs>
<clipPath id="clip0_462_211">
<rect width="301.32" height="308.14" fill="white"/>
</clipPath>
</defs>
</svg>
