<svg width="296" height="229" viewBox="0 0 296 229" fill="none" xmlns="http://www.w3.org/2000/svg">
<g clip-path="url(#clip0_463_248)">
<path d="M147.58 159.46C226.513 159.46 290.5 124.323 290.5 80.98C290.5 37.6367 226.513 2.5 147.58 2.5C68.6476 2.5 4.66016 37.6367 4.66016 80.98C4.66016 124.323 68.6476 159.46 147.58 159.46Z" stroke="white" stroke-width="5" stroke-miterlimit="10"/>
<path d="M147.58 159.46C190.923 159.46 226.06 124.323 226.06 80.98C226.06 37.6367 190.923 2.5 147.58 2.5C104.237 2.5 69.1001 37.6367 69.1001 80.98C69.1001 124.323 104.237 159.46 147.58 159.46Z" stroke="white" stroke-width="5" stroke-miterlimit="10"/>
<path d="M223.32 60.36H201.46C201.021 60.3599 200.6 60.5314 200.286 60.8378C199.972 61.1443 199.79 61.5614 199.78 62V114.55C199.78 114.996 199.603 115.423 199.288 115.738C198.973 116.053 198.546 116.23 198.1 116.23H182C181.554 116.23 181.127 116.053 180.812 115.738C180.497 115.423 180.32 114.996 180.32 114.55V98.5C180.32 98.0544 180.143 97.6271 179.828 97.3121C179.513 96.997 179.086 96.82 178.64 96.82H150.34C150.119 96.82 149.901 96.7765 149.697 96.6921C149.493 96.6077 149.308 96.4839 149.152 96.3279C148.996 96.1719 148.872 95.9867 148.788 95.7829C148.703 95.5791 148.66 95.3606 148.66 95.14V60.45C148.659 60.1215 148.562 59.8005 148.38 59.5267C148.199 59.253 147.941 59.0384 147.638 58.9097C147.336 58.7809 147.003 58.7436 146.68 58.8023C146.356 58.861 146.058 59.0132 145.82 59.24L129.73 74.72C129.408 75.0406 129.224 75.4753 129.22 75.93V114.58C129.22 115.026 129.043 115.453 128.728 115.768C128.413 116.083 127.986 116.26 127.54 116.26H99.22C98.7744 116.26 98.3471 116.083 98.032 115.768C97.717 115.453 97.54 115.026 97.54 114.58V97.83C97.5401 97.6051 97.495 97.3825 97.4075 97.1753C97.3199 96.9682 97.1917 96.7807 97.0304 96.624C96.869 96.4674 96.6779 96.3447 96.4682 96.2632C96.2586 96.1818 96.0348 96.1433 95.81 96.15L70.71 96.86" stroke="white" stroke-width="5" stroke-miterlimit="10"/>
<path d="M147.58 130.12C150.463 130.12 152.8 127.783 152.8 124.9C152.8 122.017 150.463 119.68 147.58 119.68C144.697 119.68 142.36 122.017 142.36 124.9C142.36 127.783 144.697 130.12 147.58 130.12Z" fill="#2380B0"/>
<path d="M167.26 140.56C170.143 140.56 172.48 138.223 172.48 135.34C172.48 132.457 170.143 130.12 167.26 130.12C164.377 130.12 162.04 132.457 162.04 135.34C162.04 138.223 164.377 140.56 167.26 140.56Z" fill="#2380B0"/>
<path d="M127.9 140.56C130.783 140.56 133.12 138.223 133.12 135.34C133.12 132.457 130.783 130.12 127.9 130.12C125.017 130.12 122.68 132.457 122.68 135.34C122.68 138.223 125.017 140.56 127.9 140.56Z" fill="#2380B0"/>
<path d="M147.58 151C150.463 151 152.8 148.663 152.8 145.78C152.8 142.897 150.463 140.56 147.58 140.56C144.697 140.56 142.36 142.897 142.36 145.78C142.36 148.663 144.697 151 147.58 151Z" fill="#2380B0"/>
<path d="M26.26 226.18C39.3823 226.18 50.02 215.542 50.02 202.42C50.02 189.298 39.3823 178.66 26.26 178.66C13.1377 178.66 2.5 189.298 2.5 202.42C2.5 215.542 13.1377 226.18 26.26 226.18Z" stroke="#2380B0" stroke-width="5" stroke-miterlimit="10"/>
<path d="M148.66 226.18C161.782 226.18 172.42 215.542 172.42 202.42C172.42 189.298 161.782 178.66 148.66 178.66C135.538 178.66 124.9 189.298 124.9 202.42C124.9 215.542 135.538 226.18 148.66 226.18Z" stroke="#2380B0" stroke-width="5" stroke-miterlimit="10"/>
<path d="M269.18 226.18C282.302 226.18 292.94 215.542 292.94 202.42C292.94 189.298 282.302 178.66 269.18 178.66C256.058 178.66 245.42 189.298 245.42 202.42C245.42 215.542 256.058 226.18 269.18 226.18Z" stroke="#2380B0" stroke-width="5" stroke-miterlimit="10"/>
<path d="M240.12 205.54H245.42" stroke="#2380B0" stroke-width="5" stroke-miterlimit="10"/>
<path d="M219.46 205.54H234.82" stroke="#2380B0" stroke-width="5" stroke-miterlimit="10"/>
<path d="M196.54 205.54H210.82" stroke="#2380B0" stroke-width="5" stroke-miterlimit="10"/>
<path d="M172.48 205.54H183.94" stroke="#2380B0" stroke-width="5" stroke-miterlimit="10"/>
<path d="M112.9 205.54H124.9" stroke="#2380B0" stroke-width="5" stroke-miterlimit="10"/>
<path d="M94.1802 205.54H103.3" stroke="#2380B0" stroke-width="5" stroke-miterlimit="10"/>
<path d="M70.1802 205.54H82.1802" stroke="#2380B0" stroke-width="5" stroke-miterlimit="10"/>
<path d="M50.02 205.54H59.62" stroke="#2380B0" stroke-width="5" stroke-miterlimit="10"/>
</g>
<defs>
<clipPath id="clip0_463_248">
<rect width="295.44" height="228.68" fill="white"/>
</clipPath>
</defs>
</svg>
