<svg width="128" height="106" viewBox="0 0 128 106" fill="none" xmlns="http://www.w3.org/2000/svg">
<g clip-path="url(#clip0_463_269)">
<path d="M91.69 24.58C91.69 24.58 85.21 31.42 80.17 34.3H68.29L59 41.53C57.621 42.6075 55.9548 43.2544 54.21 43.39C50 43.68 43 42.75 45 32.79C45.3035 31.2742 45.9923 29.8622 47 28.69C51.5 23.37 66.65 6.82999 83.8 2.61999C83.8 2.61999 97.12 1.17999 106.48 8.37999" stroke="white" stroke-width="5" stroke-miterlimit="10" stroke-linecap="round"/>
<path d="M119.41 18.8199C119.41 18.8199 138.13 43.6599 109 69.9399" stroke="white" stroke-width="5" stroke-miterlimit="10" stroke-linecap="round"/>
<path d="M15.3702 64.54C15.3702 64.54 -12.3498 37.18 13.5702 12.34C13.5702 12.34 38.1102 -9.65997 64.3602 12.34" stroke="white" stroke-width="5" stroke-miterlimit="10"/>
<path d="M80.1703 34.3L109 64.5401C109 64.5401 111.16 76.0601 99.6403 73.9001L75.5503 50.5" stroke="white" stroke-width="5" stroke-miterlimit="10" stroke-linecap="round"/>
<path d="M66.8501 60.22L88.8501 82.9C88.8501 82.9 101.09 87.9 99.6501 73.9" stroke="white" stroke-width="5" stroke-miterlimit="10" stroke-linecap="round"/>
<path d="M64 77.5L79.45 93C79.45 93 91.69 96.24 88.81 82.92" stroke="white" stroke-width="5" stroke-miterlimit="10" stroke-linecap="round"/>
<path d="M62 94.6L69.78 102.7C69.78 102.7 79.45 107 79.45 93" stroke="white" stroke-width="5" stroke-miterlimit="10" stroke-linecap="round"/>
<path d="M29.0142 68.7883C33.3802 64.4223 34.5737 58.537 31.68 55.6432C28.7862 52.7494 22.9009 53.943 18.5348 58.309C14.1688 62.6751 12.9753 68.5604 15.8691 71.4541C18.7628 74.3479 24.6481 73.1544 29.0142 68.7883Z" stroke="white" stroke-width="5" stroke-miterlimit="10"/>
<path d="M39.6333 79.4083C43.9994 75.0423 45.1929 69.157 42.2991 66.2632C39.4053 63.3694 33.5201 64.563 29.154 68.929C24.7879 73.2951 23.5944 79.1803 26.4882 82.0741C29.382 84.9679 35.2672 83.7744 39.6333 79.4083Z" stroke="white" stroke-width="5" stroke-miterlimit="10"/>
<path d="M49.2477 89.0199C53.6138 84.6539 55.0004 78.9617 52.3448 76.3061C49.6893 73.6506 43.9971 75.0372 39.631 79.4033C35.265 83.7693 33.8783 89.4615 36.5339 92.117C39.1895 94.7726 44.8816 93.386 49.2477 89.0199Z" stroke="white" stroke-width="5" stroke-miterlimit="10"/>
<path d="M59.1579 98.2167C63.524 93.8507 64.9201 88.168 62.2762 85.5242C59.6324 82.8803 53.9497 84.2765 49.5837 88.6425C45.2176 93.0086 43.8215 98.6912 46.4653 101.335C49.1092 103.979 54.7918 102.583 59.1579 98.2167Z" stroke="white" stroke-width="5" stroke-miterlimit="10"/>
<path d="M113.79 14.95C115.06 14.95 116.09 13.9202 116.09 12.65C116.09 11.3797 115.06 10.35 113.79 10.35C112.52 10.35 111.49 11.3797 111.49 12.65C111.49 13.9202 112.52 14.95 113.79 14.95Z" fill="#2380B0"/>
<path d="M58.6701 74C59.9404 74 60.9701 72.9703 60.9701 71.7C60.9701 70.4298 59.9404 69.4 58.6701 69.4C57.3999 69.4 56.3701 70.4298 56.3701 71.7C56.3701 72.9703 57.3999 74 58.6701 74Z" fill="#2380B0"/>
</g>
<defs>
<clipPath id="clip0_463_269">
<rect width="127.83" height="105.82" fill="white"/>
</clipPath>
</defs>
</svg>
