<svg width="113" height="128" viewBox="0 0 113 128" fill="none" xmlns="http://www.w3.org/2000/svg">
<g clip-path="url(#clip0_463_286)">
<path d="M106.12 81.54C106.12 81.54 107.76 93.94 95.12 94.66C82.48 95.38 82.72 81.54 82.72 81.54" stroke="#2380B0" stroke-width="5" stroke-miterlimit="10" stroke-linecap="round"/>
<path d="M61.1801 71.26V101.14H51.5801V6.67C51.5801 6.12239 51.6879 5.58014 51.8975 5.07421C52.1071 4.56828 52.4142 4.10859 52.8014 3.72136C53.1887 3.33414 53.6484 3.02698 54.1543 2.81742C54.6602 2.60786 55.2025 2.5 55.7501 2.5H57.0001C58.106 2.5 59.1667 2.93934 59.9487 3.72136C60.7307 4.50339 61.1701 5.56405 61.1701 6.67V60.28" stroke="white" stroke-width="5" stroke-miterlimit="10" stroke-linecap="round"/>
<path d="M95.1501 43.22L83.0801 71.26H105.94L95.1501 43.22Z" stroke="white" stroke-width="5" stroke-miterlimit="10"/>
<path d="M106.12 71.26H82.7201C80.4336 71.26 78.5801 73.1136 78.5801 75.4C78.5801 77.6865 80.4336 79.54 82.7201 79.54H106.12C108.407 79.54 110.26 77.6865 110.26 75.4C110.26 73.1136 108.407 71.26 106.12 71.26Z" stroke="white" stroke-width="5" stroke-miterlimit="10"/>
<path d="M6.64019 81.54C6.64019 81.54 5.00019 93.94 17.6102 94.66C30.2202 95.38 30.0002 81.54 30.0002 81.54" stroke="#2380B0" stroke-width="5" stroke-miterlimit="10" stroke-linecap="round"/>
<path d="M17.6098 43.22L29.6798 71.26H6.81982L17.6098 43.22Z" stroke="white" stroke-width="5" stroke-miterlimit="10"/>
<path d="M6.64017 79.54H30.0402C32.3266 79.54 34.1802 77.6865 34.1802 75.4C34.1802 73.1136 32.3266 71.26 30.0402 71.26H6.64017C4.35372 71.26 2.50018 73.1136 2.50018 75.4C2.50018 77.6865 4.35372 79.54 6.64017 79.54Z" stroke="white" stroke-width="5" stroke-miterlimit="10"/>
<path d="M64.18 101.14H48.7C48.6006 101.14 48.52 101.221 48.52 101.32V108.88C48.52 108.979 48.6006 109.06 48.7 109.06H64.18C64.2794 109.06 64.36 108.979 64.36 108.88V101.32C64.36 101.221 64.2794 101.14 64.18 101.14Z" stroke="white" stroke-width="5" stroke-miterlimit="10"/>
<path d="M71.3798 109.06H40.9598C40.8604 109.06 40.7798 109.141 40.7798 109.24V116.8C40.7798 116.899 40.8604 116.98 40.9598 116.98H71.3798C71.4792 116.98 71.5598 116.899 71.5598 116.8V109.24C71.5598 109.141 71.4792 109.06 71.3798 109.06Z" stroke="white" stroke-width="5" stroke-miterlimit="10"/>
<path d="M67.6001 124.9H86.8601C86.9079 124.9 86.9536 124.881 86.9874 124.847C87.0212 124.814 87.0401 124.768 87.0401 124.72V117.16C87.0401 117.112 87.0212 117.066 86.9874 117.033C86.9536 116.999 86.9079 116.98 86.8601 116.98H25.3001C25.2524 116.98 25.2066 116.999 25.1728 117.033C25.1391 117.066 25.1201 117.112 25.1201 117.16V124.72C25.1201 124.768 25.1391 124.814 25.1728 124.847C25.2066 124.881 25.2524 124.9 25.3001 124.9H57.1801" stroke="white" stroke-width="5" stroke-miterlimit="10" stroke-linecap="round"/>
<path d="M61.1802 36.88C61.1802 36.88 75.0002 35 76.7802 21.18C76.9012 20.3266 77.3277 19.5461 77.9806 18.9834C78.6334 18.4206 79.4683 18.1138 80.3302 18.12H108.1C108.1 18.12 110.54 19.85 110.23 22.53C110.072 23.5826 109.537 24.5418 108.723 25.2282C107.91 25.9147 106.874 26.2814 105.81 26.26H83.4402C83.4402 26.26 82.1202 43 61.1802 45.16" stroke="white" stroke-width="5" stroke-miterlimit="10"/>
<path d="M95.15 37.0799C97.442 37.0799 99.3 35.2219 99.3 32.9299C99.3 30.6379 97.442 28.7799 95.15 28.7799C92.858 28.7799 91 30.6379 91 32.9299C91 35.2219 92.858 37.0799 95.15 37.0799Z" stroke="white" stroke-width="5" stroke-miterlimit="10"/>
<path d="M13.4602 18.12H4.66015C4.66015 18.12 2.22015 19.85 2.53015 22.53C2.68888 23.5914 3.23176 24.5576 4.05575 25.2451C4.87974 25.9327 5.9275 26.2938 7.00015 26.26H29.3202C29.3202 26.26 30.6402 43 51.5802 45.16" stroke="white" stroke-width="5" stroke-miterlimit="10" stroke-linecap="round"/>
<path d="M51.5803 36.88C51.5803 36.88 37.7803 35 36.0003 21.18C35.8793 20.3266 35.4528 19.5461 34.7999 18.9834C34.1471 18.4206 33.3122 18.1138 32.4503 18.12H23.3203" stroke="white" stroke-width="5" stroke-miterlimit="10" stroke-linecap="round"/>
<path d="M17.61 37.0799C19.9019 37.0799 21.76 35.2219 21.76 32.9299C21.76 30.6379 19.9019 28.7799 17.61 28.7799C15.318 28.7799 13.46 30.6379 13.46 32.9299C13.46 35.2219 15.318 37.0799 17.61 37.0799Z" stroke="white" stroke-width="5" stroke-miterlimit="10"/>
<path d="M56.3801 45.6399C59.031 45.6399 61.1801 43.4909 61.1801 40.8399C61.1801 38.1889 59.031 36.0399 56.3801 36.0399C53.7291 36.0399 51.5801 38.1889 51.5801 40.8399C51.5801 43.4909 53.7291 45.6399 56.3801 45.6399Z" stroke="white" stroke-width="5" stroke-miterlimit="10" stroke-linecap="round"/>
</g>
<defs>
<clipPath id="clip0_463_286">
<rect width="112.76" height="127.4" fill="white"/>
</clipPath>
</defs>
</svg>
