<svg width="29" height="29" viewBox="0 0 29 29" fill="none" xmlns="http://www.w3.org/2000/svg">
<path d="M3.48051 0.25946C1.61052 0.25946 0.0893555 1.78072 0.0893555 3.65062C0.0893555 5.52051 1.60989 7.04167 3.48051 7.04167C5.35114 7.04167 6.87167 5.52051 6.87167 3.65062C6.87167 1.78072 5.35041 0.25946 3.48051 0.25946Z" fill="white"/>
<path d="M14.4561 0.25946C12.5862 0.25946 11.0649 1.78072 11.0649 3.65062C11.0649 5.52051 12.5862 7.04167 14.4561 7.04167C16.3261 7.04167 17.8476 5.52051 17.8476 3.65062C17.8476 1.78072 16.3267 0.25946 14.4561 0.25946Z" fill="white"/>
<path d="M25.6089 7.04178C27.4785 7.04178 29.0001 5.52062 29.0001 3.65072C29.0001 1.78083 27.4798 0.25946 25.6089 0.25946C23.7381 0.25946 22.2178 1.78072 22.2178 3.65062C22.2178 5.52051 23.7392 7.04178 25.6089 7.04178Z" fill="white"/>
<path d="M3.39179 17.9081C5.26168 17.9081 6.78326 16.3872 6.78326 14.517C6.78326 12.6467 5.26168 11.1255 3.39179 11.1255C1.52189 11.1255 0 12.6468 0 14.517C0 16.3872 1.52189 17.9081 3.39179 17.9081Z" fill="white"/>
<path d="M14.3672 17.9081C16.2368 17.9081 17.7584 16.3872 17.7584 14.517C17.7584 12.6467 16.2381 11.1255 14.3672 11.1255C12.4967 11.1255 10.9761 12.6467 10.9761 14.517C10.9761 16.3872 12.4973 17.9081 14.3672 17.9081Z" fill="white"/>
<path d="M25.5213 17.9081C27.3916 17.9081 28.9125 16.3872 28.9125 14.517C28.9125 12.6467 27.3916 11.1255 25.5213 11.1255C23.651 11.1255 22.1289 12.6467 22.1289 14.517C22.1289 16.3872 23.6505 17.9081 25.5213 17.9081Z" fill="white"/>
<path d="M3.46943 21.9582C1.59953 21.9582 0.0776367 23.479 0.0776367 25.3493C0.0776367 27.2189 1.59953 28.7404 3.46943 28.7404C5.33932 28.7404 6.86048 27.2197 6.86048 25.3493C6.86048 23.479 5.33932 21.9582 3.46943 21.9582Z" fill="white"/>
<path d="M14.4455 21.9582C12.5755 21.9582 11.0537 23.479 11.0537 25.3493C11.0537 27.2189 12.575 28.7404 14.4455 28.7404C16.3151 28.7404 17.8366 27.2197 17.8366 25.3493C17.8366 23.479 16.3151 21.9582 14.4455 21.9582Z" fill="white"/>
<path d="M25.5982 21.9582C23.7286 21.9582 22.207 23.479 22.207 25.3493C22.207 27.2189 23.7286 28.7404 25.5982 28.7404C27.4685 28.7404 28.9893 27.2197 28.9893 25.3493C28.9893 23.479 27.4678 21.9582 25.5982 21.9582Z" fill="white"/>
</svg>
