<svg width="32" height="32" viewBox="0 0 32 32" fill="none" xmlns="http://www.w3.org/2000/svg">
<path d="M27.3188 4.68121C21.0759 -1.5604 10.9231 -1.5604 4.68018 4.68121C-1.56006 10.9228 -1.56006 21.0782 4.68018 27.3198C7.80164 30.44 11.9009 31.9993 16.0002 31.9993C20.0995 31.9993 24.1973 30.4399 27.3188 27.3198C33.5604 21.0783 33.5604 10.9228 27.3188 4.68121ZM22.6019 20.7167C23.1234 21.2383 23.1234 22.0814 22.6019 22.6029C22.3418 22.863 22.0003 22.9938 21.6588 22.9938C21.3173 22.9938 20.9758 22.863 20.7156 22.6029L16.0001 17.886L11.2859 22.6015C11.0245 22.8617 10.6829 22.9924 10.3428 22.9924C10.0013 22.9924 9.65976 22.8617 9.39964 22.6015C8.87808 22.08 8.87808 21.2356 9.39964 20.7154L14.1139 15.9998L9.39833 11.2843C8.87677 10.7627 8.87677 9.91835 9.39833 9.39811C9.91857 8.87655 10.763 8.87655 11.2845 9.39811L16 14.1136L20.7156 9.39811C21.2371 8.87655 22.0802 8.87655 22.6018 9.39811C23.1233 9.91835 23.1233 10.7627 22.6018 11.2843L17.8862 15.9998L22.6019 20.7167Z" fill="white"/>
</svg>
