<svg width="22" height="25" viewBox="0 0 22 25" fill="none" xmlns="http://www.w3.org/2000/svg">
<path d="M17.3222 4.27206H4.55837C4.13596 4.2747 3.73153 4.46088 3.43284 4.7902C3.13415 5.11953 2.96528 5.56543 2.96289 6.03115V18.0935C2.96528 18.5592 3.13415 19.0051 3.43284 19.3344C3.73153 19.6637 4.13596 19.8499 4.55837 19.8526H17.3222C17.7446 19.8499 18.149 19.6637 18.4477 19.3344C18.7464 19.0051 18.9153 18.5592 18.9177 18.0935V6.03115C18.9153 5.56543 18.7464 5.11953 18.4477 4.7902C18.149 4.46088 17.7446 4.2747 17.3222 4.27206ZM4.55837 5.77985H17.3222C17.3827 5.77985 17.4406 5.80633 17.4834 5.85346C17.5261 5.90059 17.5501 5.9645 17.5501 6.03115V7.57915L10.9403 11.2179L4.33044 7.57915V6.03115C4.33044 5.9645 4.35446 5.90059 4.3972 5.85346C4.43995 5.80633 4.49792 5.77985 4.55837 5.77985ZM17.3222 18.3448H4.55837C4.49792 18.3448 4.43995 18.3183 4.3972 18.2712C4.35446 18.224 4.33044 18.1601 4.33044 18.0935V9.25782L10.6303 12.7358C10.7265 12.7889 10.8327 12.8165 10.9403 12.8165C11.0479 12.8165 11.154 12.7889 11.2503 12.7358L17.5501 9.25782V18.0935C17.5501 18.1601 17.5261 18.224 17.4834 18.2712C17.4406 18.3183 17.3827 18.3448 17.3222 18.3448Z" fill="white"/>
</svg>
