<svg width="22" height="25" viewBox="0 0 22 25" fill="none" xmlns="http://www.w3.org/2000/svg">
<path d="M19.3005 4.71476C19.7088 4.21385 19.9577 3.55202 19.9577 2.82711C19.9577 1.26824 18.8075 0 17.3936 0C15.9797 0 14.8294 1.26824 14.8294 2.82711C14.8294 3.55202 15.0784 4.21385 15.4867 4.71476C14.804 5.07301 14.2151 5.61722 13.7729 6.28847C12.8921 5.87261 11.9241 5.65421 10.9404 5.65421C9.95669 5.65421 8.9888 5.87261 8.10793 6.28847C7.66574 5.61722 7.07683 5.07301 6.39413 4.71476C6.80247 4.21385 7.05145 3.55202 7.05145 2.82711C7.05145 1.26824 5.90117 0 4.48729 0C3.07341 0 1.92312 1.26824 1.92312 2.82711C1.92312 3.55202 2.1721 4.21385 2.5804 4.71476C1.05699 5.51408 0 7.2397 0 9.23521V10.6488C0 11.0391 0.287015 11.3555 0.641041 11.3555H4.11185C3.93561 12.041 3.84624 12.7507 3.84624 13.4759C3.84624 16.0133 4.98217 18.392 6.84713 19.8392C6.56729 20.4816 6.41041 21.1997 6.41041 21.9572V23.4179C6.41041 23.8082 6.69742 24.1246 7.05145 24.1246H14.8294C15.1834 24.1246 15.4705 23.8082 15.4705 23.4179V21.9572C15.4705 21.1997 15.3136 20.4816 15.0337 19.8392C16.8987 18.392 18.0346 16.0133 18.0346 13.4759C18.0346 12.7506 17.9453 12.041 17.7691 11.3555H21.2398C21.5938 11.3555 21.8809 11.0391 21.8809 10.6488V9.23521C21.8809 7.2397 20.8239 5.51408 19.3005 4.71476ZM17.3936 1.41355C18.1005 1.41355 18.6757 2.04767 18.6757 2.82711C18.6757 3.60654 18.1005 4.24066 17.3936 4.24066C16.6866 4.24066 16.1115 3.60654 16.1115 2.82711C16.1115 2.04767 16.6866 1.41355 17.3936 1.41355ZM4.48729 1.41355C5.19423 1.41355 5.76937 2.04767 5.76937 2.82711C5.76937 3.60654 5.19423 4.24066 4.48729 4.24066C3.78035 4.24066 3.2052 3.60654 3.2052 2.82711C3.2052 2.04767 3.78035 1.41355 4.48729 1.41355ZM1.28208 9.94199V9.23521C1.28208 7.26067 2.71994 5.65421 4.48729 5.65421C6.25463 5.65421 7.69249 7.26067 7.69249 9.23521V9.94199C7.54249 9.94199 1.30768 9.94199 1.28208 9.94199ZM14.1884 22.7111H7.69249V21.9572C7.69249 20.0086 9.14949 18.4233 10.9404 18.4233C12.7313 18.4233 14.1884 20.0086 14.1884 21.9572V22.7111ZM9.61561 15.5962C9.61561 14.83 10.2223 14.1826 10.9404 14.1826C11.6586 14.1826 12.2652 14.83 12.2652 15.5962C12.2652 16.3624 11.6586 17.0098 10.9404 17.0098C10.2223 17.0098 9.61561 16.3624 9.61561 15.5962ZM14.3192 18.6656C13.9166 18.1732 13.4254 17.769 12.873 17.4833C13.3087 16.9617 13.5473 16.2979 13.5473 15.5962C13.5473 14.8398 13.2706 14.1272 12.768 13.5897C12.2734 13.0605 11.6243 12.7691 10.9404 12.7691C10.2565 12.7691 9.60749 13.0605 9.11282 13.5897C8.61029 14.1272 8.33353 14.8398 8.33353 15.5962C8.33353 16.2979 8.57208 16.9617 9.00778 17.4833C8.4555 17.769 7.96429 18.1732 7.56167 18.6656C6.04873 17.4796 5.12833 15.5419 5.12833 13.4759C5.12833 12.7449 5.2388 12.0338 5.45662 11.3555H8.33353C8.68756 11.3555 8.97457 11.0391 8.97457 10.6488V9.23521C8.97457 8.64199 8.88098 8.07266 8.70965 7.54437C9.40488 7.23513 10.1783 7.06776 10.9404 7.06776C11.7026 7.06776 12.476 7.23513 13.1712 7.54437C12.9999 8.07266 12.9063 8.64199 12.9063 9.23521V10.6488C12.9063 11.0391 13.1933 11.3555 13.5473 11.3555H16.4242C16.6421 12.0337 16.7525 12.7449 16.7525 13.4759C16.7525 15.5419 15.8322 17.4797 14.3192 18.6656ZM20.5988 9.94199C20.5733 9.94199 14.3389 9.94199 14.1884 9.94199V9.23521C14.1884 7.26067 15.6262 5.65421 17.3936 5.65421C19.1609 5.65421 20.5988 7.26067 20.5988 9.23521V9.94199Z" fill="white"/>
</svg>
