<svg width="49" height="49" viewBox="0 0 49 49" fill="none" xmlns="http://www.w3.org/2000/svg">
<path d="M42.875 0H6.125C2.74706 0 0 2.74706 0 6.125V42.875C0 46.2529 2.74706 49 6.125 49H42.875C46.2529 49 49 46.2529 49 42.875V6.125C49 2.74706 46.2529 0 42.875 0Z" fill="white"/>
<path d="M41.3438 24.5H33.6875V18.375C33.6875 16.6845 35.0595 16.8438 36.75 16.8438H39.8125V9.1875H33.6875C28.6129 9.1875 24.5 13.3004 24.5 18.375V24.5H18.375V32.1562H24.5V49H33.6875V32.1562H38.2812L41.3438 24.5Z" fill="#171717"/>
</svg>
