<svg width="60" height="60" viewBox="0 0 60 60" fill="none" xmlns="http://www.w3.org/2000/svg">
<path d="M60 26.25H52.5V18.75H48.75V26.25H41.25V30H48.75V37.5H52.5V30H60V26.25Z" fill="white"/>
<path d="M18.75 33.75H29.3587C27.81 38.115 23.64 41.25 18.75 41.25C12.5475 41.25 7.5 36.2025 7.5 30C7.5 23.7975 12.5475 18.75 18.75 18.75C21.4387 18.75 24.0262 19.7137 26.0362 21.465L30.9637 15.81C27.5888 12.87 23.2537 11.25 18.75 11.25C8.41125 11.25 0 19.6613 0 30C0 40.3387 8.41125 48.75 18.75 48.75C29.0887 48.75 37.5 40.3387 37.5 30V26.25H18.75V33.75Z" fill="white"/>
</svg>
