<svg width="22" height="22" viewBox="0 0 22 22" fill="none" xmlns="http://www.w3.org/2000/svg">
<path d="M18.0335 8.61664V19.857H14.1842V14.9956C14.1842 14.5694 13.8708 14.224 13.4843 14.224H8.56182C8.17524 14.224 7.86195 14.5694 7.86195 14.9956V19.857H4.03596V8.61664H2.63623V20.6286C2.63623 21.0548 2.94956 21.4002 3.3361 21.4002H8.56186C8.94844 21.4002 9.26173 21.0548 9.26173 20.6286V15.7673H12.7844V20.6286C12.7844 21.0549 13.0978 21.4003 13.4843 21.4003H18.7334C19.12 21.4003 19.4333 21.0548 19.4333 20.6286V8.61664H18.0335Z" fill="white"/>
<path d="M21.6612 10.6769L11.513 0.20829C11.2458 -0.0677076 10.8306 -0.0694983 10.5612 0.203389L0.226304 10.6721C-0.058301 10.9604 -0.0769783 11.4484 0.184547 11.7622C0.322426 11.9281 0.510909 12.0119 0.700119 12.0119C0.86924 12.0119 1.03909 11.9445 1.17346 11.8084L11.0305 1.82384L20.7049 11.8038C20.9877 12.0952 21.43 12.0785 21.6941 11.7675C21.958 11.4563 21.9435 10.9681 21.6612 10.6769Z" fill="white"/>
</svg>
