<svg width="49" height="49" viewBox="0 0 49 49" fill="none" xmlns="http://www.w3.org/2000/svg">
<path d="M10.9576 15.3125H0V49H10.9576V15.3125Z" fill="white"/>
<path d="M40.8048 15.7076C40.6884 15.6708 40.5781 15.631 40.4556 15.5973C40.3086 15.5636 40.1616 15.5361 40.0116 15.5116C39.4297 15.3952 38.7927 15.3125 38.0454 15.3125C31.6571 15.3125 27.6054 19.9583 26.2701 21.7529V15.3125H15.3125V49H26.2701V30.625C26.2701 30.625 34.5511 19.0916 38.0454 27.5625C38.0454 35.1238 38.0454 49 38.0454 49H49V26.2671C49 21.1772 45.5118 16.9356 40.8048 15.7076Z" fill="white"/>
<path d="M5.35938 10.7188C8.31928 10.7188 10.7188 8.31928 10.7188 5.35938C10.7188 2.39947 8.31928 0 5.35938 0C2.39947 0 0 2.39947 0 5.35938C0 8.31928 2.39947 10.7188 5.35938 10.7188Z" fill="white"/>
</svg>
