<svg width="22" height="25" viewBox="0 0 22 25" fill="none" xmlns="http://www.w3.org/2000/svg">
<path d="M12.7636 12.3136C12.0874 12.3136 11.4264 12.0925 10.8642 11.6783C10.3019 11.2641 9.86374 10.6754 9.60498 9.98665C9.34621 9.29787 9.2785 8.53995 9.41042 7.80875C9.54234 7.07754 9.86796 6.40588 10.3461 5.87871C10.8242 5.35154 11.4334 4.99254 12.0966 4.84709C12.7598 4.70164 13.4472 4.77629 14.072 5.06159C14.6967 5.3469 15.2306 5.83004 15.6063 6.44993C15.982 7.06981 16.1825 7.7986 16.1825 8.54413C16.1825 9.54386 15.8223 10.5026 15.1811 11.2096C14.54 11.9165 13.6704 12.3136 12.7636 12.3136ZM12.7636 6.28245C12.3579 6.28245 11.9613 6.41509 11.624 6.66361C11.2866 6.91213 11.0237 7.26536 10.8684 7.67862C10.7132 8.09189 10.6725 8.54664 10.7517 8.98537C10.8308 9.42409 11.0262 9.82708 11.3131 10.1434C11.6 10.4597 11.9655 10.6751 12.3634 10.7624C12.7613 10.8496 13.1738 10.8048 13.5486 10.6337C13.9235 10.4625 14.2438 10.1726 14.4692 9.80066C14.6946 9.42873 14.8149 8.99145 14.8149 8.54413C14.8149 7.9443 14.5988 7.36903 14.2141 6.94488C13.8294 6.52073 13.3077 6.28245 12.7636 6.28245Z" fill="white"/>
<path d="M19.1459 19.35C18.9652 19.3474 18.7927 19.2671 18.665 19.1263C18.5372 18.9855 18.4644 18.7952 18.4621 18.5961C18.4621 16.636 17.4957 15.3292 12.7639 15.3292C8.0322 15.3292 7.0658 16.636 7.0658 18.5961C7.0658 18.796 6.99376 18.9878 6.86552 19.1292C6.73729 19.2705 6.56337 19.35 6.38202 19.35C6.20067 19.35 6.02675 19.2705 5.89852 19.1292C5.77028 18.9878 5.69824 18.796 5.69824 18.5961C5.69824 13.8214 10.6488 13.8214 12.7639 13.8214C14.8791 13.8214 19.8296 13.8214 19.8296 18.5961C19.8273 18.7952 19.7545 18.9855 19.6267 19.1263C19.499 19.2671 19.3265 19.3474 19.1459 19.35Z" fill="white"/>
<path d="M7.58527 13.1278H7.29353C6.56813 13.0505 5.9003 12.6586 5.43696 12.0384C4.97361 11.4182 4.75269 10.6205 4.82282 9.82072C4.89294 9.02094 5.24835 8.28463 5.81087 7.77376C6.37338 7.2629 7.09692 7.01933 7.82232 7.09665C7.91533 7.10105 8.00654 7.12636 8.09037 7.171C8.1742 7.21565 8.24888 7.2787 8.30983 7.35629C8.37078 7.43388 8.41671 7.52437 8.44482 7.62223C8.47293 7.72008 8.48262 7.82323 8.47329 7.92536C8.46397 8.02749 8.43583 8.12644 8.39059 8.21615C8.34536 8.30587 8.28398 8.38445 8.21023 8.44709C8.13648 8.50973 8.0519 8.5551 7.96168 8.58043C7.87146 8.60576 7.7775 8.61051 7.68556 8.59438C7.50759 8.57482 7.32787 8.595 7.15712 8.65372C6.98638 8.71244 6.82813 8.80849 6.69181 8.93615C6.55334 9.05929 6.4385 9.21159 6.35398 9.38417C6.26945 9.55675 6.21693 9.74615 6.19949 9.94134C6.18063 10.139 6.19764 10.3388 6.24952 10.5291C6.3014 10.7194 6.38712 10.8964 6.50167 11.0499C6.61622 11.2033 6.75732 11.3301 6.91675 11.4228C7.07618 11.5155 7.25075 11.5723 7.43028 11.5899C7.72708 11.6179 8.02421 11.5404 8.27817 11.3687C8.43292 11.2634 8.61927 11.2302 8.79623 11.2764C8.9732 11.3226 9.12627 11.4444 9.22178 11.615C9.31729 11.7856 9.34741 11.9911 9.30553 12.1862C9.26364 12.3813 9.15316 12.5501 8.99841 12.6554C8.57556 12.9527 8.0867 13.1162 7.58527 13.1278Z" fill="white"/>
<path d="M2.73505 18.5961C2.55443 18.5935 2.38188 18.5132 2.25415 18.3724C2.12643 18.2316 2.05363 18.0414 2.05127 17.8422C2.05127 15.1282 2.7077 13.3188 5.92601 13.3188C6.10736 13.3188 6.28128 13.3983 6.40951 13.5397C6.53774 13.681 6.60978 13.8728 6.60978 14.0727C6.60978 14.2727 6.53774 14.4644 6.40951 14.6058C6.28128 14.7472 6.10736 14.8266 5.92601 14.8266C3.7835 14.8266 3.41882 15.5805 3.41882 17.8422C3.41646 18.0414 3.34366 18.2316 3.21594 18.3724C3.08821 18.5132 2.91566 18.5935 2.73505 18.5961Z" fill="white"/>
</svg>
