<svg width="22" height="25" viewBox="0 0 22 25" fill="none" xmlns="http://www.w3.org/2000/svg">
<path d="M17.3222 6.2825H13.9033V5.026C13.8706 4.52721 13.6607 4.06278 13.3194 3.73346C12.978 3.40414 12.5327 3.2365 12.0799 3.26692H9.80066C9.34791 3.2365 8.90255 3.40414 8.56119 3.73346C8.21983 4.06278 8.01001 4.52721 7.97725 5.026V6.2825H4.55837C4.13596 6.28513 3.73153 6.47131 3.43284 6.80064C3.13415 7.12996 2.96528 7.57586 2.96289 8.04158V18.0935C2.96528 18.5592 3.13415 19.0051 3.43284 19.3345C3.73153 19.6638 4.13596 19.85 4.55837 19.8526H17.3222C17.7446 19.85 18.149 19.6638 18.4477 19.3345C18.7464 19.0051 18.9153 18.5592 18.9177 18.0935V8.04158C18.9153 7.57586 18.7464 7.12996 18.4477 6.80064C18.149 6.47131 17.7446 6.28513 17.3222 6.2825ZM9.34481 5.026C9.34481 4.94559 9.51803 4.77471 9.80066 4.77471H12.0799C12.3625 4.77471 12.5358 4.94559 12.5358 5.026V6.2825H9.34481V5.026ZM4.55837 7.79029H17.3222C17.3827 7.79029 17.4406 7.81676 17.4834 7.86389C17.5261 7.91102 17.5501 7.97494 17.5501 8.04158V11.3085H4.33044V8.04158C4.33044 7.97494 4.35446 7.91102 4.3972 7.86389C4.43995 7.81676 4.49792 7.79029 4.55837 7.79029ZM7.97725 12.8163H13.9033V14.324H7.97725V12.8163ZM17.3222 18.3448H4.55837C4.49792 18.3448 4.43995 18.3183 4.3972 18.2712C4.35446 18.2241 4.33044 18.1602 4.33044 18.0935V12.8163H6.6097V15.0779C6.61206 15.2771 6.68486 15.4673 6.81258 15.6081C6.94031 15.749 7.11286 15.8292 7.29348 15.8318H14.5871C14.7677 15.8292 14.9403 15.749 15.068 15.6081C15.1957 15.4673 15.2685 15.2771 15.2709 15.0779V12.8163H17.5501V18.0935C17.5501 18.1602 17.5261 18.2241 17.4834 18.2712C17.4406 18.3183 17.3827 18.3448 17.3222 18.3448Z" fill="white"/>
</svg>
