<svg width="49" height="40" viewBox="0 0 49 40" fill="none" xmlns="http://www.w3.org/2000/svg">
<path d="M49 4.71447C47.1778 5.514 45.2362 6.04395 43.2119 6.30127C45.2944 5.05756 46.8838 3.10316 47.6311 0.747453C45.6894 1.90539 43.5457 2.7233 41.2611 3.17974C39.4174 1.21614 36.7898 0 33.9233 0C28.3618 0 23.8844 4.51535 23.8844 10.0508C23.8844 10.8473 23.9518 11.6131 24.1172 12.3422C15.7657 11.9347 8.37594 7.93097 3.41162 1.83187C2.54494 3.33597 2.03656 5.05756 2.03656 6.91088C2.03656 10.3908 3.82812 13.4756 6.49862 15.2615C4.88469 15.2309 3.30137 14.7622 1.96 14.0239C1.96 14.0546 1.96 14.0944 1.96 14.1342C1.96 19.0172 5.44206 23.073 10.0082 24.0073C9.19056 24.231 8.29937 24.3382 7.3745 24.3382C6.73138 24.3382 6.08212 24.3014 5.47269 24.1666C6.77425 28.1459 10.4676 31.0714 14.8593 31.1663C11.4415 33.8406 7.10194 35.4519 2.40406 35.4519C1.58025 35.4519 0.790125 35.4152 0 35.3141C4.44981 38.1844 9.72344 39.8233 15.4105 39.8233C33.8957 39.8233 44.002 24.5067 44.002 11.2302C44.002 10.786 43.9867 10.3571 43.9652 9.93132C45.9589 8.51606 47.6341 6.74852 49 4.71447Z" fill="white"/>
</svg>
