<svg width="130" height="50" viewBox="0 0 130 50" fill="none" xmlns="http://www.w3.org/2000/svg">
<path d="M44.0646 8.52515H14.5806C13.2509 8.52515 12.1729 9.56086 12.1729 10.8385V39.1656C12.1729 40.4433 13.2509 41.479 14.5806 41.479H44.0646C45.3944 41.479 46.4724 40.4433 46.4724 39.1656V10.8385C46.4724 9.56086 45.3944 8.52515 44.0646 8.52515Z" fill="white"/>
<path d="M80.7301 8.52515H51.2462C49.9164 8.52515 48.8384 9.56086 48.8384 10.8385V39.1656C48.8384 40.4433 49.9164 41.479 51.2462 41.479H80.7301C82.0599 41.479 83.1379 40.4433 83.1379 39.1656V10.8385C83.1379 9.56086 82.0599 8.52515 80.7301 8.52515Z" fill="white"/>
<path d="M118.036 8.52515H88.5523C87.2225 8.52515 86.1445 9.56086 86.1445 10.8385V39.1656C86.1445 40.4433 87.2225 41.479 88.5523 41.479H118.036C119.366 41.479 120.444 40.4433 120.444 39.1656V10.8385C120.444 9.56086 119.366 8.52515 118.036 8.52515Z" fill="white"/>
<path d="M38.4324 15.2881L34.2827 18.3658C32.8338 16.6573 31.3556 15.8004 29.8481 15.795C29.2109 15.7708 28.5825 15.9443 28.0559 16.2899C27.8536 16.4077 27.6842 16.5712 27.5623 16.766C27.4405 16.9609 27.3699 17.1814 27.3566 17.4083C27.3654 17.8481 27.5429 18.2692 27.8549 18.5911C28.3071 19.0846 29.6709 20.1481 31.946 21.7815C34.0789 23.2915 35.37 24.2437 35.8195 24.638C36.7905 25.4144 37.6052 26.3552 38.2231 27.4139C38.699 28.3074 38.9405 29.299 38.9266 30.3026C38.9432 31.2719 38.7249 32.2316 38.2888 33.1059C37.8527 33.9801 37.2109 34.7448 36.4141 35.3396C34.7391 36.6592 32.5672 37.3177 29.8984 37.315C27.9952 37.3508 26.1164 36.8996 24.4547 36.0074C22.7745 35.0083 21.4014 33.5975 20.4766 31.9199L25.1791 29.5382C26.5749 31.7295 28.1997 32.8278 30.0533 32.8332C30.9188 32.8612 31.7697 32.6137 32.4737 32.1291C32.7634 31.9545 33.0043 31.7143 33.1751 31.4295C33.3459 31.1448 33.4415 30.8242 33.4535 30.4957C33.4289 29.8665 33.1669 29.2674 32.7165 28.81C32.228 28.2467 31.1434 27.3858 29.4629 26.2271C26.2525 24.0305 24.1811 22.3273 23.2487 21.1177C22.3878 20.1021 21.8992 18.8422 21.8584 17.533C21.8584 15.8165 22.6373 14.3413 24.195 13.1075C25.821 11.8535 27.8604 11.1998 29.9444 11.2649C31.3887 11.2608 32.817 11.5558 34.1319 12.1299C35.4579 12.7173 36.8914 13.77 38.4324 15.2881Z" fill="#282828"/>
<path d="M60.3496 12.4718H65.9399V32.7486H74.0845V37.2465H60.3496V12.4718Z" fill="#282828"/>
<path d="M95.0557 13.1115H111.286V17.7623H105.914V37.8983H100.244V17.7623H95.0557V13.1115Z" fill="#282828"/>
</svg>
